<svg width="167" height="48" viewBox="0 0 167 48" fill="none" xmlns="http://www.w3.org/2000/svg">
<path d="M0 8C0 3.58172 3.58172 0 8 0H159C163.418 0 167 3.58172 167 8V40C167 44.4183 163.418 48 159 48H8C3.58172 48 0 44.4183 0 40V8Z" fill="#EFF1F5"/>
<path d="M44.3163 19.8521C44.3163 19.8521 41.5295 21.2892 41.5295 24.7785V24.7778C41.5295 28.7131 45 30.0692 45 30.0692C45 30.0692 42.5745 36.9619 39.2978 36.9619C37.7912 36.9619 36.6231 35.9383 35.0356 35.9383C33.4204 35.9383 31.8163 37 30.7728 37C27.7805 37 24 30.4626 24 25.2072C24 20.037 27.1992 17.3241 30.2005 17.3241C32.1527 17.3241 33.6668 18.4599 34.6792 18.4599C35.5505 18.4599 37.167 17.2521 39.2708 17.2521C42.8907 17.2521 44.3163 19.8521 44.3163 19.8521Z" fill="#1F2023"/>
<path d="M39.632 11C39.632 11 39.9829 13.1173 38.3006 15.1556C36.5048 17.3331 34.4654 16.9764 34.4654 16.9764C34.4654 16.9764 34.082 15.2643 35.5865 13.2627C37.2791 11.0104 39.632 11 39.632 11Z" fill="#1F2023"/>
<path d="M56.6978 14.4828C56.6768 14.8214 56.6374 15.0951 56.5796 15.3039C56.5244 15.5126 56.4312 15.6934 56.2999 15.8462V15.892H59.0574V11.6186H56.8829L56.6978 14.4828ZM55.6578 16.5106V17.599H55V15.892H55.4215C55.6184 15.7902 55.7629 15.6234 55.8548 15.3917C55.9493 15.1575 56.0084 14.8494 56.0321 14.4676L56.2487 11H59.7664V15.892H60.4755V17.599H59.8176V16.5106H55.6578ZM62.0021 15.5903C62.2201 15.8576 62.53 15.9913 62.9318 15.9913C63.3336 15.9913 63.6435 15.8576 63.8615 15.5903C64.0794 15.3204 64.1884 14.9411 64.1884 14.4523C64.1884 13.9635 64.0794 13.5854 63.8615 13.318C63.6435 13.0482 63.3336 12.9133 62.9318 12.9133C62.53 12.9133 62.2201 13.0482 62.0021 13.318C61.7842 13.5854 61.6752 13.9635 61.6752 14.4523C61.6752 14.9411 61.7842 15.3204 62.0021 15.5903ZM64.3617 16.0142C64.0125 16.3935 63.5358 16.5832 62.9318 16.5832C62.3278 16.5832 61.8498 16.3935 61.4979 16.0142C61.1487 15.6323 60.974 15.1117 60.974 14.4523C60.974 13.7903 61.1487 13.2697 61.4979 12.8904C61.8472 12.511 62.3252 12.3213 62.9318 12.3213C63.5385 12.3213 64.0164 12.511 64.3657 12.8904C64.715 13.2697 64.8896 13.7903 64.8896 14.4523C64.8896 15.1117 64.7137 15.6323 64.3617 16.0142ZM69.3038 13.6541H68.6181C68.5607 13.4377 68.4357 13.2608 68.244 13.1233C68.055 12.9833 67.8147 12.9133 67.5232 12.9133C67.1424 12.9133 66.8391 13.0507 66.6132 13.3257C66.39 13.6006 66.2784 13.9711 66.2784 14.437C66.2784 14.9105 66.3913 15.2886 66.6172 15.5712C66.843 15.8512 67.145 15.9913 67.5232 15.9913C67.8094 15.9913 68.0471 15.9289 68.2362 15.8041C68.4281 15.6794 68.5554 15.5012 68.6181 15.2695H69.3038C69.2406 15.659 69.0529 15.976 68.7405 16.2204C68.4281 16.4623 68.0235 16.5832 67.5271 16.5832C66.931 16.5832 66.457 16.3897 66.1051 16.0028C65.7532 15.6132 65.5772 15.0913 65.5772 14.437C65.5772 13.7954 65.7532 13.2824 66.1051 12.898C66.457 12.5136 66.9297 12.3213 67.5232 12.3213C68.0195 12.3213 68.424 12.4473 68.7364 12.6994C69.0515 12.9514 69.2406 13.2697 69.3038 13.6541ZM73.0167 12.3939V12.9438H71.638V16.5106H70.9604V12.9438H69.5817V12.3939H73.0167ZM74.1295 18C74.022 18 73.9211 17.9924 73.8266 17.9771V17.4157C73.8947 17.4285 73.9893 17.4348 74.1098 17.4348C74.307 17.4348 74.4635 17.3839 74.5786 17.2821C74.697 17.1802 74.8005 17.0058 74.8901 16.7589L74.9686 16.5145L73.3972 12.3939H74.1295L75.2957 15.7812H75.3589L76.5207 12.3939H77.2418L75.5835 16.7627C75.402 17.2388 75.2092 17.5634 75.0044 17.7365C74.7996 17.9122 74.5078 18 74.1295 18ZM80.7382 16.5106V12.9438H78.6581V16.5106H77.9804V12.3939H81.4154V16.5106H80.7382ZM82.5206 16.5106V12.3939H83.1983V14.0971H85.3174V12.3939H85.995V16.5106H85.3174V14.647H83.1983V16.5106H82.5206ZM87.9196 15.5903C88.1374 15.8576 88.4476 15.9913 88.8491 15.9913C89.2512 15.9913 89.5609 15.8576 89.7787 15.5903C89.997 15.3204 90.1059 14.9411 90.1059 14.4523C90.1059 13.9635 89.997 13.5854 89.7787 13.318C89.5609 13.0482 89.2512 12.9133 88.8491 12.9133C88.4476 12.9133 88.1374 13.0482 87.9196 13.318C87.7018 13.5854 87.5929 13.9635 87.5929 14.4523C87.5929 14.9411 87.7018 15.3204 87.9196 15.5903ZM90.2793 16.0142C89.9297 16.3935 89.4533 16.5832 88.8491 16.5832C88.2454 16.5832 87.7672 16.3935 87.4154 16.0142C87.0662 15.6323 86.8914 15.1117 86.8914 14.4523C86.8914 13.7903 87.0662 13.2697 87.4154 12.8904C87.7645 12.511 88.2427 12.3213 88.8491 12.3213C89.456 12.3213 89.9338 12.511 90.2829 12.8904C90.6325 13.2697 90.8068 13.7903 90.8068 14.4523C90.8068 15.1117 90.6312 15.6323 90.2793 16.0142ZM95.4519 12.9438H94.4157V14.1048H95.3417C95.8746 14.1048 96.1413 13.9087 96.1413 13.5167C96.1413 13.3384 96.0834 13.1984 95.9678 13.0966C95.8549 12.9947 95.6828 12.9438 95.4519 12.9438ZM95.4008 14.6547H94.4157V15.9607H95.5308C95.7908 15.9607 95.9875 15.906 96.1215 15.7965C96.2582 15.6845 96.3264 15.5241 96.3264 15.3153C96.3264 15.0887 96.2488 14.922 96.0937 14.8151C95.9418 14.7081 95.7105 14.6547 95.4008 14.6547ZM93.7385 16.5106V12.3939H95.5384C95.9351 12.3939 96.2461 12.4894 96.472 12.6803C96.6979 12.8687 96.8109 13.1246 96.8109 13.4479C96.8109 13.6516 96.7441 13.8374 96.6101 14.0055C96.4787 14.1709 96.3147 14.274 96.1175 14.3148V14.3759C96.3855 14.4115 96.5993 14.5172 96.7598 14.6929C96.9198 14.866 97 15.0773 97 15.3268C97 15.6883 96.8714 15.976 96.6141 16.1899C96.3564 16.4037 96.0005 16.5106 95.5465 16.5106H93.7385Z" fill="#212126"/>
<path d="M64.7523 34.6698L63.6061 31.2661H58.6172L57.4522 34.6698H55L59.8104 21.3594H62.535L67.3548 34.6698H64.7523ZM61.0412 23.896L59.1809 29.3844H63.0424L61.2009 23.896H61.0412ZM74.4628 24.4126C75.7656 24.4126 76.796 24.8769 77.5539 25.8054C78.318 26.734 78.6999 28.0069 78.6999 29.6242C78.6999 31.2353 78.3211 32.5083 77.5633 33.443C76.8116 34.3715 75.7876 34.8358 74.491 34.8358C73.7582 34.8358 73.1161 34.6882 72.565 34.393C72.0201 34.0917 71.616 33.6736 71.353 33.1386H71.1933V38.0273H68.8633V24.5786H71.1087V26.2482H71.2685C71.5628 25.6763 71.9919 25.2274 72.5556 24.9014C73.1256 24.5755 73.7613 24.4126 74.4628 24.4126ZM73.73 32.8895C74.538 32.8895 75.1674 32.6005 75.6184 32.0225C76.0756 31.4444 76.3043 30.645 76.3043 29.6242C76.3043 28.6034 76.0756 27.8039 75.6184 27.2259C75.1674 26.6479 74.5411 26.3589 73.7394 26.3589C72.9439 26.3589 72.3144 26.651 71.8509 27.2352C71.3875 27.8194 71.1526 28.6157 71.1463 29.6242C71.1526 30.6327 71.3843 31.429 71.8416 32.0132C72.305 32.5974 72.9346 32.8895 73.73 32.8895ZM86.0621 24.4126C87.3649 24.4126 88.3951 24.8769 89.1528 25.8054C89.9168 26.734 90.2993 28.0069 90.2993 29.6242C90.2993 31.2353 89.92 32.5083 89.1624 33.443C88.4104 34.3715 87.3866 34.8358 86.0902 34.8358C85.3574 34.8358 84.7152 34.6882 84.1636 34.393C83.6193 34.0917 83.2152 33.6736 82.9522 33.1386H82.7919V38.0273H80.4621V24.5786H82.7077V26.2482H82.8672C83.1615 25.6763 83.5912 25.2274 84.1548 24.9014C84.7248 24.5755 85.3606 24.4126 86.0621 24.4126ZM85.3293 32.8895C86.1367 32.8895 86.7668 32.6005 87.2174 32.0225C87.6744 31.4444 87.9029 30.645 87.9029 29.6242C87.9029 28.6034 87.6744 27.8039 87.2174 27.2259C86.7668 26.6479 86.1399 26.3589 85.3382 26.3589C84.5428 26.3589 83.9135 26.651 83.4501 27.2352C82.9867 27.8194 82.7518 28.6157 82.7454 29.6242C82.7518 30.6327 82.9835 31.429 83.4405 32.0132C83.9039 32.5974 84.5332 32.8895 85.3293 32.8895ZM96.2376 31.0539H98.6059C98.6805 31.6505 98.9972 32.127 99.5544 32.4837C100.112 32.8342 100.82 33.0094 101.678 33.0094C102.48 33.0094 103.137 32.8311 103.651 32.4744C104.171 32.1116 104.431 31.6505 104.431 31.0908C104.431 30.6112 104.233 30.2207 103.839 29.9193C103.451 29.618 102.821 29.369 101.95 29.1722L100.193 28.7756C98.9659 28.505 98.0544 28.0653 97.4595 27.4565C96.8702 26.8416 96.576 26.0391 96.576 25.049C96.576 23.8376 97.037 22.866 97.9574 22.1342C98.8842 21.3963 100.106 21.0273 101.621 21.0273C103.044 21.0273 104.22 21.3901 105.154 22.1158C106.088 22.8414 106.582 23.7761 106.638 24.9199H104.318C104.236 24.3357 103.952 23.8714 103.463 23.5271C102.975 23.1826 102.357 23.0105 101.612 23.0105C100.829 23.0105 100.2 23.1826 99.7236 23.5271C99.2537 23.8652 99.0188 24.3173 99.0188 24.883C99.0188 25.3319 99.204 25.6978 99.5736 25.9806C99.9432 26.2574 100.547 26.4911 101.386 26.6817L102.947 27.0322C104.318 27.3336 105.311 27.7824 105.924 28.3789C106.545 28.9754 106.855 29.781 106.855 30.7956C106.855 32.0932 106.375 33.1201 105.417 33.8765C104.465 34.6267 103.169 35.0019 101.527 35.0019C99.9745 35.0019 98.7182 34.6452 97.7601 33.9319C96.8077 33.2185 96.301 32.2592 96.2376 31.0539ZM109.5 22.1066H111.821V24.6432H114.019V26.4695H111.821V31.4229C111.821 31.921 111.933 32.2869 112.159 32.5205C112.384 32.7481 112.741 32.8618 113.23 32.8618C113.443 32.8618 113.706 32.8465 114.019 32.8157V34.6052C113.631 34.679 113.224 34.7159 112.797 34.7159C111.62 34.7159 110.775 34.5038 110.261 34.0794C109.754 33.6551 109.5 32.9541 109.5 31.9763V26.4695H107.875V24.6432H109.5V22.1066ZM118.224 32.0871C118.668 32.6651 119.299 32.9541 120.112 32.9541C120.927 32.9541 121.553 32.6651 121.992 32.0871C122.437 31.5029 122.659 30.6819 122.659 29.6242C122.659 28.5726 122.437 27.7547 121.992 27.1706C121.547 26.5864 120.92 26.2943 120.112 26.2943C119.299 26.2943 118.668 26.5864 118.224 27.1706C117.779 27.7547 117.557 28.5726 117.557 29.6242C117.557 30.6819 117.779 31.5029 118.224 32.0871ZM120.112 34.8727C118.571 34.8727 117.363 34.4085 116.486 33.4799C115.609 32.5452 115.17 31.26 115.17 29.6242C115.17 28.0007 115.612 26.7216 116.495 25.7869C117.378 24.8461 118.584 24.3757 120.112 24.3757C121.647 24.3757 122.853 24.843 123.73 25.7777C124.612 26.7124 125.054 27.9946 125.054 29.6242C125.054 31.26 124.612 32.5452 123.73 33.4799C122.853 34.4085 121.647 34.8727 120.112 34.8727ZM126.826 34.6698V24.5786H129.072V26.1467H129.231C129.375 25.6424 129.698 25.2274 130.199 24.9014C130.706 24.5755 131.288 24.4126 131.947 24.4126C132.366 24.4126 132.688 24.4464 132.914 24.5141V26.6356C132.676 26.5495 132.279 26.5064 131.72 26.5064C130.963 26.5064 130.346 26.7216 129.87 27.1521C129.394 27.5765 129.156 28.1391 129.156 28.8402V34.6698H126.826ZM138.303 26.1928C137.608 26.1928 137.034 26.4173 136.584 26.8662C136.132 27.3151 135.882 27.9085 135.832 28.6465H140.67C140.645 27.8962 140.42 27.2997 139.994 26.8569C139.568 26.4142 139.004 26.1928 138.303 26.1928ZM140.689 31.8934H142.897C142.678 32.8157 142.161 33.5444 141.347 34.0794C140.539 34.6083 139.533 34.8727 138.331 34.8727C136.821 34.8727 135.635 34.4115 134.77 33.4891C133.912 32.5605 133.483 31.2845 133.483 29.6611C133.483 28.0376 133.915 26.7524 134.78 25.8054C135.644 24.8522 136.821 24.3757 138.312 24.3757C139.778 24.3757 140.924 24.8277 141.751 25.7316C142.584 26.6295 143 27.8747 143 29.4674V30.2053H135.822V30.3253C135.853 31.1677 136.098 31.8349 136.555 32.3268C137.019 32.8126 137.632 33.0556 138.396 33.0556C139.574 33.0556 140.338 32.6681 140.689 31.8934Z" fill="#212126"/>
</svg>
