<svg width="140" height="42" viewBox="0 0 140 42" fill="none" xmlns="http://www.w3.org/2000/svg">
<rect width="140" height="42" rx="5" fill="white"/>
<path d="M134.815 0.84C135.97 0.84 137.078 1.30462 137.895 2.13166C138.711 2.95869 139.17 4.0804 139.17 5.25V36.75C139.17 37.9196 138.711 39.0413 137.895 39.8683C137.078 40.6954 135.97 41.16 134.815 41.16H5.18518C4.03002 41.16 2.92217 40.6954 2.10534 39.8683C1.28852 39.0413 0.82963 37.9196 0.82963 36.75V5.25C0.82963 4.0804 1.28852 2.95869 2.10534 2.13166C2.92217 1.30462 4.03002 0.84 5.18518 0.84H134.815ZM134.815 0H5.18518C3.80999 0 2.49112 0.553123 1.51871 1.53769C0.546295 2.52226 0 3.85761 0 5.25V36.75C0 38.1424 0.546295 39.4777 1.51871 40.4623C2.49112 41.4469 3.80999 42 5.18518 42H134.815C136.19 42 137.509 41.4469 138.481 40.4623C139.454 39.4777 140 38.1424 140 36.75V5.25C140 3.85761 139.454 2.52226 138.481 1.53769C137.509 0.553123 136.19 0 134.815 0Z" fill="#131313"/>
<path d="M33.3026 20.2787C33.2739 17.0542 35.9102 15.4855 36.0307 15.4125C34.5377 13.2085 32.2236 12.9074 31.4104 12.8834C29.4668 12.6763 27.5815 14.0609 26.5914 14.0609C25.5816 14.0609 24.057 12.9034 22.4138 12.9374C20.2992 12.9704 18.3211 14.2099 17.2361 16.1348C14.9971 20.0596 16.667 25.8271 18.8121 28.9996C19.8852 30.5532 21.1391 32.288 22.7803 32.227C24.386 32.16 24.9858 31.1905 26.9234 31.1905C28.8433 31.1905 29.4065 32.227 31.0803 32.188C32.8036 32.16 33.8885 30.6273 34.924 29.0596C36.1641 27.2788 36.6621 25.525 36.6819 25.435C36.6413 25.421 33.3352 24.1434 33.3026 20.2787Z" fill="#131313"/>
<path d="M30.1404 10.7965C31.004 9.70297 31.5948 8.2153 31.4308 6.70563C30.1809 6.76165 28.6177 7.58102 27.7175 8.6505C26.9211 9.59292 26.2097 11.1376 26.3935 12.5903C27.7976 12.6963 29.2392 11.8729 30.1404 10.7965Z" fill="#131313"/>
<path d="M56.5387 32.0038H54.2948L53.0656 28.0931H48.7931L47.6222 32.0038H45.4375L49.6705 18.6899H52.285L56.5387 32.0038ZM52.6951 26.4523L51.5835 22.9758C51.4659 22.6206 51.2455 21.7843 50.9204 20.4677H50.8809C50.7515 21.0339 50.543 21.8703 50.2564 22.9758L49.1646 26.4523H52.6951Z" fill="#131313"/>
<path d="M67.4249 27.0858C67.4249 28.7186 66.9892 30.0092 66.1177 30.9566C65.3371 31.8 64.3678 32.2211 63.2107 32.2211C61.9618 32.2211 61.0646 31.7669 60.5181 30.8585H60.4786V35.9158H58.372V25.5642C58.372 24.5377 58.3453 23.4842 58.2939 22.4038H60.1466L60.2642 23.9254H60.3037C61.0063 22.7789 62.0724 22.2067 63.5032 22.2067C64.6217 22.2067 65.5555 22.6539 66.3025 23.5493C67.0514 24.4457 67.4249 25.6242 67.4249 27.0858ZM65.2788 27.1639C65.2788 26.2295 65.0713 25.4591 64.6543 24.8528C64.1988 24.2206 63.5872 23.9044 62.8204 23.9044C62.3007 23.9044 61.8284 24.0805 61.4064 24.4277C60.9835 24.7778 60.7069 25.235 60.5774 25.8013C60.5122 26.0654 60.4796 26.2815 60.4796 26.4516V28.0523C60.4796 28.7506 60.6911 29.3399 61.114 29.8211C61.5369 30.3023 62.0863 30.5424 62.7621 30.5424C63.5556 30.5424 64.1731 30.2323 64.6148 29.614C65.0575 28.9947 65.2788 28.1783 65.2788 27.1639Z" fill="#131313"/>
<path d="M78.3302 27.0858C78.3302 28.7186 77.8944 30.0092 77.0219 30.9566C76.2423 31.8 75.273 32.2211 74.116 32.2211C72.867 32.2211 71.9698 31.7669 71.4244 30.8585H71.3849V35.9158H69.2783V25.5642C69.2783 24.5377 69.2516 23.4842 69.2002 22.4038H71.0529L71.1705 23.9254H71.21C71.9115 22.7789 72.9777 22.2067 74.4094 22.2067C75.527 22.2067 76.4607 22.6539 77.2097 23.5493C77.9557 24.4457 78.3302 25.6242 78.3302 27.0858ZM76.184 27.1639C76.184 26.2295 75.9755 25.4591 75.5586 24.8528C75.1031 24.2206 74.4934 23.9044 73.7257 23.9044C73.2049 23.9044 72.7336 24.0805 72.3107 24.4277C71.8878 24.7778 71.6121 25.235 71.4827 25.8013C71.4185 26.0654 71.3849 26.2815 71.3849 26.4516V28.0523C71.3849 28.7506 71.5963 29.3399 72.0172 29.8211C72.4402 30.3013 72.9895 30.5424 73.6674 30.5424C74.4608 30.5424 75.0784 30.2323 75.52 29.614C75.9627 28.9947 76.184 28.1783 76.184 27.1639Z" fill="#131313"/>
<path d="M90.5249 28.2703C90.5249 29.4028 90.1366 30.3242 89.357 31.0355C88.5003 31.8129 87.3077 32.2011 85.7751 32.2011C84.3602 32.2011 83.2258 31.9249 82.3672 31.3717L82.8553 29.5939C83.7802 30.1601 84.7949 30.4443 85.9006 30.4443C86.6941 30.4443 87.3116 30.2622 87.7553 29.9C88.197 29.5379 88.4173 29.0517 88.4173 28.4454C88.4173 27.9051 88.2355 27.4499 87.8709 27.0808C87.5082 26.7116 86.9025 26.3685 86.0567 26.0513C83.7545 25.1819 82.6043 23.9084 82.6043 22.2336C82.6043 21.1391 83.0075 20.2417 83.8148 19.5434C84.6191 18.8441 85.6921 18.4949 87.034 18.4949C88.2305 18.4949 89.2246 18.706 90.018 19.1272L89.4914 20.866C88.7503 20.4578 87.9124 20.2537 86.9747 20.2537C86.2336 20.2537 85.6546 20.4388 85.2396 20.807C84.8888 21.1361 84.7129 21.5373 84.7129 22.0125C84.7129 22.5387 84.9135 22.9739 85.3167 23.3161C85.6674 23.6322 86.3048 23.9744 87.2296 24.3435C88.361 24.8048 89.192 25.344 89.7265 25.9623C90.2591 26.5785 90.5249 27.3499 90.5249 28.2703Z" fill="#131313"/>
<path d="M97.4893 24.0043H95.1672V28.6654C95.1672 29.8509 95.5763 30.4432 96.3964 30.4432C96.7729 30.4432 97.0851 30.4102 97.3322 30.3441L97.3905 31.9639C96.9755 32.1209 96.429 32.2 95.7522 32.2C94.9202 32.2 94.2701 31.9429 93.8007 31.4296C93.3333 30.9154 93.0982 30.053 93.0982 28.8415V24.0023H91.7148V22.4016H93.0982V20.6438L95.1672 20.0115V22.4016H97.4893V24.0043Z" fill="#131313"/>
<path d="M107.967 27.1245C107.967 28.6002 107.55 29.8117 106.718 30.7592C105.845 31.7346 104.687 32.2208 103.244 32.2208C101.852 32.2208 100.745 31.7536 99.9188 30.8192C99.0927 29.8848 98.6797 28.7052 98.6797 27.2836C98.6797 25.7959 99.1046 24.5774 99.9573 23.63C100.808 22.6815 101.956 22.2073 103.4 22.2073C104.791 22.2073 105.911 22.6745 106.755 23.61C107.564 24.5174 107.967 25.6889 107.967 27.1245ZM105.781 27.1936C105.781 26.3082 105.594 25.5488 105.216 24.9155C104.774 24.1492 104.143 23.767 103.325 23.767C102.478 23.767 101.835 24.1502 101.393 24.9155C101.015 25.5498 100.828 26.3212 100.828 27.2336C100.828 28.119 101.015 28.8783 101.393 29.5106C101.849 30.2769 102.485 30.6591 103.306 30.6591C104.11 30.6591 104.742 30.2689 105.197 29.4906C105.585 28.8453 105.781 28.078 105.781 27.1936Z" fill="#131313"/>
<path d="M114.811 24.2798C114.603 24.2408 114.38 24.2207 114.147 24.2207C113.406 24.2207 112.833 24.5039 112.43 25.0711C112.079 25.5714 111.903 26.2036 111.903 26.967V32.0042H109.798L109.817 25.4273C109.817 24.3208 109.791 23.3133 109.738 22.4049H111.573L111.65 24.2418H111.709C111.931 23.6105 112.282 23.1022 112.762 22.7211C113.231 22.3779 113.738 22.2068 114.284 22.2068C114.479 22.2068 114.655 22.2209 114.811 22.2459V24.2798Z" fill="#131313"/>
<path d="M124.234 26.7496C124.234 27.1318 124.209 27.454 124.157 27.7171H117.837C117.862 28.6655 118.167 29.3908 118.754 29.891C119.287 30.3382 119.975 30.5623 120.821 30.5623C121.757 30.5623 122.611 30.4113 123.378 30.1081L123.708 31.5888C122.811 31.985 121.752 32.1821 120.53 32.1821C119.059 32.1821 117.905 31.7439 117.065 30.8685C116.228 29.9931 115.808 28.8176 115.808 27.3429C115.808 25.8953 116.198 24.6897 116.979 23.7283C117.798 22.7018 118.903 22.1886 120.295 22.1886C121.661 22.1886 122.696 22.7018 123.398 23.7283C123.954 24.5437 124.234 25.5521 124.234 26.7496ZM122.225 26.1964C122.239 25.5641 122.102 25.0179 121.816 24.5567C121.452 23.9634 120.891 23.6673 120.137 23.6673C119.449 23.6673 118.888 23.9564 118.461 24.5366C118.11 24.9979 117.901 25.5511 117.837 26.1954H122.225V26.1964Z" fill="#131313"/>
<path d="M52.9892 15.4362H51.8934V13.7812H47.5148V15.4362H46.4008L46.3643 12.8474H46.8985C47.1633 12.5885 47.3748 12.2125 47.5331 11.7194C47.6914 11.2232 47.7933 10.6623 47.839 10.0367L48.0125 7.05035H52.2039V12.8474H53.0485L52.9892 15.4362ZM48.2043 12.8474H51.0533V7.99341H49.1128L49.0033 9.88877C48.9211 11.1554 48.6547 12.1416 48.2043 12.8474Z" fill="#131313"/>
<path d="M54.0685 11.234C54.0685 10.744 54.1644 10.3033 54.3562 9.91189C54.5479 9.51741 54.8173 9.21538 55.1643 9.00581C55.5113 8.79316 55.91 8.68684 56.3605 8.68684C57.0271 8.68684 57.5674 8.90411 57.9814 9.33866C58.3984 9.7732 58.6236 10.3495 58.6571 11.0676L58.6617 11.3311C58.6617 11.8242 58.5673 12.2649 58.3786 12.6532C58.1929 13.0415 57.9251 13.342 57.575 13.5547C57.228 13.7673 56.8262 13.8737 56.3697 13.8737C55.6726 13.8737 55.1141 13.6394 54.694 13.171C54.277 12.6995 54.0685 12.0723 54.0685 11.2895V11.234ZM55.178 11.3311C55.178 11.8458 55.283 12.2495 55.493 12.5423C55.7031 12.832 55.9953 12.9768 56.3697 12.9768C56.7441 12.9768 57.0347 12.8289 57.2417 12.533C57.4518 12.2372 57.5568 11.8042 57.5568 11.234C57.5568 10.7286 57.4487 10.3279 57.2326 10.0321C57.0195 9.73622 56.7288 9.58829 56.3605 9.58829C55.9983 9.58829 55.7107 9.73468 55.4976 10.0275C55.2845 10.3172 55.178 10.7517 55.178 11.3311Z" fill="#131313"/>
<path d="M62.097 12.9768C62.3739 12.9768 62.6038 12.8952 62.7864 12.7318C62.969 12.5685 63.0664 12.3666 63.0786 12.1262H64.1242C64.112 12.4375 64.0161 12.7287 63.8365 12.9999C63.6569 13.2681 63.4134 13.4807 63.106 13.6379C62.7986 13.7951 62.4668 13.8737 62.1107 13.8737C61.4197 13.8737 60.8718 13.6471 60.467 13.1941C60.0622 12.7411 59.8597 12.1154 59.8597 11.3172V11.2017C59.8597 10.4404 60.0606 9.83176 60.4624 9.37564C60.8642 8.91644 61.4121 8.68684 62.1061 8.68684C62.6936 8.68684 63.1714 8.86096 63.5397 9.20922C63.9111 9.55439 64.1059 10.009 64.1242 10.573H63.0786C63.0664 10.2863 62.969 10.0506 62.7864 9.86566C62.6068 9.68075 62.377 9.58829 62.097 9.58829C61.7378 9.58829 61.4608 9.72081 61.266 9.98585C61.0712 10.2478 60.9723 10.6469 60.9692 11.1832V11.3635C60.9692 11.9059 61.0651 12.3111 61.2569 12.5793C61.4517 12.8443 61.7317 12.9768 62.097 12.9768Z" fill="#131313"/>
<path d="M69.3173 9.6715H67.7147V13.7812H66.6052V9.6715H65.0209V8.77929H69.3173V9.6715Z" fill="#131313"/>
<path d="M72.3097 12.1725L73.3141 8.77929H74.4967L72.5334 14.5393C72.232 15.3807 71.7207 15.8014 70.9993 15.8014C70.838 15.8014 70.6599 15.7736 70.4651 15.7182V14.8491L70.6751 14.8629C70.9551 14.8629 71.1652 14.8105 71.3052 14.7058C71.4482 14.6041 71.5609 14.4315 71.6431 14.188L71.8029 13.7581L70.0679 8.77929H71.2641L72.3097 12.1725Z" fill="#131313"/>
<path d="M79.7948 13.7812H78.6853V9.68537H76.7585V13.7812H75.649V8.77929H79.7948V13.7812Z" fill="#131313"/>
<path d="M85.6271 13.7812H84.5176V11.761H82.5954V13.7812H81.4859V8.77929H82.5954V10.8642H84.5176V8.77929H85.6271V13.7812Z" fill="#131313"/>
<path d="M87.0717 11.234C87.0717 10.744 87.1676 10.3033 87.3593 9.91189C87.5511 9.51741 87.8205 9.21538 88.1675 9.00581C88.5145 8.79316 88.9132 8.68684 89.3637 8.68684C90.0303 8.68684 90.5706 8.90411 90.9845 9.33866C91.4015 9.7732 91.6268 10.3495 91.6603 11.0676L91.6648 11.3311C91.6648 11.8242 91.5705 12.2649 91.3818 12.6532C91.1961 13.0415 90.9282 13.342 90.5782 13.5547C90.2312 13.7673 89.8294 13.8737 89.3728 13.8737C88.6758 13.8737 88.1172 13.6394 87.6972 13.171C87.2802 12.6995 87.0717 12.0723 87.0717 11.2895V11.234ZM88.1812 11.3311C88.1812 11.8458 88.2862 12.2495 88.4962 12.5423C88.7062 12.832 88.9984 12.9768 89.3728 12.9768C89.7472 12.9768 90.0379 12.8289 90.2449 12.533C90.4549 12.2372 90.5599 11.8042 90.5599 11.234C90.5599 10.7286 90.4519 10.3279 90.2357 10.0321C90.0227 9.73622 89.732 9.58829 89.3637 9.58829C89.0015 9.58829 88.7138 9.73468 88.5008 10.0275C88.2877 10.3172 88.1812 10.7517 88.1812 11.3311Z" fill="#131313"/>
<path d="M95.9512 13.7812V8.77929H97.9555C98.6313 8.77929 99.1457 8.89949 99.4988 9.13987C99.8518 9.37718 100.028 9.71927 100.028 10.1661C100.028 10.3973 99.9569 10.6053 99.8138 10.7902C99.6738 10.9721 99.4653 11.1123 99.1883 11.2109C99.5109 11.2787 99.7666 11.4158 99.9553 11.6223C100.144 11.8288 100.238 12.0723 100.238 12.3527C100.238 12.8181 100.068 13.1725 99.7271 13.416C99.3892 13.6595 98.9022 13.7812 98.266 13.7812H95.9512ZM97.0606 11.6501V12.8936H98.2751C98.8443 12.8936 99.1289 12.6871 99.1289 12.2742C99.1289 11.8581 98.8398 11.6501 98.2614 11.6501H97.0606ZM97.0606 10.8457H97.9738C98.6039 10.8457 98.9189 10.6577 98.9189 10.2817C98.9189 9.88723 98.6206 9.68383 98.024 9.6715H97.0606V10.8457Z" fill="#131313"/>
</svg>
