<svg width="1920" height="1080" viewBox="0 0 1920 1080" fill="none" xmlns="http://www.w3.org/2000/svg">
<path d="M1398.57 -113.012C1390.39 -128.998 1363.97 -137.322 1337.46 -145.307C1310.69 -152.339 1283.8 -159.003 1268.47 -149.652C1252.47 -141.476 1244.14 -115.082 1236.14 -88.6004C1229.1 -61.8543 1222.43 -34.991 1231.79 -19.6803C1239.98 -3.69432 1266.4 4.62894 1292.91 12.6146C1319.68 19.646 1346.57 26.3107 1361.9 16.9598C1377.9 8.78336 1386.23 -17.6105 1394.22 -44.0923C1401.25 -70.8383 1407.93 -97.687 1398.57 -113.012ZM1345.69 -11.9442C1335.67 -5.82281 1318.12 -10.1972 1300.64 -14.7772C1283.33 -19.9884 1266.07 -25.42 1260.73 -35.8571C1254.6 -45.8685 1258.98 -63.3957 1263.56 -80.8642C1268.78 -98.1567 1274.22 -115.39 1284.66 -120.734C1294.68 -126.855 1312.23 -122.481 1329.72 -117.901C1347.03 -112.689 1364.28 -107.258 1369.63 -96.8209C1375.75 -86.8095 1371.37 -69.2822 1366.79 -51.8137C1361.59 -34.5066 1356.14 -17.2875 1345.69 -11.9442Z" fill="#E4ECF2"/>
<path d="M1592.96 -58.2873C1584.78 -74.2733 1558.36 -82.5966 1531.85 -90.5823C1505.08 -97.6137 1478.19 -104.278 1462.86 -94.9273C1446.86 -86.7509 1438.53 -60.3571 1430.53 -33.8753C1423.49 -7.12933 1416.82 19.734 1426.18 35.0447C1434.37 51.0307 1460.79 59.354 1487.3 67.3396C1514.07 74.3711 1540.96 81.0355 1556.29 71.6847C1572.29 63.5082 1580.62 37.1145 1588.62 10.6328C1595.64 -16.1133 1602.32 -42.9619 1592.96 -58.2873ZM1540.08 42.7809C1530.06 48.9022 1512.51 44.5276 1495.03 39.9476C1477.72 34.7364 1460.47 29.305 1455.12 18.8679C1448.99 8.85652 1453.37 -8.67065 1457.95 -26.1392C1463.17 -43.4317 1468.61 -60.6654 1479.05 -66.0087C1489.08 -72.1301 1506.62 -67.7556 1524.11 -63.1756C1541.42 -57.9644 1558.67 -52.5331 1564.02 -42.096C1570.14 -32.0846 1565.77 -14.5572 1561.18 2.91134C1555.98 20.2184 1550.53 37.4522 1540.08 42.7809Z" fill="#E4ECF2"/>
<path d="M1780.82 -5.39874C1772.63 -21.3846 1746.21 -29.7079 1719.7 -37.6935C1692.93 -44.725 1666.04 -51.3894 1650.71 -42.0386C1634.71 -33.8621 1626.38 -7.46853 1618.39 19.0132C1611.35 45.7591 1604.68 72.6226 1614.04 87.9332C1622.22 103.919 1648.64 112.242 1675.15 120.228C1701.92 127.259 1728.81 133.924 1744.14 124.573C1760.14 116.397 1768.47 90.003 1776.47 63.5213C1783.51 36.7754 1790.19 9.9266 1780.82 -5.39874ZM1727.93 95.6693C1717.91 101.791 1700.37 97.4161 1682.88 92.8361C1665.57 87.6249 1648.32 82.1936 1642.97 71.7565C1636.84 61.7451 1641.22 44.2178 1645.81 26.7493C1651.02 9.45689 1656.46 -7.77664 1666.91 -13.12C1676.93 -19.2413 1694.47 -14.8669 1711.96 -10.2869C1729.27 -5.07573 1746.52 0.355644 1751.87 10.7927C1758 20.8041 1753.62 38.3314 1749.03 55.7999C1743.83 73.107 1738.4 90.3407 1727.93 95.6693Z" fill="#E4ECF2"/>
<path d="M1973.61 48.8866C1965.42 32.9007 1939 24.5775 1912.49 16.5919C1885.72 9.56045 1858.83 2.89587 1843.5 12.2467C1827.5 20.4231 1819.17 46.8168 1811.18 73.2985C1804.14 100.044 1797.47 126.908 1806.83 142.218C1815.01 158.204 1841.43 166.527 1867.94 174.513C1894.71 181.544 1921.6 188.209 1936.93 178.858C1952.93 170.682 1961.26 144.288 1969.26 117.806C1976.28 91.0605 1982.97 64.1973 1973.61 48.8866ZM1920.72 149.954C1910.7 156.076 1893.16 151.701 1875.67 147.121C1858.36 141.91 1841.11 136.479 1835.76 126.042C1829.63 116.03 1834.01 98.5029 1838.6 81.0344C1843.81 63.7421 1849.25 46.5085 1859.7 41.1652C1869.72 35.0439 1887.26 39.4183 1904.75 43.9983C1922.06 49.2095 1939.31 54.6408 1944.66 65.0779C1950.79 75.0892 1946.41 92.6165 1941.82 110.085C1936.62 127.377 1931.17 144.611 1920.72 149.954Z" fill="#E4ECF2"/>
<path d="M1720.54 35.8347L1711.64 33.3244L1714.15 24.4288C1715.3 20.392 1712.93 16.1937 1708.89 15.0488L1701.37 12.935C1697.33 11.7901 1693.12 14.1533 1691.98 18.1901L1689.46 27.0857L1680.56 24.5756C1676.52 23.4306 1672.32 25.7939 1671.17 29.8307L1669.05 37.332C1667.91 41.3688 1670.27 45.5669 1674.31 46.7119L1683.22 49.2221L1680.71 58.1177C1679.56 62.1545 1681.93 66.3528 1685.97 67.4977L1693.49 69.6116C1697.53 70.7566 1701.73 68.3932 1702.88 64.3564L1705.39 55.4608L1714.3 57.9709C1718.34 59.1159 1722.54 56.7526 1723.69 52.7158L1725.8 45.2C1726.94 41.1632 1724.58 36.965 1720.54 35.8347Z" fill="#E4ECF2"/>
<path d="M1536.82 -12.0791L1508.37 -41.2469C1503.51 -46.2232 1495.07 -44.08 1493.19 -37.3862L1482.14 1.80753C1480.24 8.50131 1486.33 14.7254 1493.07 13.0226L1532.57 2.99664C1539.33 1.27916 1541.68 -7.08809 1536.82 -12.0791Z" fill="#E4ECF2"/>
<path d="M1922.76 93.6598C1924.36 87.9788 1921.06 82.0922 1915.37 80.4921C1914.14 80.1398 1912.89 80.0371 1911.67 80.1251L1911.24 74.4002C1910.82 68.6312 1904.29 65.4896 1899.5 68.7485L1874.02 86.0998L1863.93 88.6687C1860.03 89.6523 1857.67 93.6451 1858.65 97.5205C1859.61 101.293 1863.4 103.627 1867.17 102.849L1868 113.771C1868.29 117.764 1871.82 120.787 1875.81 120.494C1879.81 120.2 1882.84 116.677 1882.54 112.684L1882 105.374L1903.01 115.488C1908.23 117.998 1914.21 113.918 1913.79 108.149L1913.27 101.381C1917.62 101.073 1921.5 98.093 1922.76 93.6598Z" fill="#E4ECF2"/>
<path d="M2020.26 258.45C2012.08 242.464 1985.66 234.141 1959.15 226.155C1932.38 219.124 1905.49 212.459 1890.16 221.81C1874.16 229.986 1865.83 256.38 1857.83 282.862C1850.79 309.608 1844.12 336.472 1853.48 351.782C1861.67 367.768 1888.09 376.092 1914.6 384.077C1941.37 391.109 1968.26 397.773 1983.59 388.422C1999.59 380.246 2007.92 353.852 2015.91 327.37C2022.95 300.624 2029.64 273.761 2020.26 258.45ZM1967.39 359.518C1957.37 365.64 1939.83 361.265 1922.34 356.685C1905.03 351.474 1887.78 346.043 1882.43 335.605C1876.3 325.594 1880.68 308.067 1885.27 290.598C1890.48 273.306 1895.92 256.072 1906.37 250.729C1916.39 244.607 1933.93 248.982 1951.42 253.562C1968.73 258.773 1985.98 264.204 1991.33 274.641C1997.46 284.653 1993.08 302.18 1988.49 319.649C1983.28 336.941 1977.84 354.175 1967.39 359.518Z" fill="#E4ECF2"/>
<path d="M1964.13 304.661L1935.68 275.494C1930.82 270.517 1922.38 272.66 1920.5 279.354L1909.45 318.548C1907.56 325.242 1913.64 331.466 1920.39 329.763L1959.88 319.737C1966.63 318.005 1968.99 309.638 1964.13 304.661Z" fill="#E4ECF2"/>
<path d="M669.277 -121.906C661.093 -137.892 634.672 -146.215 608.164 -154.201C581.391 -161.232 554.5 -167.897 539.174 -158.546C523.172 -150.37 514.84 -123.976 506.847 -97.4943C499.808 -70.7484 493.137 -43.885 502.497 -28.5743C510.682 -12.5884 537.102 -4.26518 563.611 3.72043C590.384 10.7519 617.274 17.4163 632.6 8.06549C648.603 -0.110962 656.934 -26.5045 664.928 -52.9863C671.952 -79.7322 678.638 -106.581 669.277 -121.906ZM616.393 -20.8382C606.371 -14.7169 588.826 -19.0915 571.34 -23.6714C554.03 -28.8827 536.779 -34.314 531.43 -44.7511C525.303 -54.7625 529.682 -72.2898 534.266 -89.7583C539.483 -107.051 544.92 -124.284 555.367 -129.628C565.389 -135.749 582.934 -131.375 600.42 -126.795C617.73 -121.583 634.981 -116.152 640.33 -105.715C646.457 -95.7035 642.078 -78.1762 637.494 -60.7076C632.292 -43.4006 626.84 -26.1816 616.393 -20.8382Z" fill="#E4ECF2"/>
<path d="M862.052 -67.6397C853.868 -83.6256 827.447 -91.9488 800.939 -99.9344C774.166 -106.966 747.275 -113.63 731.949 -104.279C715.947 -96.103 707.615 -69.7094 699.621 -43.2278C692.583 -16.4819 685.911 10.3813 695.272 25.692C703.456 41.6778 729.877 50.0011 756.385 57.9866C783.159 65.0181 810.049 71.6825 825.375 62.3317C841.377 54.1553 849.709 27.7617 857.703 1.28011C864.741 -25.4658 871.427 -52.3144 862.052 -67.6397ZM809.182 33.4427C799.161 39.564 781.616 35.1895 764.129 30.6095C746.819 25.3983 729.568 19.967 724.22 9.52993C718.092 -0.481422 722.471 -18.0087 727.056 -35.4772C732.272 -52.7695 737.709 -70.0031 748.157 -75.3464C758.178 -81.4677 775.723 -77.0932 793.209 -72.5133C810.519 -67.3021 827.77 -61.8707 833.119 -51.4337C839.247 -41.4223 834.868 -23.8951 830.283 -6.42657C825.067 10.8658 819.63 28.0994 809.182 33.4427Z" fill="#E4ECF2"/>
<path d="M1056.44 -12.8991C1048.26 -28.885 1021.84 -37.2083 995.329 -45.1939C968.556 -52.2253 941.666 -58.8897 926.339 -49.5389C910.337 -41.3625 902.006 -14.9689 894.012 11.5128C886.973 38.2587 880.302 65.1221 889.662 80.4328C897.847 96.4187 924.268 104.742 950.776 112.728C977.549 119.759 1004.44 126.423 1019.77 117.073C1035.77 108.896 1044.1 82.5026 1052.09 56.0209C1059.13 29.275 1065.82 2.41151 1056.44 -12.8991ZM1003.57 88.1689C993.551 94.2902 976.006 89.9156 958.52 85.3357C941.21 80.1245 923.959 74.6931 918.61 64.256C912.483 54.2447 916.862 36.7174 921.446 19.2489C926.663 1.95649 932.1 -15.2772 942.547 -20.6205C952.569 -26.7418 970.114 -22.3673 987.6 -17.7873C1004.91 -12.5761 1022.16 -7.14475 1027.51 3.29232C1033.64 13.3037 1029.26 30.831 1024.67 48.2995C1019.46 65.5919 1014.02 82.8256 1003.57 88.1689Z" fill="#E4ECF2"/>
<path d="M811.21 -22.8664C812.812 -28.5474 809.506 -34.4341 803.819 -36.0341C802.585 -36.3864 801.336 -36.4892 800.116 -36.4011L799.69 -42.126C799.264 -47.8951 792.74 -51.0366 787.949 -47.7778L762.469 -30.4264L752.374 -27.8575C748.48 -26.874 746.115 -22.8811 747.099 -19.0057C748.054 -15.2331 751.845 -12.899 755.622 -13.677L756.445 -2.75553C756.739 1.2373 760.265 4.26123 764.262 3.96764C768.259 3.67405 771.286 0.151031 770.992 -3.8418L770.448 -11.1522L791.461 -1.03796C796.678 1.47224 802.658 -2.60867 802.232 -8.37774L801.718 -15.145C806.082 -15.4533 809.961 -18.4185 811.21 -22.8664Z" fill="#E4ECF2"/>
<path d="M979.195 13.347C965.03 9.35422 951.1 14.8737 948.058 25.6484C946.971 29.5091 947.426 33.5166 949.116 37.2598C948.337 37.7736 947.676 38.4928 947.221 39.3883L943.914 45.8179C941.402 50.7061 946.545 55.9761 951.497 53.5834L958.006 50.4419C958.814 50.0603 959.461 49.5025 959.975 48.8713C962.444 50.3393 965.192 51.543 968.189 52.3797C982.354 56.3725 996.284 50.8531 999.326 40.0784C1002.37 29.3037 993.36 17.3398 979.195 13.347Z" fill="#E4ECF2"/>
<path d="M1250.83 41.8288C1242.65 25.843 1216.23 17.5197 1189.72 9.53414C1162.95 2.50271 1136.06 -4.16169 1120.73 5.1891C1104.73 13.3655 1096.4 39.7591 1088.4 66.2407C1081.36 92.9866 1074.69 119.85 1084.05 135.16C1092.24 151.146 1118.66 159.47 1145.17 167.455C1171.94 174.487 1198.83 181.151 1214.16 171.8C1230.16 163.624 1238.49 137.23 1246.49 110.749C1253.52 84.0029 1260.21 57.1542 1250.83 41.8288ZM1197.96 142.897C1187.94 149.018 1170.4 144.644 1152.91 140.064C1135.6 134.852 1118.35 129.421 1113 118.984C1106.87 108.973 1111.25 91.4453 1115.84 73.9768C1121.05 56.6844 1126.49 39.4508 1136.94 34.1075C1146.96 27.9861 1164.51 32.3607 1181.99 36.9407C1199.3 42.1519 1216.55 47.5832 1221.9 58.0203C1228.03 68.0316 1223.65 85.5589 1219.07 103.027C1213.85 120.32 1208.41 137.553 1197.96 142.897Z" fill="#E4ECF2"/>
<path d="M1438.7 94.7145C1430.52 78.7286 1404.1 70.4054 1377.59 62.4198C1350.82 55.3883 1323.93 48.7239 1308.6 58.0747C1292.6 66.2511 1284.27 92.6447 1276.27 119.126C1269.23 145.872 1262.56 172.735 1271.92 188.046C1280.11 204.032 1306.53 212.355 1333.04 220.341C1359.81 227.372 1386.7 234.037 1402.03 224.686C1418.03 216.51 1426.36 190.116 1434.35 163.634C1441.38 136.888 1448.06 110.04 1438.7 94.7145ZM1385.82 195.782C1375.8 201.903 1358.25 197.529 1340.77 192.949C1323.46 187.738 1306.2 182.306 1300.86 171.869C1294.73 161.858 1299.11 144.331 1303.69 126.862C1308.91 109.57 1314.34 92.3364 1324.79 86.9931C1334.81 80.8718 1352.36 85.2463 1369.85 89.8263C1387.16 95.0375 1404.41 100.469 1409.76 110.906C1415.88 120.917 1411.5 138.444 1406.92 155.913C1401.72 173.205 1396.27 190.439 1385.82 195.782Z" fill="#E4ECF2"/>
<path d="M1631.48 148.987C1623.29 133.002 1596.87 124.678 1570.36 116.693C1543.59 109.661 1516.7 102.997 1501.37 112.348C1485.37 120.524 1477.04 146.918 1469.05 173.399C1462.01 200.145 1455.34 227.008 1464.7 242.319C1472.88 258.305 1499.3 266.628 1525.81 274.614C1552.58 281.645 1579.47 288.31 1594.8 278.959C1610.8 270.783 1619.13 244.389 1627.13 217.907C1634.17 191.161 1640.85 164.313 1631.48 148.987ZM1578.61 250.055C1568.59 256.176 1551.04 251.802 1533.55 247.222C1516.24 242.011 1498.99 236.58 1493.64 226.142C1487.52 216.131 1491.9 198.604 1496.48 181.135C1501.7 163.843 1507.13 146.609 1517.58 141.266C1527.6 135.145 1545.15 139.519 1562.63 144.099C1579.94 149.31 1597.2 154.742 1602.54 165.179C1608.67 175.19 1604.29 192.717 1599.71 210.186C1594.49 227.493 1589.05 244.727 1578.61 250.055Z" fill="#E4ECF2"/>
<path d="M1825.87 203.709C1817.69 187.723 1791.26 179.4 1764.76 171.415C1737.98 164.383 1711.09 157.719 1695.77 167.069C1679.76 175.246 1671.43 201.64 1663.44 228.121C1656.4 254.867 1649.73 281.731 1659.09 297.042C1667.27 313.028 1693.69 321.351 1720.2 329.336C1746.98 336.368 1773.87 343.033 1789.19 333.682C1805.19 325.505 1813.53 299.111 1821.52 272.63C1828.56 245.884 1835.24 219.035 1825.87 203.709ZM1773 304.792C1762.98 310.914 1745.43 306.539 1727.95 301.959C1710.64 296.748 1693.39 291.317 1688.04 280.879C1681.91 270.868 1686.29 253.341 1690.87 235.872C1696.09 218.58 1701.53 201.346 1711.97 196.003C1722 189.881 1739.54 194.256 1757.03 198.836C1774.34 204.047 1791.59 209.479 1796.94 219.916C1803.06 229.927 1798.69 247.454 1794.1 264.923C1788.88 282.215 1783.45 299.449 1773 304.792Z" fill="#E4ECF2"/>
<path d="M1378.41 135.936L1369.51 133.426L1372.02 124.53C1373.17 120.493 1370.8 116.295 1366.76 115.15L1359.24 113.036C1355.2 111.891 1350.99 114.254 1349.85 118.291L1347.33 127.187L1338.43 124.677C1334.39 123.532 1330.19 125.895 1329.04 129.932L1326.92 137.448C1325.78 141.485 1328.14 145.683 1332.18 146.828L1341.09 149.338L1338.58 158.234C1337.43 162.271 1339.8 166.469 1343.84 167.614L1351.36 169.728C1355.4 170.873 1359.6 168.51 1360.75 164.473L1363.26 155.577L1372.17 158.087C1376.21 159.232 1380.41 156.869 1381.56 152.832L1383.67 145.316C1384.82 141.279 1382.47 137.081 1378.41 135.936Z" fill="#E4ECF2"/>
<path d="M1194.7 88.0379L1166.26 58.8696C1161.39 53.8932 1152.96 56.0364 1151.08 62.7303L1140.03 101.925C1138.13 108.619 1144.21 114.843 1150.96 113.14L1190.46 103.114C1197.2 101.396 1199.57 93.0143 1194.7 88.0379Z" fill="#E4ECF2"/>
<path d="M1580.64 193.758C1582.24 188.077 1578.93 182.19 1573.25 180.59C1572.01 180.238 1570.76 180.135 1569.54 180.223L1569.12 174.498C1568.69 168.729 1562.17 165.587 1557.38 168.846L1531.9 186.198L1521.8 188.766C1517.91 189.75 1515.54 193.743 1516.53 197.618C1517.48 201.391 1521.27 203.725 1525.05 202.947L1525.87 213.869C1526.17 217.862 1529.69 220.886 1533.69 220.592C1537.69 220.298 1540.71 216.775 1540.42 212.782L1539.88 205.472L1560.89 215.586C1566.1 218.096 1572.09 214.015 1571.66 208.246L1571.14 201.479C1575.51 201.171 1579.39 198.205 1580.64 193.758Z" fill="#E4ECF2"/>
<path d="M1748.62 229.974C1734.46 225.981 1720.53 231.501 1717.49 242.275C1716.4 246.136 1716.85 250.144 1718.54 253.887C1717.77 254.401 1717.1 255.12 1716.65 256.015L1713.34 262.445C1710.83 267.333 1715.97 272.603 1720.92 270.21L1727.43 267.069C1728.24 266.687 1728.89 266.129 1729.4 265.498C1731.87 266.966 1734.62 268.17 1737.62 269.007C1751.78 272.999 1765.71 267.48 1768.75 256.705C1771.8 245.931 1762.79 233.967 1748.62 229.974Z" fill="#E4ECF2"/>
<path d="M142.561 -73.7715C134.377 -89.7574 107.956 -98.0806 81.4476 -106.066C54.6744 -113.098 27.7838 -119.762 12.4576 -110.411C-3.54458 -102.235 -11.8763 -75.8413 -19.87 -49.3596C-26.9086 -22.6137 -33.5799 4.2495 -24.2196 19.5601C-16.0348 35.546 10.3857 43.8692 36.8943 51.8548C63.6674 58.8863 90.5581 65.5508 105.884 56.2001C121.886 48.0236 130.218 21.6301 138.212 -4.85155C145.25 -31.5974 151.936 -58.4462 142.561 -73.7715ZM89.6764 27.2962C79.6549 33.4175 62.1098 29.0432 44.6235 24.4632C27.3135 19.252 10.0624 13.8206 4.71362 3.38358C-1.41393 -6.62778 2.96503 -24.1551 7.54967 -41.6236C12.7662 -58.9159 18.203 -76.1496 28.6507 -81.4929C38.6723 -87.6142 56.2174 -83.2396 73.7036 -78.6597C91.0136 -73.4485 108.265 -68.0171 113.614 -57.5801C119.741 -47.5687 115.362 -30.0414 110.778 -12.5729C105.576 4.73409 100.139 21.9676 89.6764 27.2962Z" fill="#E4ECF2"/>
<path d="M330.412 -20.8857C322.227 -36.8716 295.807 -45.1948 269.298 -53.1804C242.525 -60.2119 215.634 -66.8763 200.308 -57.5255C184.306 -49.3491 175.974 -22.9555 167.981 3.52615C160.942 30.2721 154.271 57.1353 163.631 72.446C171.816 88.4319 198.236 96.7551 224.745 104.741C251.518 111.772 278.409 118.437 293.735 109.086C309.737 100.909 318.069 74.5157 326.062 48.0341C333.101 21.2882 339.787 -5.56041 330.412 -20.8857ZM277.542 80.1821C267.52 86.3034 249.975 81.929 232.489 77.349C215.179 72.1378 197.928 66.7063 192.579 56.2692C186.451 46.2579 190.83 28.7308 195.415 11.2622C200.631 -6.03012 206.068 -23.2638 216.516 -28.6071C226.538 -34.7284 244.083 -30.3539 261.569 -25.7739C278.879 -20.5627 296.13 -15.1314 301.479 -4.69428C307.606 5.31709 303.227 22.8442 298.643 40.3127C293.426 57.6197 287.989 74.8534 277.542 80.1821Z" fill="#E4ECF2"/>
<path d="M523.203 33.3995C515.018 17.4136 488.598 9.09042 462.089 1.10482C435.316 -5.92661 408.425 -12.591 393.099 -3.24023C377.097 4.93621 368.765 31.3297 360.772 57.8114C353.733 84.5573 347.062 111.421 356.422 126.731C364.607 142.717 391.027 151.04 417.536 159.026C444.309 166.057 471.2 172.722 486.526 163.371C502.528 155.195 510.86 128.801 518.853 102.319C525.892 75.5734 532.578 48.7102 523.203 33.3995ZM470.333 134.467C460.311 140.589 442.766 136.214 425.28 131.634C407.97 126.423 390.719 120.992 385.37 110.555C379.242 100.543 383.621 83.016 388.206 65.5475C393.422 48.2551 398.859 31.0214 409.307 25.6781C419.329 19.5568 436.874 23.9314 454.36 28.5113C471.67 33.7225 488.921 39.1539 494.27 49.591C500.397 59.6023 496.018 77.1296 491.434 94.5981C486.217 111.89 480.78 129.124 470.333 134.467Z" fill="#E4ECF2"/>
<path d="M717.593 88.1246C709.408 72.1388 682.988 63.8155 656.479 55.8299C629.706 48.7985 602.815 42.1339 587.489 51.4847C571.487 59.6611 563.155 86.0548 555.161 112.536C548.123 139.282 541.451 166.146 550.812 181.456C558.996 197.442 585.417 205.765 611.926 213.751C638.699 220.782 665.59 227.447 680.916 218.096C696.918 209.92 705.25 183.526 713.243 157.044C720.282 130.299 726.968 103.45 717.593 88.1246ZM664.723 189.192C654.701 195.314 637.156 190.939 619.67 186.359C602.36 181.148 585.108 175.717 579.76 165.28C573.632 155.268 578.011 137.741 582.596 120.273C587.812 102.98 593.249 85.7466 603.697 80.4032C613.718 74.2819 631.264 78.6563 648.75 83.2363C666.06 88.4475 683.311 93.879 688.66 104.316C694.787 114.327 690.408 131.854 685.824 149.323C680.607 166.615 675.17 183.849 664.723 189.192Z" fill="#E4ECF2"/>
<path d="M270.138 20.3544L261.233 17.8442L263.746 8.94834C264.892 4.91147 262.526 0.713098 258.485 -0.431906L250.961 -2.54567C246.92 -3.69068 242.718 -1.32734 241.572 2.70954L239.059 11.6054L230.154 9.09528C226.113 7.95027 221.911 10.3136 220.764 14.3505L218.648 21.8664C217.502 25.9033 219.868 30.1016 223.909 31.2466L232.814 33.7568L230.301 42.6527C229.155 46.6895 231.521 50.8879 235.562 52.0329L243.085 54.1467C247.126 55.2917 251.329 52.9284 252.475 48.8915L254.988 39.9956L263.893 42.5057C267.933 43.6507 272.136 41.2874 273.282 37.2505L275.398 29.7346C276.544 25.6831 274.193 21.4847 270.138 20.3544Z" fill="#E4ECF2"/>
<path d="M472.358 78.1723C473.96 72.4914 470.653 66.6051 464.967 65.005C463.732 64.6527 462.483 64.55 461.264 64.638L460.838 58.9131C460.411 53.1441 453.887 50.0027 449.097 53.2616L423.617 70.6124L413.522 73.1813C409.628 74.1648 407.262 78.1577 408.247 82.033C409.202 85.8056 412.993 88.1396 416.769 87.3616L417.592 98.2829C417.886 102.276 421.413 105.3 425.41 105.006C429.406 104.713 432.433 101.189 432.14 97.1967L431.596 89.8864L452.609 100C457.825 102.511 463.806 98.4298 463.38 92.6608L462.865 85.8937C467.215 85.5854 471.109 82.6055 472.358 78.1723Z" fill="#E4ECF2"/>
<path d="M640.346 114.386C626.181 110.394 612.25 115.913 609.209 126.688C608.121 130.548 608.577 134.556 610.267 138.299C609.488 138.813 608.827 139.532 608.371 140.428L605.065 146.857C602.552 151.746 607.695 157.015 612.647 154.623L619.157 151.481C619.965 151.1 620.611 150.542 621.126 149.911C623.594 151.379 626.342 152.582 629.34 153.419C643.505 157.412 657.436 151.892 660.477 141.118C663.519 130.343 654.497 118.364 640.346 114.386Z" fill="#E4ECF2"/>
<path d="M911.984 142.85C903.799 126.864 877.379 118.54 850.87 110.555C824.097 103.523 797.207 96.8588 781.88 106.21C765.878 114.386 757.547 140.78 749.553 167.261C742.514 194.007 735.843 220.871 745.203 236.181C753.388 252.167 779.809 260.49 806.317 268.476C833.09 275.507 859.981 282.172 875.307 272.821C891.309 264.645 899.641 238.251 907.635 211.769C914.673 185.023 921.359 158.175 911.984 142.85ZM859.099 243.917C849.078 250.039 831.533 245.664 814.046 241.084C796.736 235.873 779.485 230.442 774.136 220.004C768.009 209.993 772.388 192.466 776.972 174.997C782.189 157.705 787.626 140.471 798.074 135.128C808.095 129.007 825.64 133.381 843.126 137.961C860.436 143.172 877.688 148.604 883.036 159.041C889.164 169.052 884.785 186.579 880.2 204.048C874.998 221.355 869.562 238.589 859.099 243.917Z" fill="#E4ECF2"/>
<path d="M1099.84 195.741C1091.65 179.755 1065.23 171.432 1038.73 163.447C1011.95 156.415 985.062 149.751 969.736 159.102C953.734 167.278 945.402 193.672 937.408 220.153C930.37 246.899 923.698 273.763 933.059 289.073C941.244 305.059 967.664 313.382 994.173 321.368C1020.95 328.399 1047.84 335.064 1063.16 325.713C1079.16 317.537 1087.5 291.143 1095.49 264.661C1102.53 237.915 1109.21 211.067 1099.84 195.741ZM1046.97 296.809C1036.95 302.931 1019.4 298.556 1001.92 293.976C984.607 288.765 967.355 283.334 962.007 272.897C955.879 262.885 960.258 245.358 964.843 227.889C970.059 210.597 975.496 193.363 985.944 188.02C995.965 181.899 1013.51 186.273 1031 190.853C1048.31 196.064 1065.56 201.496 1070.91 211.933C1077.03 221.944 1072.66 239.471 1068.07 256.94C1062.85 274.247 1057.42 291.466 1046.97 296.809Z" fill="#E4ECF2"/>
<path d="M1292.63 250.008C1284.44 234.022 1258.02 225.699 1231.51 217.713C1204.74 210.682 1177.85 204.017 1162.52 213.368C1146.52 221.545 1138.19 247.938 1130.19 274.42C1123.16 301.166 1116.48 328.029 1125.84 343.34C1134.03 359.326 1160.45 367.649 1186.96 375.634C1213.73 382.666 1240.62 389.33 1255.95 379.98C1271.95 371.803 1280.28 345.41 1288.28 318.928C1295.31 292.182 1302 265.333 1292.63 250.008ZM1239.76 351.091C1229.73 357.212 1212.19 352.837 1194.7 348.257C1177.39 343.046 1160.14 337.615 1154.79 327.178C1148.67 317.166 1153.04 299.639 1157.63 282.171C1162.85 264.878 1168.28 247.645 1178.73 242.301C1188.75 236.18 1206.3 240.554 1223.78 245.134C1241.09 250.346 1258.34 255.777 1263.69 266.214C1269.82 276.225 1265.44 293.753 1260.86 311.221C1255.64 328.514 1250.2 345.747 1239.76 351.091Z" fill="#E4ECF2"/>
<path d="M1487.02 304.752C1478.83 288.766 1452.41 280.443 1425.9 272.457C1399.13 265.425 1372.24 258.761 1356.91 268.112C1340.91 276.288 1332.58 302.682 1324.59 329.164C1317.55 355.91 1310.88 382.773 1320.24 398.084C1328.42 414.07 1354.84 422.393 1381.35 430.379C1408.12 437.41 1435.01 444.074 1450.34 434.724C1466.34 426.547 1474.67 400.154 1482.67 373.672C1489.71 346.926 1496.39 320.077 1487.02 304.752ZM1434.13 405.82C1424.11 411.941 1406.57 407.567 1389.08 402.987C1371.77 397.775 1354.52 392.344 1349.17 381.907C1343.04 371.896 1347.42 354.368 1352.01 336.9C1357.22 319.607 1362.66 302.374 1373.11 297.03C1383.13 290.909 1400.67 295.284 1418.16 299.863C1435.47 305.075 1452.72 310.506 1458.07 320.943C1464.2 330.955 1459.82 348.482 1455.23 365.95C1450.03 383.243 1444.6 400.476 1434.13 405.82Z" fill="#E4ECF2"/>
<path d="M1039.56 236.975L1030.66 234.465L1033.17 225.569C1034.31 221.532 1031.95 217.334 1027.91 216.189L1020.38 214.075C1016.34 212.93 1012.14 215.294 1010.99 219.331L1008.48 228.226L999.577 225.716C995.536 224.571 991.334 226.934 990.187 230.971L988.071 238.487C986.925 242.524 989.291 246.722 993.332 247.867L1002.24 250.378L999.724 259.273C998.578 263.31 1000.94 267.509 1004.98 268.654L1012.51 270.767C1016.55 271.912 1020.75 269.549 1021.9 265.512L1024.41 256.617L1033.32 259.127C1037.36 260.272 1041.56 257.908 1042.71 253.871L1044.82 246.355C1045.97 242.304 1043.62 238.106 1039.56 236.975Z" fill="#E4ECF2"/>
<path d="M855.853 189.061L827.405 159.893C822.541 154.917 814.106 157.06 812.226 163.754L801.175 202.948C799.28 209.641 805.363 215.866 812.108 214.163L851.606 204.137C858.351 202.419 860.717 194.052 855.853 189.061Z" fill="#E4ECF2"/>
<path d="M1241.78 294.781C1243.39 289.1 1240.08 283.214 1234.39 281.613C1233.16 281.261 1231.91 281.158 1230.69 281.246L1230.26 275.522C1229.84 269.753 1223.31 266.611 1218.52 269.87L1193.04 287.221L1182.95 289.79C1179.05 290.774 1176.69 294.766 1177.67 298.642C1178.63 302.415 1182.42 304.748 1186.2 303.97L1187.02 314.892C1187.31 318.885 1190.84 321.909 1194.84 321.615C1198.83 321.322 1201.86 317.799 1201.57 313.806L1201.02 306.495L1222.03 316.61C1227.25 319.12 1233.23 315.039 1232.81 309.27L1232.29 302.502C1236.64 302.194 1240.53 299.229 1241.78 294.781Z" fill="#E4ECF2"/>
<path d="M1409.77 330.995C1395.6 327.002 1381.67 332.521 1378.63 343.296C1377.54 347.157 1378 351.164 1379.69 354.907C1378.91 355.421 1378.25 356.14 1377.79 357.036L1374.49 363.465C1371.97 368.354 1377.12 373.624 1382.07 371.231L1388.58 368.089C1389.39 367.708 1390.03 367.15 1390.55 366.519C1393.02 367.987 1395.76 369.19 1398.76 370.027C1412.93 374.02 1426.86 368.501 1429.9 357.726C1432.94 346.951 1423.92 334.987 1409.77 330.995Z" fill="#E4ECF2"/>
<path d="M1681.41 359.477C1673.23 343.491 1646.8 335.167 1620.3 327.182C1593.52 320.15 1566.63 313.486 1551.31 322.837C1535.3 331.013 1526.97 357.407 1518.98 383.889C1511.94 410.635 1505.27 437.498 1514.63 452.809C1522.81 468.795 1549.23 477.118 1575.74 485.104C1602.52 492.135 1629.41 498.8 1644.73 489.449C1660.73 481.273 1669.07 454.879 1677.06 428.397C1684.1 401.651 1690.78 374.802 1681.41 359.477ZM1628.52 460.545C1618.5 466.666 1600.96 462.292 1583.47 457.712C1566.16 452.501 1548.91 447.069 1543.56 436.632C1537.43 426.621 1541.81 409.093 1546.4 391.625C1551.61 374.332 1557.05 357.099 1567.5 351.755C1577.52 345.634 1595.07 350.008 1612.55 354.588C1629.86 359.8 1647.11 365.231 1652.46 375.668C1658.59 385.68 1654.21 403.207 1649.63 420.675C1644.42 437.983 1638.99 455.202 1628.52 460.545Z" fill="#E4ECF2"/>
<path d="M1869.26 412.369C1861.08 396.383 1834.66 388.059 1808.15 380.074C1781.38 373.042 1754.49 366.378 1739.16 375.729C1723.16 383.905 1714.83 410.299 1706.83 436.78C1699.79 463.526 1693.12 490.39 1702.48 505.7C1710.67 521.686 1737.09 530.009 1763.6 537.995C1790.37 545.026 1817.26 551.691 1832.59 542.34C1848.59 534.164 1856.92 507.77 1864.91 481.288C1871.95 454.542 1878.64 427.694 1869.26 412.369ZM1816.39 513.436C1806.37 519.558 1788.83 515.183 1771.34 510.603C1754.03 505.392 1736.78 499.961 1731.43 489.523C1725.3 479.512 1729.68 461.985 1734.27 444.517C1739.48 427.224 1744.92 409.99 1755.37 404.647C1765.39 398.526 1782.93 402.9 1800.42 407.48C1817.73 412.691 1834.98 418.123 1840.33 428.56C1846.46 438.571 1842.08 456.098 1837.49 473.567C1832.28 490.859 1826.84 508.093 1816.39 513.436Z" fill="#E4ECF2"/>
<path d="M2062.05 466.638C2053.87 450.652 2027.45 442.329 2000.94 434.343C1974.16 427.312 1947.27 420.648 1931.95 429.998C1915.95 438.175 1907.61 464.568 1899.62 491.05C1892.58 517.796 1885.91 544.659 1895.27 559.97C1903.46 575.956 1929.88 584.279 1956.38 592.265C1983.16 599.296 2010.05 605.961 2025.37 596.61C2041.38 588.433 2049.71 562.04 2057.7 535.558C2064.74 508.812 2071.43 481.964 2062.05 466.638ZM2009.17 567.721C1999.15 573.842 1981.6 569.468 1964.11 564.888C1946.8 559.676 1929.55 554.245 1924.2 543.808C1918.08 533.796 1922.46 516.269 1927.04 498.801C1932.26 481.509 1937.69 464.275 1948.14 458.932C1958.16 452.81 1975.71 457.185 1993.19 461.765C2010.5 466.976 2027.75 472.407 2033.1 482.844C2039.23 492.856 2034.85 510.383 2030.27 527.851C2025.07 545.144 2019.63 562.377 2009.17 567.721Z" fill="#E4ECF2"/>
<path d="M1808.99 453.583L1800.08 451.073L1802.59 442.177C1803.74 438.14 1801.37 433.942 1797.33 432.797L1789.81 430.683C1785.77 429.538 1781.57 431.902 1780.42 435.939L1777.91 444.834L1769 442.324C1764.96 441.179 1760.76 443.543 1759.61 447.579L1757.5 455.095C1756.35 459.132 1758.72 463.33 1762.76 464.475L1771.66 466.985L1769.15 475.881C1768 479.918 1770.37 484.116 1774.41 485.261L1781.93 487.375C1785.97 488.52 1790.18 486.157 1791.32 482.12L1793.84 473.224L1802.74 475.734C1806.78 476.879 1810.98 474.516 1812.13 470.479L1814.25 462.963C1815.39 458.926 1813.04 454.728 1808.99 453.583Z" fill="#E4ECF2"/>
<path d="M1625.28 405.685L1596.83 376.517C1591.96 371.541 1583.53 373.684 1581.65 380.378L1570.6 419.572C1568.7 426.265 1574.79 432.489 1581.53 430.787L1621.03 420.761C1627.78 419.043 1630.14 410.676 1625.28 405.685Z" fill="#E4ECF2"/>
<path d="M37.4374 286.356C29.2526 270.37 2.83218 262.047 -23.6764 254.061C-50.4496 247.03 -77.3403 240.366 -92.6665 249.716C-108.669 257.893 -117 284.286 -124.994 310.768C-132.033 337.514 -138.704 364.377 -129.344 379.688C-121.159 395.674 -94.7384 403.997 -68.2298 411.983C-41.4566 419.014 -14.566 425.679 0.760239 416.328C16.7624 408.151 25.0941 381.758 33.0878 355.276C40.1264 328.53 46.8124 301.681 37.4374 286.356ZM-15.4329 387.424C-25.4545 393.545 -42.9996 389.171 -60.4858 384.591C-77.7958 379.38 -95.047 373.948 -100.396 363.511C-106.523 353.5 -102.144 335.973 -97.5597 318.504C-92.3432 301.212 -86.9063 283.978 -76.4586 278.635C-66.437 272.514 -48.892 276.888 -31.4057 281.468C-14.0957 286.679 3.15544 292.11 8.5042 302.548C14.6317 312.559 10.2528 330.086 5.66818 347.555C0.451691 364.862 -4.98524 382.081 -15.4329 387.424Z" fill="#E4ECF2"/>
<path d="M230.225 340.626C222.04 324.64 195.62 316.317 169.111 308.331C142.338 301.3 115.448 294.635 100.122 303.986C84.1194 312.162 75.7878 338.556 67.794 365.038C60.7555 391.784 54.0842 418.647 63.4445 433.958C71.6292 449.944 98.0496 458.267 124.558 466.252C151.331 473.284 178.222 479.948 193.548 470.597C209.55 462.421 217.882 436.027 225.876 409.546C232.914 382.8 239.6 355.951 230.225 340.626ZM177.34 441.708C167.319 447.83 149.774 443.455 132.287 438.875C114.978 433.664 97.7264 428.233 92.3776 417.796C86.2501 407.784 90.629 390.257 95.2136 372.788C100.43 355.496 105.867 338.263 116.315 332.919C126.336 326.798 143.881 331.172 161.368 335.752C178.677 340.964 195.929 346.395 201.277 356.832C207.405 366.843 203.026 384.371 198.441 401.839C193.24 419.131 187.788 436.365 177.34 441.708Z" fill="#E4ECF2"/>
<path d="M424.616 395.366C416.431 379.38 390.011 371.057 363.502 363.072C336.729 356.04 309.838 349.376 294.512 358.727C278.51 366.903 270.178 393.297 262.185 419.778C255.146 446.524 248.475 473.388 257.835 488.698C266.02 504.684 292.44 513.008 318.949 520.993C345.722 528.025 372.613 534.689 387.939 525.338C403.941 517.162 412.273 490.768 420.266 464.286C427.305 437.541 433.991 410.677 424.616 395.366ZM371.731 496.434C361.709 502.556 344.164 498.181 326.678 493.601C309.368 488.39 292.117 482.959 286.768 472.522C280.641 462.51 285.02 444.983 289.604 427.514C294.821 410.222 300.258 392.988 310.705 387.645C320.727 381.524 338.272 385.898 355.758 390.478C373.068 395.689 390.319 401.121 395.668 411.558C401.796 421.569 397.417 439.097 392.832 456.565C387.63 473.857 382.179 491.091 371.731 496.434Z" fill="#E4ECF2"/>
<path d="M179.383 385.399C180.985 379.718 177.679 373.832 171.992 372.231C170.758 371.879 169.509 371.776 168.289 371.865L167.863 366.14C167.437 360.371 160.913 357.229 156.122 360.488L130.642 377.839L120.547 380.408C116.653 381.392 114.287 385.385 115.272 389.26C116.227 393.033 120.018 395.367 123.795 394.589L124.618 405.51C124.911 409.503 128.438 412.527 132.435 412.233C136.432 411.94 139.459 408.417 139.165 404.424L138.621 397.113L159.634 407.228C164.851 409.738 170.831 405.657 170.405 399.888L169.891 393.121C174.24 392.812 178.134 389.847 179.383 385.399Z" fill="#E4ECF2"/>
<path d="M347.37 421.613C333.205 417.62 319.275 423.139 316.233 433.914C315.146 437.775 315.601 441.782 317.291 445.525C316.512 446.039 315.851 446.758 315.395 447.654L312.089 454.083C309.576 458.972 314.72 464.242 319.672 461.849L326.181 458.707C326.989 458.326 327.636 457.768 328.15 457.137C330.619 458.605 333.367 459.809 336.364 460.645C350.53 464.638 364.46 459.119 367.502 448.344C370.529 437.569 361.521 425.605 347.37 421.613Z" fill="#E4ECF2"/>
<path d="M619.01 450.091C610.825 434.105 584.405 425.782 557.896 417.797C531.123 410.765 504.233 404.101 488.907 413.452C472.905 421.628 464.573 448.022 456.579 474.503C449.541 501.249 442.869 528.113 452.23 543.423C460.414 559.409 486.835 567.733 513.343 575.718C540.116 582.75 567.007 589.414 582.333 580.063C598.335 571.887 606.667 545.493 614.661 519.012C621.699 492.266 628.385 465.417 619.01 450.091ZM566.125 551.159C556.104 557.281 538.559 552.906 521.073 548.326C503.763 543.115 486.511 537.684 481.163 527.247C475.035 517.235 479.414 499.708 483.999 482.239C489.215 464.947 494.652 447.713 505.1 442.37C515.121 436.249 532.666 440.623 550.153 445.203C567.462 450.414 584.714 455.846 590.062 466.283C596.19 476.294 591.811 493.822 587.226 511.29C582.024 528.583 576.573 545.816 566.125 551.159Z" fill="#E4ECF2"/>
<path d="M806.861 502.983C798.676 486.997 772.255 478.674 745.747 470.688C718.974 463.657 692.083 456.993 676.757 466.343C660.755 474.52 652.423 500.913 644.43 527.395C637.391 554.141 630.72 581.004 640.08 596.315C648.265 612.301 674.685 620.624 701.194 628.609C727.967 635.641 754.857 642.305 770.184 632.955C786.186 624.778 794.517 598.385 802.511 571.903C809.55 545.157 816.236 518.308 806.861 502.983ZM753.991 604.051C743.969 610.172 726.424 605.798 708.938 601.218C691.628 596.007 674.377 590.575 669.028 580.138C662.9 570.127 667.279 552.6 671.864 535.131C677.08 517.839 682.517 500.605 692.965 495.262C702.987 489.14 720.532 493.515 738.018 498.095C755.328 503.306 772.579 508.738 777.928 519.175C784.055 529.186 779.676 546.713 775.092 564.182C769.875 581.474 764.438 598.708 753.991 604.051Z" fill="#E4ECF2"/>
<path d="M999.652 557.253C991.467 541.267 965.047 532.944 938.538 524.958C911.765 517.927 884.874 511.262 869.548 520.613C853.546 528.79 845.214 555.183 837.221 581.665C830.182 608.411 823.511 635.275 832.871 650.586C841.056 666.572 867.476 674.895 893.985 682.881C920.758 689.912 947.649 696.576 962.975 687.226C978.977 679.049 987.309 652.655 995.302 626.174C1002.34 599.428 1009.03 572.579 999.652 557.253ZM946.767 658.322C936.745 664.443 919.2 660.069 901.714 655.489C884.404 650.277 867.153 644.846 861.804 634.409C855.677 624.397 860.056 606.87 864.64 589.401C869.857 572.109 875.294 554.875 885.741 549.532C895.763 543.41 913.308 547.785 930.794 552.365C948.104 557.576 965.355 563.008 970.704 573.445C976.832 583.456 972.453 600.984 967.868 618.452C962.666 635.759 957.215 652.993 946.767 658.322Z" fill="#E4ECF2"/>
<path d="M1194.04 611.975C1185.86 595.989 1159.44 587.666 1132.93 579.68C1106.16 572.649 1079.26 565.984 1063.94 575.335C1047.94 583.512 1039.61 609.905 1031.61 636.387C1024.57 663.133 1017.9 689.997 1027.26 705.307C1035.45 721.293 1061.87 729.616 1088.38 737.602C1115.15 744.634 1142.04 751.298 1157.37 741.947C1173.37 733.771 1181.7 707.377 1189.69 680.895C1196.73 654.149 1203.42 627.3 1194.04 611.975ZM1141.16 713.058C1131.14 719.179 1113.59 714.805 1096.1 710.225C1078.79 705.014 1061.54 699.582 1056.2 689.145C1050.07 679.134 1054.45 661.606 1059.03 644.138C1064.25 626.845 1069.68 609.612 1080.13 604.268C1090.15 598.147 1107.7 602.521 1125.18 607.101C1142.49 612.313 1159.75 617.744 1165.09 628.181C1171.22 638.193 1166.84 655.72 1162.26 673.188C1157.06 690.481 1151.6 707.715 1141.16 713.058Z" fill="#E4ECF2"/>
<path d="M746.584 544.201L737.679 541.691L740.192 532.795C741.338 528.758 738.972 524.56 734.931 523.415L727.408 521.301C723.367 520.157 719.164 522.52 718.018 526.557L715.505 535.452L706.6 532.942C702.56 531.797 698.357 534.161 697.211 538.197L695.095 545.698C693.949 549.735 696.314 553.933 700.355 555.078L709.26 557.589L706.747 566.484C705.601 570.521 707.967 574.719 712.008 575.864L719.532 577.978C723.572 579.123 727.775 576.76 728.921 572.723L731.434 563.827L740.339 566.337C744.38 567.482 748.582 565.119 749.728 561.082L751.844 553.581C752.991 549.544 750.625 545.346 746.584 544.201Z" fill="#E4ECF2"/>
<path d="M562.875 496.303L534.427 467.135C529.563 462.159 521.129 464.302 519.248 470.996L508.198 510.19C506.302 516.884 512.386 523.108 519.13 521.406L558.629 511.379C565.374 509.662 567.725 501.28 562.875 496.303Z" fill="#E4ECF2"/>
<path d="M948.81 602.023C950.412 596.342 947.106 590.456 941.419 588.856C940.185 588.503 938.935 588.4 937.716 588.489L937.29 582.764C936.864 576.994 930.339 573.853 925.549 577.112L900.069 594.463L889.974 597.032C886.08 598.015 883.714 602.008 884.699 605.884C885.654 609.656 889.445 611.99 893.222 611.212L894.044 622.134C894.338 626.127 897.865 629.151 901.862 628.857C905.859 628.564 908.886 625.041 908.592 621.048L908.048 613.737L929.061 623.852C934.277 626.362 940.258 622.281 939.832 616.512L939.318 609.744C943.667 609.436 947.561 606.471 948.81 602.023Z" fill="#E4ECF2"/>
<path d="M1116.79 638.237C1102.63 634.244 1088.7 639.763 1085.66 650.538C1084.57 654.399 1085.02 658.406 1086.71 662.149C1085.94 662.663 1085.27 663.383 1084.82 664.278L1081.51 670.708C1079 675.596 1084.14 680.866 1089.1 678.473L1095.6 675.332C1096.41 674.95 1097.06 674.392 1097.57 673.761C1100.04 675.229 1102.79 676.433 1105.79 677.269C1119.95 681.262 1133.88 675.743 1136.92 664.968C1139.95 654.193 1130.94 642.229 1116.79 638.237Z" fill="#E4ECF2"/>
<path d="M1388.43 666.716C1380.25 650.73 1353.83 642.406 1327.32 634.421C1300.55 627.389 1273.66 620.725 1258.33 630.076C1242.33 638.252 1234 664.646 1226 691.127C1218.96 717.873 1212.29 744.737 1221.65 760.047C1229.84 776.033 1256.26 784.356 1282.77 792.342C1309.54 799.373 1336.43 806.038 1351.76 796.687C1367.76 788.511 1376.09 762.117 1384.08 735.635C1391.12 708.889 1397.81 682.026 1388.43 666.716ZM1335.55 767.783C1325.53 773.905 1307.98 769.53 1290.5 764.95C1273.19 759.739 1255.93 754.308 1250.59 743.871C1244.46 733.859 1248.84 716.332 1253.42 698.863C1258.64 681.571 1264.08 664.337 1274.52 658.994C1284.54 652.873 1302.09 657.247 1319.58 661.827C1336.89 667.038 1354.14 672.47 1359.49 682.907C1365.61 692.918 1361.23 710.445 1356.65 727.914C1351.45 745.206 1346 762.44 1335.55 767.783Z" fill="#E4ECF2"/>
<path d="M1576.29 719.607C1568.1 703.621 1541.68 695.298 1515.17 687.312C1488.4 680.281 1461.51 673.617 1446.18 682.967C1430.18 691.144 1421.85 717.537 1413.86 744.019C1406.82 770.765 1400.15 797.628 1409.51 812.939C1417.69 828.924 1444.11 837.248 1470.62 845.233C1497.39 852.265 1524.28 858.929 1539.61 849.578C1555.61 841.402 1563.94 815.008 1571.94 788.527C1578.98 761.781 1585.66 734.918 1576.29 719.607ZM1523.42 820.675C1513.4 826.796 1495.85 822.421 1478.36 817.841C1461.05 812.63 1443.8 807.199 1438.45 796.762C1432.33 786.751 1436.71 769.223 1441.29 751.755C1446.51 734.463 1451.94 717.229 1462.39 711.886C1472.41 705.764 1489.96 710.139 1507.44 714.719C1524.75 719.93 1542.01 725.361 1547.35 735.798C1553.48 745.81 1549.1 763.337 1544.52 780.805C1539.3 798.098 1533.86 815.331 1523.42 820.675Z" fill="#E4ECF2"/>
<path d="M1769.08 773.877C1760.89 757.891 1734.47 749.568 1707.96 741.582C1681.19 734.551 1654.3 727.886 1638.97 737.237C1622.97 745.414 1614.64 771.807 1606.65 798.289C1599.61 825.034 1592.94 851.898 1602.3 867.208C1610.48 883.194 1636.9 891.517 1663.41 899.503C1690.18 906.534 1717.07 913.198 1732.4 903.848C1748.4 895.671 1756.73 869.278 1764.73 842.796C1771.77 816.051 1778.45 789.202 1769.08 773.877ZM1716.19 874.944C1706.17 881.065 1688.63 876.691 1671.14 872.111C1653.83 866.9 1636.58 861.468 1631.23 851.031C1625.1 841.02 1629.48 823.493 1634.07 806.025C1639.28 788.732 1644.72 771.499 1655.17 766.156C1665.19 760.034 1682.73 764.409 1700.22 768.989C1717.53 774.2 1734.78 779.631 1740.13 790.068C1746.26 800.079 1741.88 817.607 1737.29 835.075C1732.09 852.382 1726.64 869.601 1716.19 874.944Z" fill="#E4ECF2"/>
<path d="M1963.47 828.599C1955.28 812.613 1928.86 804.29 1902.36 796.304C1875.58 789.272 1848.69 782.608 1833.37 791.959C1817.36 800.135 1809.03 826.529 1801.04 853.011C1794 879.756 1787.33 906.62 1796.69 921.931C1804.87 937.916 1831.29 946.24 1857.8 954.225C1884.58 961.257 1911.47 967.921 1926.79 958.57C1942.79 950.394 1951.13 924 1959.12 897.519C1966.16 870.773 1972.84 843.924 1963.47 828.599ZM1910.58 929.681C1900.56 935.803 1883.02 931.428 1865.53 926.848C1848.22 921.637 1830.97 916.206 1825.62 905.769C1819.49 895.757 1823.87 878.23 1828.46 860.761C1833.67 843.469 1839.11 826.235 1849.56 820.892C1859.58 814.771 1877.13 819.145 1894.61 823.725C1911.92 828.936 1929.17 834.368 1934.52 844.805C1940.65 854.816 1936.27 872.343 1931.68 889.812C1926.48 907.104 1921.03 924.338 1910.58 929.681Z" fill="#E4ECF2"/>
<path d="M1516.01 760.823L1507.11 758.312L1509.62 749.417C1510.77 745.38 1508.4 741.181 1504.36 740.036L1496.84 737.922C1492.79 736.777 1488.59 739.141 1487.45 743.178L1484.93 752.073L1476.03 749.563C1471.99 748.418 1467.78 750.782 1466.64 754.819L1464.52 762.335C1463.38 766.371 1465.74 770.57 1469.78 771.715L1478.69 774.225L1476.18 783.121C1475.03 787.158 1477.39 791.356 1481.44 792.501L1488.96 794.615C1493 795.76 1497.2 793.397 1498.35 789.36L1500.86 780.464L1509.77 782.974C1513.81 784.119 1518.01 781.756 1519.16 777.719L1521.27 770.218C1522.42 766.166 1520.05 761.968 1516.01 760.823Z" fill="#E4ECF2"/>
<path d="M1332.3 712.927L1303.85 683.759C1298.99 678.783 1290.55 680.926 1288.67 687.62L1277.62 726.814C1275.73 733.507 1281.81 739.731 1288.56 738.029L1328.05 728.003C1334.8 726.271 1337.15 717.903 1332.3 712.927Z" fill="#E4ECF2"/>
<path d="M1718.23 818.65C1719.83 812.969 1716.53 807.083 1710.84 805.482C1709.61 805.13 1708.36 805.027 1707.14 805.115L1706.71 799.391C1706.29 793.622 1699.76 790.48 1694.97 793.739L1669.49 811.09L1659.4 813.659C1655.5 814.643 1653.14 818.635 1654.12 822.511C1655.08 826.284 1658.87 828.618 1662.64 827.84L1663.47 838.761C1663.76 842.754 1667.29 845.778 1671.28 845.484C1675.28 845.191 1678.31 841.668 1678.01 837.675L1677.47 830.364L1698.48 840.479C1703.7 842.989 1709.68 838.908 1709.25 833.139L1708.74 826.372C1713.09 826.063 1716.97 823.083 1718.23 818.65Z" fill="#E4ECF2"/>
<path d="M1886.22 854.864C1872.05 850.871 1858.12 856.39 1855.08 867.166C1854 871.026 1854.45 875.034 1856.14 878.778C1855.36 879.291 1854.7 880.011 1854.24 880.906L1850.94 887.336C1848.43 892.224 1853.57 897.495 1858.52 895.102L1865.03 891.96C1865.84 891.579 1866.49 891.021 1867 890.39C1869.47 891.858 1872.22 893.061 1875.21 893.898C1889.38 897.891 1903.31 892.371 1906.35 881.596C1909.38 870.821 1900.37 858.857 1886.22 854.864Z" fill="#E4ECF2"/>
<path d="M1918.69 618.493C1910.51 602.507 1884.09 594.184 1857.58 586.198C1830.81 579.167 1803.92 572.503 1788.59 581.853C1772.59 590.03 1764.26 616.423 1756.26 642.905C1749.22 669.651 1742.55 696.515 1751.91 711.825C1760.1 727.811 1786.52 736.134 1813.03 744.12C1839.8 751.152 1866.69 757.816 1882.02 748.465C1898.02 740.289 1906.35 713.895 1914.34 687.413C1921.37 660.667 1928.05 633.819 1918.69 618.493ZM1865.81 719.576C1855.79 725.697 1838.24 721.323 1820.76 716.743C1803.45 711.532 1786.2 706.1 1780.85 695.663C1774.72 685.652 1779.1 668.125 1783.68 650.656C1788.9 633.364 1794.34 616.13 1804.78 610.787C1814.81 604.665 1832.35 609.04 1849.84 613.62C1867.15 618.831 1884.4 624.262 1889.75 634.699C1895.87 644.711 1891.49 662.238 1886.91 679.707C1881.71 696.999 1876.26 714.233 1865.81 719.576Z" fill="#E4ECF2"/>
<path d="M185.454 130.533C177.269 114.547 150.849 106.224 124.34 98.2381C97.567 91.2067 70.6764 84.5421 55.3501 93.8929C39.348 102.069 31.0163 128.463 23.0226 154.945C15.984 181.691 9.3127 208.554 18.673 223.865C26.8578 239.85 53.2782 248.174 79.7868 256.159C106.56 263.191 133.451 269.855 148.777 260.504C164.779 252.328 173.111 225.934 181.104 199.453C188.143 172.692 194.829 145.843 185.454 130.533ZM132.569 231.601C122.547 237.722 105.002 233.347 87.5161 228.767C70.2061 223.556 52.9549 218.125 47.6062 207.688C41.4786 197.676 45.8576 180.149 50.4422 162.681C55.6587 145.388 61.0956 128.155 71.5433 122.811C81.5649 116.69 99.1099 121.065 116.596 125.644C133.906 130.856 151.157 136.287 156.506 146.724C162.634 156.735 158.255 174.263 153.67 191.731C148.468 209.024 143.017 226.257 132.569 231.601Z" fill="#E4ECF2"/>
<path d="M1862.55 664.718L1834.1 635.549C1829.23 630.573 1820.8 632.716 1818.92 639.41L1807.87 678.605C1805.97 685.299 1812.06 691.523 1818.8 689.82L1858.3 679.794C1865.06 678.061 1867.41 669.694 1862.55 664.718Z" fill="#E4ECF2"/>
<path d="M108.203 156.782C94.0379 152.789 80.1077 158.309 77.066 169.083C75.9786 172.944 76.4341 176.951 78.124 180.695C77.3452 181.209 76.6839 181.928 76.2284 182.823L72.9222 189.253C70.4095 194.141 75.5525 199.411 80.5044 197.018L87.014 193.877C87.8222 193.495 88.4687 192.937 88.983 192.306C91.4517 193.774 94.1995 194.978 97.1971 195.815C111.362 199.807 125.293 194.288 128.334 183.513C131.361 172.739 122.354 160.775 108.203 156.782Z" fill="#E4ECF2"/>
<path d="M379.846 185.261C371.662 169.275 345.241 160.952 318.733 152.966C291.959 145.935 265.069 139.27 249.743 148.621C233.74 156.797 225.409 183.191 217.415 209.673C210.376 236.419 203.705 263.282 213.066 278.593C221.25 294.579 247.671 302.902 274.179 310.888C300.952 317.919 327.843 324.583 343.169 315.233C359.171 307.056 367.503 280.663 375.497 254.181C382.535 227.435 389.207 200.586 379.846 185.261ZM326.961 286.329C316.94 292.45 299.395 288.076 281.909 283.496C264.599 278.284 247.347 272.853 241.999 262.416C235.871 252.405 240.25 234.877 244.835 217.409C250.051 200.116 255.488 182.883 265.936 177.54C275.957 171.418 293.502 175.793 310.989 180.373C328.298 185.584 345.55 191.015 350.898 201.452C357.026 211.464 352.647 228.991 348.062 246.459C342.861 263.752 337.409 280.986 326.961 286.329Z" fill="#E4ECF2"/>
<path d="M567.696 238.147C559.511 222.161 533.091 213.837 506.582 205.852C479.809 198.82 452.918 192.156 437.592 201.507C421.59 209.683 413.258 236.077 405.265 262.559C398.226 289.304 391.555 316.168 400.915 331.479C409.1 347.465 435.52 355.788 462.029 363.773C488.802 370.805 515.693 377.469 531.019 368.118C547.021 359.942 555.353 333.548 563.346 307.067C570.385 280.321 577.071 253.472 567.696 238.147ZM514.826 339.215C504.804 345.336 487.259 340.962 469.773 336.382C452.463 331.17 435.212 325.739 429.863 315.302C423.736 305.29 428.114 287.763 432.699 270.295C437.916 253.002 443.352 235.768 453.8 230.425C463.822 224.304 481.367 228.678 498.853 233.258C516.163 238.47 533.414 243.901 538.763 254.338C544.89 264.349 540.511 281.877 535.927 299.345C530.71 316.638 525.273 333.871 514.826 339.215Z" fill="#E4ECF2"/>
<path d="M760.486 292.419C752.301 276.433 725.881 268.11 699.372 260.125C672.599 253.093 645.709 246.429 630.382 255.78C614.38 263.956 606.049 290.35 598.055 316.831C591.016 343.577 584.345 370.441 593.705 385.751C601.89 401.737 628.31 410.061 654.819 418.046C681.592 425.078 708.483 431.742 723.809 422.391C739.811 414.215 748.143 387.821 756.137 361.34C763.175 334.594 769.861 307.745 760.486 292.419ZM707.601 393.488C697.58 399.609 680.035 395.234 662.548 390.654C645.238 385.443 627.987 380.012 622.638 369.575C616.511 359.563 620.89 342.036 625.474 324.567C630.691 307.275 636.128 290.042 646.575 284.698C656.597 278.577 674.142 282.951 691.628 287.531C708.938 292.742 726.189 298.174 731.538 308.611C737.666 318.622 733.287 336.15 728.702 353.618C723.5 370.925 718.049 388.159 707.601 393.488Z" fill="#E4ECF2"/>
<path d="M954.879 347.144C946.694 331.158 920.273 322.835 893.765 314.85C866.992 307.818 840.101 301.154 824.775 310.505C808.773 318.681 800.441 345.075 792.447 371.556C785.409 398.302 778.738 425.166 788.098 440.476C796.283 456.462 822.703 464.785 849.212 472.771C875.985 479.803 902.875 486.467 918.202 477.116C934.204 468.94 942.535 442.546 950.529 416.064C957.568 389.318 964.239 362.47 954.879 347.144ZM901.994 448.227C891.972 454.348 874.427 449.974 856.941 445.394C839.631 440.183 822.38 434.751 817.031 424.314C810.903 414.303 815.282 396.776 819.867 379.307C825.083 362.015 830.52 344.781 840.968 339.438C850.99 333.316 868.535 337.691 886.021 342.271C903.331 347.482 920.582 352.913 925.931 363.351C932.058 373.362 927.679 390.889 923.095 408.358C917.893 425.65 912.441 442.884 901.994 448.227Z" fill="#E4ECF2"/>
<path d="M507.42 279.368L498.516 276.857L501.028 267.962C502.175 263.925 499.809 259.727 495.768 258.582L488.244 256.468C484.203 255.323 480.001 257.686 478.855 261.723L476.342 270.619L467.437 268.109C463.396 266.964 459.194 269.327 458.048 273.364L455.932 280.879C454.786 284.916 457.151 289.115 461.192 290.26L470.097 292.77L467.584 301.665C466.438 305.702 468.804 309.9 472.845 311.045L480.368 313.159C484.409 314.304 488.612 311.941 489.758 307.904L492.271 299.008L501.175 301.519C505.216 302.664 509.419 300.3 510.565 296.263L512.681 288.748C513.827 284.711 511.461 280.513 507.42 279.368Z" fill="#E4ECF2"/>
<path d="M323.713 231.469L295.264 202.302C290.4 197.325 281.966 199.468 280.085 206.162L269.035 245.356C267.139 252.05 273.223 258.274 279.967 256.571L319.466 246.545C326.211 244.827 328.562 236.446 323.713 231.469Z" fill="#E4ECF2"/>
<path d="M709.645 337.192C711.247 331.511 707.941 325.625 702.254 324.025C701.019 323.672 699.77 323.57 698.551 323.658L698.125 317.933C697.699 312.164 691.174 309.023 686.384 312.281L660.904 329.632L650.809 332.201C646.915 333.185 644.549 337.177 645.534 341.053C646.489 344.825 650.28 347.159 654.056 346.381L654.879 357.303C655.173 361.296 658.7 364.32 662.697 364.026C666.694 363.732 669.72 360.209 669.427 356.217L668.883 348.906L689.896 359.02C695.112 361.53 701.093 357.45 700.667 351.681L700.153 344.913C704.502 344.605 708.381 341.625 709.645 337.192Z" fill="#E4ECF2"/>
<path d="M877.63 373.406C863.465 369.413 849.534 374.933 846.493 385.707C845.405 389.568 845.861 393.576 847.551 397.319C846.772 397.833 846.111 398.552 845.655 399.447L842.349 405.877C839.836 410.765 844.979 416.035 849.931 413.642L856.441 410.501C857.249 410.119 857.896 409.561 858.41 408.93C860.879 410.398 863.626 411.602 866.624 412.439C880.789 416.431 894.72 410.912 897.761 400.137C900.788 389.363 891.781 377.399 877.63 373.406Z" fill="#E4ECF2"/>
<path d="M1149.27 401.885C1141.09 385.899 1114.67 377.576 1088.16 369.59C1061.38 362.559 1034.49 355.894 1019.17 365.245C1003.16 373.421 994.833 399.815 986.839 426.297C979.8 453.043 973.129 479.906 982.489 495.216C990.674 511.202 1017.09 519.525 1043.6 527.511C1070.38 534.543 1097.27 541.207 1112.59 531.856C1128.6 523.68 1136.93 497.286 1144.92 470.805C1151.94 444.059 1158.63 417.195 1149.27 401.885ZM1096.39 502.952C1086.36 509.074 1068.82 504.699 1051.33 500.119C1034.02 494.908 1016.77 489.477 1011.42 479.04C1005.29 469.028 1009.67 451.501 1014.26 434.033C1019.48 416.74 1024.91 399.507 1035.36 394.163C1045.38 388.042 1062.93 392.417 1080.41 396.997C1097.72 402.208 1114.97 407.639 1120.32 418.076C1126.45 428.088 1122.07 445.615 1117.49 463.083C1112.28 480.375 1106.83 497.609 1096.39 502.952Z" fill="#E4ECF2"/>
<path d="M1337.12 454.774C1328.93 438.788 1302.51 430.465 1276.01 422.479C1249.23 415.448 1222.34 408.783 1207.02 418.134C1191.01 426.31 1182.68 452.704 1174.69 479.186C1167.65 505.932 1160.98 532.795 1170.34 548.106C1178.52 564.091 1204.94 572.415 1231.45 580.4C1258.23 587.432 1285.12 594.096 1300.44 584.745C1316.44 576.569 1324.78 550.175 1332.77 523.694C1339.81 496.948 1346.49 470.084 1337.12 454.774ZM1284.25 555.842C1274.23 561.963 1256.68 557.588 1239.2 553.008C1221.89 547.797 1204.64 542.366 1199.29 531.929C1193.16 521.917 1197.54 504.39 1202.12 486.922C1207.34 469.629 1212.78 452.396 1223.22 447.052C1233.25 440.931 1250.79 445.305 1268.28 449.885C1285.59 455.097 1302.84 460.528 1308.19 470.965C1314.31 480.976 1309.93 498.504 1305.35 515.972C1300.13 533.265 1294.7 550.498 1284.25 555.842Z" fill="#E4ECF2"/>
<path d="M1529.91 509.044C1521.73 493.058 1495.31 484.734 1468.8 476.749C1442.02 469.717 1415.13 463.053 1399.81 472.404C1383.81 480.58 1375.47 506.974 1367.48 533.456C1360.44 560.202 1353.77 587.065 1363.13 602.376C1371.32 618.362 1397.74 626.685 1424.24 634.671C1451.02 641.702 1477.91 648.367 1493.23 639.016C1509.24 630.839 1517.57 604.446 1525.56 577.964C1532.6 551.218 1539.29 524.369 1529.91 509.044ZM1477.03 610.112C1467.01 616.233 1449.46 611.859 1431.97 607.279C1414.66 602.068 1397.41 596.636 1392.06 586.199C1385.94 576.187 1390.32 558.66 1394.9 541.192C1400.12 523.899 1405.55 506.665 1416 501.322C1426.02 495.201 1443.57 499.575 1461.05 504.155C1478.36 509.367 1495.62 514.798 1500.96 525.235C1507.09 535.246 1502.71 552.774 1498.13 570.242C1492.93 587.549 1487.47 604.768 1477.03 610.112Z" fill="#E4ECF2"/>
<path d="M1724.3 563.769C1716.12 547.783 1689.7 539.459 1663.19 531.474C1636.41 524.442 1609.52 517.778 1594.2 527.129C1578.2 535.305 1569.86 561.699 1561.87 588.181C1554.83 614.927 1548.16 641.79 1557.52 657.101C1565.71 673.087 1592.13 681.41 1618.63 689.396C1645.41 696.427 1672.3 703.091 1687.62 693.741C1703.63 685.564 1711.96 659.171 1719.95 632.689C1726.98 605.943 1733.66 579.094 1724.3 563.769ZM1671.42 664.837C1661.4 670.958 1643.85 666.584 1626.36 662.004C1609.05 656.792 1591.8 651.361 1586.45 640.924C1580.33 630.912 1584.71 613.385 1589.29 595.917C1594.51 578.624 1599.94 561.391 1610.39 556.047C1620.41 549.926 1637.96 554.3 1655.44 558.88C1672.75 564.091 1690.01 569.523 1695.35 579.96C1701.48 589.971 1697.1 607.499 1692.52 624.967C1687.32 642.274 1681.86 659.508 1671.42 664.837Z" fill="#E4ECF2"/>
<path d="M1276.84 495.995L1267.94 493.485L1270.45 484.589C1271.6 480.552 1269.23 476.354 1265.19 475.209L1257.67 473.095C1253.63 471.95 1249.42 474.313 1248.28 478.35L1245.76 487.246L1236.86 484.736C1232.82 483.591 1228.62 485.954 1227.47 489.991L1225.35 497.507C1224.21 501.544 1226.57 505.742 1230.62 506.887L1239.52 509.397L1237.01 518.293C1235.86 522.33 1238.23 526.528 1242.27 527.673L1249.79 529.787C1253.83 530.932 1258.03 528.569 1259.18 524.532L1261.69 515.636L1270.6 518.146C1274.64 519.291 1278.84 516.928 1279.99 512.891L1282.1 505.375C1283.25 501.338 1280.88 497.14 1276.84 495.995Z" fill="#E4ECF2"/>
<path d="M1093.14 448.094L1064.69 418.926C1059.83 413.949 1051.39 416.092 1049.51 422.786L1038.46 461.981C1036.56 468.675 1042.65 474.899 1049.39 473.196L1088.89 463.17C1095.64 461.438 1097.99 453.07 1093.14 448.094Z" fill="#E4ECF2"/>
<path d="M1479.07 553.816C1480.67 548.135 1477.36 542.249 1471.68 540.649C1470.44 540.297 1469.19 540.194 1467.97 540.282L1467.55 534.557C1467.12 528.788 1460.6 525.647 1455.81 528.905L1430.33 546.256L1420.23 548.825C1416.34 549.809 1413.97 553.802 1414.96 557.677C1415.91 561.45 1419.7 563.784 1423.48 563.006L1424.3 573.927C1424.6 577.92 1428.12 580.944 1432.12 580.651C1436.12 580.357 1439.14 576.834 1438.85 572.841L1438.31 565.531L1459.32 575.645C1464.54 578.155 1470.52 574.074 1470.09 568.305L1469.58 561.538C1473.92 561.23 1477.8 558.25 1479.07 553.816Z" fill="#E4ECF2"/>
<path d="M1647.06 590.03C1632.89 586.037 1618.96 591.557 1615.92 602.332C1614.83 606.192 1615.29 610.2 1616.98 613.943C1616.2 614.457 1615.54 615.177 1615.08 616.072L1611.77 622.502C1609.26 627.39 1614.4 632.66 1619.36 630.267L1625.87 627.126C1626.67 626.744 1627.32 626.186 1627.83 625.555C1630.3 627.023 1633.05 628.227 1636.05 629.064C1650.21 633.057 1664.14 627.537 1667.19 616.762C1670.21 605.987 1661.21 594.008 1647.06 590.03Z" fill="#E4ECF2"/>
<path d="M1815.73 983.44C1807.55 967.454 1781.13 959.131 1754.62 951.146C1727.84 944.114 1700.95 937.45 1685.63 946.8C1669.63 954.977 1661.29 981.37 1653.3 1007.85C1646.26 1034.6 1639.59 1061.46 1648.95 1076.77C1657.14 1092.76 1683.56 1101.08 1710.06 1109.07C1736.84 1116.1 1763.73 1122.76 1779.05 1113.41C1795.06 1105.24 1803.39 1078.84 1811.38 1052.36C1818.42 1025.61 1825.11 998.766 1815.73 983.44ZM1762.86 1084.51C1752.84 1090.63 1735.29 1086.25 1717.81 1081.67C1700.5 1076.46 1683.25 1071.03 1677.9 1060.6C1671.77 1050.58 1676.15 1033.06 1680.73 1015.59C1685.95 998.296 1691.39 981.062 1701.83 975.719C1711.86 969.598 1729.4 973.972 1746.89 978.552C1764.2 983.763 1781.45 989.194 1786.8 999.632C1792.92 1009.64 1788.55 1027.17 1783.96 1044.64C1778.74 1061.95 1773.31 1079.18 1762.86 1084.51Z" fill="#E4ECF2"/>
<path d="M2003.6 1036.33C1995.41 1020.35 1968.99 1012.02 1942.48 1004.04C1915.71 997.006 1888.82 990.342 1873.49 999.692C1857.49 1007.87 1849.16 1034.26 1841.17 1060.74C1834.13 1087.49 1827.46 1114.35 1836.82 1129.66C1845 1145.65 1871.42 1153.97 1897.93 1161.96C1924.7 1168.99 1951.59 1175.65 1966.92 1166.3C1982.92 1158.13 1991.25 1131.73 1999.25 1105.25C2006.29 1078.51 2012.97 1051.66 2003.6 1036.33ZM1950.71 1137.4C1940.69 1143.52 1923.14 1139.15 1905.66 1134.57C1888.35 1129.36 1871.1 1123.92 1865.75 1113.49C1859.62 1103.48 1864 1085.95 1868.58 1068.48C1873.8 1051.19 1879.24 1033.95 1889.69 1028.61C1899.71 1022.49 1917.25 1026.86 1934.74 1031.44C1952.05 1036.65 1969.3 1042.09 1974.65 1052.52C1980.78 1062.53 1976.4 1080.06 1971.81 1097.53C1966.61 1114.84 1961.16 1132.07 1950.71 1137.4Z" fill="#E4ECF2"/>
<path d="M82.4891 495.464C74.3044 479.478 47.8839 471.155 21.3753 463.17C-5.39785 456.138 -32.2885 449.474 -47.6147 458.824C-63.6169 467.001 -71.9486 493.395 -79.9423 519.876C-86.9809 546.622 -93.6521 573.486 -84.2918 588.797C-76.1071 604.783 -49.6866 613.106 -23.178 621.091C3.59512 628.123 30.4858 634.788 45.812 625.437C61.8141 617.26 70.1458 590.866 78.1396 564.385C85.1782 537.639 91.8641 510.79 82.4891 495.464ZM29.6188 596.533C19.5973 602.654 2.0522 598.28 -15.4341 593.7C-32.744 588.488 -49.9952 583.057 -55.344 572.62C-61.4715 562.608 -57.0926 545.081 -52.508 527.613C-47.2915 510.32 -41.8545 493.086 -31.4068 487.743C-21.3853 481.622 -3.84022 485.996 13.6461 490.576C30.956 495.787 48.2072 501.219 53.556 511.656C59.6835 521.667 55.3045 539.195 50.7199 556.663C45.5034 573.97 40.0665 591.204 29.6188 596.533Z" fill="#E4ECF2"/>
<path d="M1943.32 1077.56L1934.42 1075.05L1936.93 1066.16C1938.08 1062.12 1935.71 1057.92 1931.67 1056.78L1924.15 1054.66C1920.1 1053.52 1915.9 1055.88 1914.76 1059.92L1912.24 1068.81L1903.34 1066.3C1899.3 1065.16 1895.09 1067.52 1893.95 1071.56L1891.83 1079.08C1890.69 1083.11 1893.05 1087.31 1897.09 1088.46L1906 1090.97L1903.48 1099.86C1902.34 1103.9 1904.7 1108.1 1908.75 1109.24L1916.27 1111.36C1920.31 1112.5 1924.51 1110.14 1925.66 1106.1L1928.17 1097.2L1937.08 1099.72C1941.12 1100.86 1945.32 1098.5 1946.47 1094.46L1948.58 1086.94C1949.71 1082.89 1947.36 1078.69 1943.32 1077.56Z" fill="#E4ECF2"/>
<path d="M1759.6 1029.65L1731.15 1000.48C1726.29 995.504 1717.85 997.648 1715.97 1004.34L1704.92 1043.54C1703.03 1050.23 1709.11 1056.45 1715.85 1054.75L1755.35 1044.73C1762.1 1043.01 1764.46 1034.64 1759.6 1029.65Z" fill="#E4ECF2"/>
<path d="M5.2403 521.726C-8.925 517.733 -22.8552 523.253 -25.8969 534.027C-26.9843 537.888 -26.5288 541.895 -24.8389 545.639C-25.6177 546.152 -26.279 546.872 -26.7345 547.767L-30.0407 554.197C-32.5534 559.085 -27.4104 564.355 -22.4584 561.962L-15.9489 558.821C-15.1407 558.439 -14.4942 557.881 -13.9799 557.25C-11.5112 558.718 -8.76339 559.922 -5.76575 560.758C8.39954 564.751 22.3297 559.232 25.3714 548.457C28.4132 537.682 19.4056 525.704 5.2403 521.726Z" fill="#E4ECF2"/>
<path d="M276.881 550.189C268.696 534.203 242.275 525.88 215.767 517.894C188.994 510.863 162.103 504.198 146.777 513.549C130.775 521.726 122.443 548.12 114.449 574.601C107.411 601.347 100.739 628.211 110.1 643.522C118.285 659.508 144.705 667.831 171.214 675.816C197.987 682.848 224.877 689.512 240.204 680.162C256.206 671.985 264.537 645.591 272.531 619.11C279.57 592.363 286.256 565.515 276.881 550.189ZM224.01 651.272C213.989 657.394 196.444 653.019 178.957 648.439C161.648 643.228 144.396 637.797 139.048 627.359C132.92 617.348 137.299 599.821 141.884 582.352C147.1 565.06 152.537 547.826 162.985 542.483C173.006 536.361 190.551 540.736 208.038 545.316C225.348 550.527 242.599 555.958 247.947 566.395C254.075 576.407 249.696 593.934 245.111 611.403C239.895 628.695 234.458 645.929 224.01 651.272Z" fill="#E4ECF2"/>
<path d="M464.748 603.082C456.563 587.095 430.143 578.772 403.634 570.786C376.861 563.755 349.97 557.09 334.644 566.441C318.642 574.618 310.31 601.012 302.317 627.494C295.278 654.24 288.607 681.104 297.967 696.414C306.152 712.4 332.572 720.724 359.081 728.709C385.854 735.741 412.744 742.405 428.071 733.054C444.073 724.878 452.405 698.484 460.398 672.002C467.437 645.256 474.123 618.407 464.748 603.082ZM411.863 704.165C401.841 710.287 384.296 705.912 366.81 701.332C349.5 696.121 332.249 690.689 326.9 680.252C320.773 670.241 325.151 652.713 329.736 635.244C334.953 617.952 340.39 600.718 350.837 595.375C360.859 589.253 378.404 593.628 395.89 598.208C413.2 603.419 430.451 608.851 435.8 619.288C441.927 629.299 437.549 646.827 432.964 664.295C427.762 681.588 422.311 698.822 411.863 704.165Z" fill="#E4ECF2"/>
<path d="M657.523 657.363C649.338 641.378 622.918 633.054 596.409 625.069C569.636 618.037 542.746 611.373 527.419 620.723C511.417 628.9 503.086 655.294 495.092 681.775C488.053 708.521 481.382 735.385 490.742 750.695C498.927 766.681 525.347 775.004 551.856 782.99C578.629 790.021 605.52 796.686 620.846 787.335C636.848 779.159 645.179 752.765 653.173 726.283C660.212 699.537 666.898 672.689 657.523 657.363ZM604.653 758.431C594.631 764.553 577.086 760.178 559.6 755.598C542.29 750.387 525.039 744.956 519.69 734.518C513.563 724.507 517.942 706.98 522.526 689.511C527.743 672.219 533.179 654.985 543.627 649.642C553.649 643.521 571.194 647.895 588.68 652.475C605.99 657.686 623.241 663.118 628.59 673.555C634.717 683.566 630.338 701.093 625.754 718.562C620.537 735.854 615.1 753.088 604.653 758.431Z" fill="#E4ECF2"/>
<path d="M851.913 712.089C843.729 696.103 817.308 687.779 790.8 679.794C764.027 672.762 737.136 666.098 721.81 675.448C705.808 683.625 697.476 710.019 689.483 736.501C682.444 763.247 675.773 790.111 685.133 805.421C693.318 821.407 719.738 829.731 746.247 837.716C773.02 844.748 799.91 851.412 815.236 842.062C831.239 833.885 839.57 807.491 847.564 781.009C854.603 754.263 861.288 727.414 851.913 712.089ZM799.043 813.158C789.022 819.279 771.477 814.904 753.991 810.324C736.681 805.113 719.43 799.682 714.081 789.244C707.953 779.233 712.332 761.706 716.917 744.237C722.133 726.944 727.57 709.71 738.018 704.367C748.039 698.246 765.584 702.62 783.071 707.2C800.381 712.412 817.632 717.843 822.98 728.28C829.108 738.292 824.729 755.819 820.144 773.288C814.928 790.595 809.491 807.814 799.043 813.158Z" fill="#E4ECF2"/>
<path d="M404.472 644.315L395.568 641.805L398.08 632.909C399.227 628.872 396.861 624.674 392.82 623.529L385.296 621.415C381.255 620.27 377.053 622.633 375.907 626.67L373.394 635.566L364.489 633.056C360.448 631.911 356.246 634.274 355.099 638.311L352.983 645.827C351.837 649.864 354.203 654.062 358.244 655.207L367.149 657.717L364.636 666.613C363.49 670.65 365.856 674.848 369.897 675.993L377.42 678.107C381.461 679.252 385.664 676.889 386.81 672.852L389.323 663.956L398.227 666.466C402.268 667.611 406.471 665.248 407.617 661.211L409.733 653.695C410.864 649.658 408.513 645.445 404.472 644.315Z" fill="#E4ECF2"/>
<path d="M220.747 596.414L192.298 567.245C187.434 562.269 179 564.412 177.119 571.106L166.069 610.301C164.173 616.994 170.257 623.219 177.001 621.516L216.5 611.49C223.245 609.757 225.61 601.39 220.747 596.414Z" fill="#E4ECF2"/>
<path d="M606.681 702.139C608.282 696.458 604.976 690.572 599.289 688.972C598.055 688.619 596.806 688.517 595.586 688.605L595.16 682.88C594.734 677.111 588.21 673.97 583.419 677.228L557.939 694.579L547.844 697.148C543.95 698.132 541.584 702.125 542.569 706C543.524 709.773 547.315 712.106 551.092 711.328L551.914 722.25C552.208 726.243 555.735 729.267 559.732 728.973C563.729 728.679 566.756 725.156 566.462 721.164L565.918 713.853L586.931 723.967C592.148 726.478 598.128 722.397 597.702 716.628L597.188 709.86C601.552 709.552 605.432 706.572 606.681 702.139Z" fill="#E4ECF2"/>
<path d="M774.669 738.35C760.504 734.357 746.574 739.877 743.532 750.651C742.444 754.512 742.9 758.519 744.59 762.262C743.811 762.776 743.15 763.495 742.694 764.391L739.388 770.82C736.875 775.708 742.018 780.978 746.97 778.585L753.48 775.444C754.288 775.062 754.935 774.505 755.449 773.873C757.918 775.341 760.665 776.545 763.663 777.382C777.828 781.374 791.759 775.855 794.8 765.081C797.842 754.306 788.834 742.328 774.669 738.35Z" fill="#E4ECF2"/>
<path d="M1046.31 766.816C1038.12 750.83 1011.7 742.507 985.191 734.521C958.418 727.49 931.528 720.826 916.202 730.176C900.199 738.353 891.868 764.747 883.874 791.228C876.835 817.974 870.164 844.838 879.525 860.149C887.709 876.135 914.13 884.458 940.638 892.443C967.411 899.475 994.302 906.14 1009.63 896.789C1025.63 888.612 1033.96 862.218 1041.96 835.737C1048.99 808.99 1055.68 782.142 1046.31 766.816ZM993.435 867.899C983.413 874.021 965.868 869.646 948.382 865.066C931.072 859.855 913.821 854.424 908.472 843.987C902.345 833.975 906.724 816.448 911.308 798.979C916.525 781.687 921.962 764.453 932.409 759.11C942.431 752.988 959.976 757.363 977.462 761.943C994.772 767.154 1012.02 772.585 1017.37 783.023C1023.5 793.034 1019.12 810.561 1014.54 828.03C1009.32 845.322 1003.88 862.556 993.435 867.899Z" fill="#E4ECF2"/>
<path d="M1234.17 819.702C1225.99 803.716 1199.57 795.393 1173.06 787.407C1146.28 780.376 1119.39 773.711 1104.07 783.062C1088.06 791.239 1079.73 817.632 1071.74 844.114C1064.7 870.86 1058.03 897.723 1067.39 913.034C1075.57 929.02 1101.99 937.343 1128.5 945.328C1155.28 952.36 1182.17 959.025 1197.49 949.674C1213.5 941.497 1221.83 915.104 1229.82 888.622C1236.86 861.876 1243.55 835.027 1234.17 819.702ZM1181.29 920.785C1171.26 926.906 1153.72 922.531 1136.23 917.951C1118.92 912.74 1101.67 907.309 1096.32 896.872C1090.2 886.86 1094.57 869.333 1099.16 851.865C1104.38 834.572 1109.81 817.339 1120.26 811.995C1130.28 805.874 1147.83 810.248 1165.31 814.828C1182.62 820.039 1199.87 825.471 1205.22 835.908C1211.35 845.919 1206.97 863.447 1202.39 880.915C1197.18 898.207 1191.73 915.441 1181.29 920.785Z" fill="#E4ECF2"/>
<path d="M1426.95 873.987C1418.76 858.001 1392.34 849.678 1365.83 841.693C1339.06 834.661 1312.17 827.997 1296.84 837.348C1280.84 845.524 1272.51 871.917 1264.52 898.399C1257.48 925.145 1250.81 952.008 1260.17 967.318C1268.35 983.304 1294.77 991.627 1321.28 999.613C1348.05 1006.64 1374.94 1013.31 1390.27 1003.96C1406.27 995.782 1414.61 969.388 1422.6 942.907C1429.64 916.161 1436.32 889.298 1426.95 873.987ZM1374.08 975.054C1364.06 981.176 1346.51 976.801 1329.02 972.221C1311.71 967.01 1294.46 961.579 1289.12 951.142C1282.99 941.131 1287.37 923.603 1291.95 906.135C1297.17 888.843 1302.6 871.609 1313.05 866.266C1323.07 860.144 1340.62 864.519 1358.11 869.099C1375.42 874.31 1392.67 879.741 1398.02 890.178C1404.14 900.19 1399.76 917.717 1395.18 935.185C1389.96 952.478 1384.53 969.711 1374.08 975.054Z" fill="#E4ECF2"/>
<path d="M1621.34 928.715C1613.15 912.729 1586.73 904.406 1560.22 896.421C1533.45 889.389 1506.56 882.725 1491.23 892.076C1475.23 900.252 1466.9 926.645 1458.91 953.127C1451.87 979.873 1445.2 1006.74 1454.56 1022.05C1462.74 1038.03 1489.16 1046.36 1515.67 1054.34C1542.44 1061.37 1569.34 1068.04 1584.66 1058.69C1600.66 1050.51 1609 1024.12 1616.99 997.635C1624.03 970.889 1630.71 944.041 1621.34 928.715ZM1568.47 1029.78C1558.45 1035.9 1540.9 1031.53 1523.42 1026.95C1506.11 1021.74 1488.85 1016.31 1483.51 1005.87C1477.38 995.859 1481.76 978.332 1486.34 960.863C1491.56 943.571 1497 926.337 1507.44 920.994C1517.46 914.873 1535.01 919.247 1552.5 923.827C1569.81 929.038 1587.06 934.47 1592.41 944.907C1598.53 954.918 1594.15 972.445 1589.57 989.913C1584.35 1007.22 1578.92 1024.44 1568.47 1029.78Z" fill="#E4ECF2"/>
<path d="M1173.9 860.938L1164.99 858.428L1167.5 849.533C1168.65 845.496 1166.28 841.298 1162.24 840.153L1154.72 838.039C1150.68 836.894 1146.48 839.257 1145.33 843.294L1142.82 852.19L1133.91 849.679C1129.87 848.534 1125.67 850.898 1124.52 854.935L1122.41 862.45C1121.26 866.487 1123.63 870.686 1127.67 871.831L1136.57 874.341L1134.06 883.236C1132.91 887.273 1135.28 891.471 1139.32 892.616L1146.84 894.73C1150.88 895.875 1155.09 893.512 1156.23 889.475L1158.75 880.579L1167.65 883.089C1171.69 884.234 1175.89 881.871 1177.04 877.834L1179.16 870.319C1180.29 866.267 1177.94 862.069 1173.9 860.938Z" fill="#E4ECF2"/>
<path d="M990.173 813.041L961.724 783.872C956.86 778.896 948.426 781.039 946.545 787.733L935.495 826.928C933.599 833.621 939.683 839.846 946.427 838.143L985.926 828.117C992.671 826.384 995.037 818.017 990.173 813.041Z" fill="#E4ECF2"/>
<path d="M1376.11 918.76C1377.71 913.079 1374.4 907.193 1368.71 905.593C1367.48 905.241 1366.23 905.138 1365.01 905.226L1364.59 899.501C1364.16 893.732 1357.64 890.59 1352.84 893.849L1327.36 911.2L1317.27 913.769C1313.38 914.753 1311.01 918.746 1311.99 922.621C1312.95 926.394 1316.74 928.728 1320.52 927.95L1321.34 938.871C1321.63 942.864 1325.16 945.888 1329.16 945.595C1333.15 945.301 1336.18 941.778 1335.89 937.785L1335.34 930.475L1356.36 940.589C1361.57 943.099 1367.55 939.018 1367.13 933.249L1366.61 926.482C1370.98 926.174 1374.86 923.194 1376.11 918.76Z" fill="#E4ECF2"/>
<path d="M1544.09 954.977C1529.93 950.984 1516 956.504 1512.95 967.279C1511.87 971.14 1512.32 975.147 1514.01 978.89C1513.23 979.404 1512.57 980.124 1512.12 981.019L1508.81 987.449C1506.3 992.337 1511.44 997.607 1516.39 995.214L1522.9 992.073C1523.71 991.691 1524.36 991.133 1524.87 990.502C1527.34 991.97 1530.09 993.174 1533.09 994.011C1547.25 998.004 1561.18 992.484 1564.22 981.709C1567.27 970.934 1558.26 958.955 1544.09 954.977Z" fill="#E4ECF2"/>
<path d="M125.897 704.12C117.712 688.134 91.2921 679.811 64.7834 671.826C38.0103 664.794 11.1197 658.129 -4.2065 667.48C-20.2087 675.657 -28.5403 702.051 -36.5341 728.532C-43.5727 755.278 -50.2439 782.142 -40.8836 797.452C-32.6989 813.438 -6.27845 821.762 20.2302 829.747C47.0033 836.779 73.894 843.443 89.2202 834.092C105.222 825.916 113.554 799.522 121.548 773.04C128.572 746.294 135.258 719.431 125.897 704.12ZM73.0123 805.189C62.9907 811.31 45.4457 806.935 27.9594 802.355C10.6495 797.144 -6.60171 791.713 -11.9505 781.276C-18.078 771.264 -13.6991 753.737 -9.11446 736.269C-3.89796 718.976 1.53897 701.742 11.9867 696.399C22.0082 690.278 39.5533 694.652 57.0395 699.232C74.3495 704.443 91.6007 709.875 96.9494 720.312C103.077 730.323 98.698 747.85 94.1134 765.319C88.9116 782.611 83.46 799.845 73.0123 805.189Z" fill="#E4ECF2"/>
<path d="M318.672 758.39C310.487 742.404 284.067 734.081 257.558 726.095C230.785 719.064 203.894 712.399 188.568 721.75C172.566 729.927 164.234 756.32 156.24 782.802C149.202 809.549 142.53 836.412 151.891 851.723C160.076 867.709 186.496 876.032 213.005 884.018C239.778 891.049 266.668 897.714 281.995 888.363C297.997 880.187 306.328 853.793 314.322 827.311C321.361 800.565 328.047 773.716 318.672 758.39ZM265.801 859.459C255.78 865.58 238.235 861.206 220.749 856.626C203.439 851.415 186.187 845.983 180.839 835.546C174.711 825.535 179.09 808.007 183.675 790.539C188.891 773.246 194.328 756.012 204.776 750.669C214.797 744.547 232.342 748.922 249.829 753.502C267.139 758.713 284.39 764.145 289.739 774.582C295.866 784.593 291.487 802.121 286.903 819.589C281.686 836.896 276.249 854.13 265.801 859.459Z" fill="#E4ECF2"/>
<path d="M513.063 813.112C504.879 797.126 478.458 788.803 451.949 780.817C425.176 773.786 398.286 767.121 382.96 776.472C366.957 784.649 358.626 811.043 350.632 837.525C343.593 864.271 336.922 891.134 346.282 906.445C354.467 922.431 380.888 930.754 407.396 938.74C434.169 945.772 461.06 952.436 476.386 943.085C492.388 934.909 500.72 908.515 508.714 882.033C515.752 855.287 522.438 828.438 513.063 813.112ZM460.193 914.196C450.172 920.317 432.626 915.943 415.14 911.363C397.83 906.151 380.579 900.72 375.23 890.283C369.103 880.271 373.482 862.744 378.066 845.275C383.283 827.983 388.72 810.749 399.167 805.406C409.189 799.284 426.734 803.659 444.22 808.239C461.53 813.45 478.781 818.881 484.13 829.319C490.258 839.33 485.879 856.857 481.294 874.326C476.078 891.619 470.641 908.853 460.193 914.196Z" fill="#E4ECF2"/>
<path d="M65.6062 745.338L56.7014 742.828L59.2141 733.932C60.3603 729.895 57.9945 725.697 53.9535 724.552L46.4301 722.438C42.3891 721.293 38.1865 723.657 37.0403 727.693L34.5276 736.589L25.6229 734.079C21.5819 732.934 17.3793 735.297 16.2332 739.334L14.1172 746.835C12.9711 750.872 15.3368 755.07 19.3778 756.215L28.2825 758.725L25.7698 767.62C24.6237 771.657 26.9894 775.855 31.0304 777L38.5539 779.114C42.5948 780.259 46.7974 777.896 47.9436 773.859L50.4563 764.963L59.3611 767.474C63.402 768.618 67.6046 766.255 68.7508 762.219L70.8668 754.703C72.0129 750.681 69.6618 746.483 65.6062 745.338Z" fill="#E4ECF2"/>
<path d="M267.829 803.16C269.431 797.479 266.124 791.592 260.438 789.992C259.203 789.64 257.954 789.537 256.735 789.625L256.308 783.9C255.882 778.131 249.358 774.99 244.568 778.249L219.088 795.6L208.993 798.169C205.099 799.152 202.733 803.145 203.717 807.02C204.672 810.793 208.464 813.127 212.24 812.349L213.063 823.27C213.357 827.263 216.883 830.287 220.88 829.993C224.877 829.7 227.904 826.177 227.61 822.184L227.067 814.874L248.08 824.988C253.296 827.498 259.277 823.417 258.851 817.648L258.336 810.881C262.701 810.573 266.58 807.593 267.829 803.16Z" fill="#E4ECF2"/>
<path d="M435.814 839.374C421.648 835.381 407.718 840.9 404.676 851.675C403.589 855.536 404.045 859.543 405.734 863.286C404.956 863.8 404.294 864.519 403.839 865.415L400.533 871.845C398.02 876.733 403.163 882.003 408.115 879.61L414.624 876.468C415.433 876.087 416.079 875.529 416.593 874.898C419.062 876.366 421.81 877.569 424.808 878.406C438.973 882.399 452.903 876.88 455.945 866.105C458.987 855.33 449.979 843.366 435.814 839.374Z" fill="#E4ECF2"/>
<path d="M707.454 867.856C699.269 851.87 672.849 843.546 646.34 835.561C619.567 828.529 592.676 821.865 577.35 831.216C561.348 839.392 553.016 865.786 545.023 892.267C537.984 919.013 531.313 945.877 540.673 961.188C548.858 977.174 575.278 985.497 601.787 993.482C628.56 1000.51 655.451 1007.18 670.777 997.827C686.779 989.651 695.111 963.257 703.105 936.776C710.143 910.03 716.829 883.166 707.454 867.856ZM654.584 968.924C644.562 975.045 627.017 970.67 609.531 966.09C592.221 960.879 574.97 955.448 569.621 945.011C563.493 934.999 567.872 917.472 572.457 900.004C577.673 882.711 583.11 865.478 593.558 860.134C603.58 854.013 621.125 858.387 638.611 862.967C655.921 868.179 673.172 873.61 678.521 884.047C684.648 894.058 680.269 911.586 675.685 929.054C670.468 946.347 665.031 963.58 654.584 968.924Z" fill="#E4ECF2"/>
<path d="M895.321 920.744C887.136 904.758 860.716 896.435 834.207 888.449C807.434 881.418 780.543 874.754 765.217 884.104C749.215 892.281 740.883 918.674 732.89 945.156C725.851 971.902 719.18 998.765 728.54 1014.08C736.725 1030.06 763.145 1038.38 789.654 1046.37C816.427 1053.4 843.318 1060.07 858.644 1050.72C874.646 1042.54 882.978 1016.15 890.971 989.664C897.995 962.903 904.681 936.055 895.321 920.744ZM842.436 1021.81C832.415 1027.93 814.869 1023.56 797.383 1018.98C780.073 1013.77 762.822 1008.34 757.473 997.899C751.346 987.888 755.725 970.36 760.309 952.892C765.526 935.6 770.963 918.366 781.41 913.023C791.432 906.901 808.977 911.276 826.463 915.856C843.773 921.067 861.024 926.498 866.373 936.935C872.501 946.947 868.122 964.474 863.537 981.942C858.335 999.235 852.884 1016.47 842.436 1021.81Z" fill="#E4ECF2"/>
<path d="M1088.09 975.014C1079.91 959.028 1053.49 950.705 1026.98 942.719C1000.21 935.688 973.317 929.023 957.991 938.374C941.988 946.551 933.657 972.944 925.663 999.426C918.625 1026.17 911.953 1053.03 921.314 1068.35C929.498 1084.33 955.919 1092.65 982.427 1100.64C1009.2 1107.67 1036.09 1114.34 1051.42 1104.98C1067.42 1096.81 1075.75 1070.42 1083.74 1043.93C1090.78 1017.19 1097.47 990.339 1088.09 975.014ZM1035.22 1076.08C1025.2 1082.2 1007.66 1077.83 990.171 1073.25C972.861 1068.04 955.61 1062.61 950.261 1052.17C944.134 1042.16 948.513 1024.63 953.097 1007.16C958.314 989.869 963.751 972.636 974.198 967.293C984.22 961.171 1001.76 965.546 1019.25 970.126C1036.56 975.337 1053.81 980.768 1059.16 991.205C1065.29 1001.22 1060.91 1018.74 1056.32 1036.21C1051.11 1053.52 1045.67 1070.74 1035.22 1076.08Z" fill="#E4ECF2"/>
<path d="M1282.49 1029.74C1274.3 1013.75 1247.88 1005.43 1221.37 997.441C1194.6 990.41 1167.71 983.745 1152.38 993.096C1136.38 1001.27 1128.05 1027.67 1120.06 1054.15C1113.02 1080.89 1106.35 1107.76 1115.71 1123.07C1123.89 1139.05 1150.31 1147.38 1176.82 1155.36C1203.59 1162.39 1230.48 1169.06 1245.81 1159.71C1261.81 1151.53 1270.14 1125.14 1278.14 1098.66C1285.18 1071.91 1291.86 1045.06 1282.49 1029.74ZM1229.62 1130.8C1219.6 1136.93 1202.05 1132.55 1184.56 1127.97C1167.25 1122.76 1150 1117.33 1144.65 1106.89C1138.53 1096.88 1142.91 1079.35 1147.49 1061.88C1152.71 1044.59 1158.14 1027.36 1168.59 1022.01C1178.61 1015.89 1196.16 1020.27 1213.64 1024.85C1230.95 1030.06 1248.21 1035.49 1253.55 1045.93C1259.68 1055.94 1255.3 1073.47 1250.72 1090.93C1245.5 1108.24 1240.07 1125.48 1229.62 1130.8Z" fill="#E4ECF2"/>
<path d="M835.031 961.963L826.126 959.452L828.639 950.557C829.785 946.52 827.419 942.321 823.378 941.176L815.855 939.062C811.814 937.917 807.611 940.281 806.465 944.318L803.952 953.214L795.048 950.703C791.007 949.558 786.804 951.922 785.658 955.959L783.542 963.46C782.396 967.497 784.762 971.695 788.803 972.84L797.707 975.35L795.195 984.246C794.048 988.283 796.414 992.481 800.455 993.626L807.979 995.74C812.02 996.885 816.222 994.522 817.368 990.485L819.881 981.589L828.786 984.099C832.827 985.244 837.029 982.881 838.175 978.844L840.291 971.328C841.437 967.306 839.086 963.108 835.031 961.963Z" fill="#E4ECF2"/>
<path d="M651.321 914.061L622.872 884.893C618.009 879.917 609.574 882.06 607.693 888.754L596.643 927.947C594.748 934.641 600.831 940.865 607.576 939.162L647.074 929.136C653.819 927.404 656.185 919.037 651.321 914.061Z" fill="#E4ECF2"/>
<path d="M1037.25 1019.79C1038.85 1014.11 1035.55 1008.22 1029.86 1006.62C1028.63 1006.27 1027.38 1006.16 1026.16 1006.25L1025.73 1000.53C1025.31 994.758 1018.78 991.617 1013.99 994.876L988.511 1012.23L978.416 1014.8C974.522 1015.78 972.157 1019.77 973.141 1023.65C974.096 1027.42 977.887 1029.75 981.664 1028.98L982.487 1039.9C982.781 1043.89 986.307 1046.91 990.304 1046.62C994.301 1046.33 997.328 1042.8 997.034 1038.81L996.49 1031.5L1017.5 1041.62C1022.72 1044.13 1028.7 1040.04 1028.27 1034.28L1027.76 1027.51C1032.12 1027.2 1036 1024.22 1037.25 1019.79Z" fill="#E4ECF2"/>
<path d="M1205.24 1056C1191.07 1052.01 1177.14 1057.53 1174.1 1068.3C1173.02 1072.16 1173.47 1076.17 1175.16 1079.91C1174.38 1080.43 1173.72 1081.15 1173.27 1082.04L1169.96 1088.47C1167.45 1093.36 1172.59 1098.63 1177.54 1096.24L1184.05 1093.1C1184.86 1092.71 1185.51 1092.16 1186.02 1091.53C1188.49 1092.99 1191.24 1094.2 1194.23 1095.03C1208.4 1099.03 1222.33 1093.51 1225.37 1082.73C1228.41 1071.96 1219.41 1059.98 1205.24 1056Z" fill="#E4ECF2"/>
<path d="M1476.88 1084.46C1468.69 1068.48 1442.27 1060.15 1415.76 1052.17C1388.99 1045.14 1362.1 1038.47 1346.77 1047.82C1330.77 1056 1322.44 1082.39 1314.45 1108.88C1307.41 1135.62 1300.74 1162.49 1310.1 1177.8C1318.28 1193.78 1344.7 1202.1 1371.21 1210.09C1397.98 1217.12 1424.88 1223.79 1440.2 1214.44C1456.2 1206.26 1464.54 1179.87 1472.53 1153.38C1479.57 1126.64 1486.25 1099.79 1476.88 1084.46ZM1424.01 1185.55C1413.99 1191.67 1396.44 1187.29 1378.96 1182.71C1361.65 1177.5 1344.39 1172.07 1339.05 1161.63C1332.92 1151.62 1337.3 1134.1 1341.88 1116.63C1347.1 1099.33 1352.54 1082.1 1362.98 1076.76C1373 1070.64 1390.55 1075.01 1408.04 1079.59C1425.35 1084.8 1442.6 1090.23 1447.95 1100.67C1454.07 1110.68 1449.69 1128.21 1445.11 1145.68C1439.89 1162.97 1434.46 1180.2 1424.01 1185.55Z" fill="#E4ECF2"/>
<path d="M25.6942 1065.63C17.5094 1049.65 -8.91103 1041.32 -35.4196 1033.34C-62.1928 1026.31 -89.0834 1019.64 -104.41 1028.99C-120.412 1037.17 -128.743 1063.56 -136.737 1090.04C-143.776 1116.79 -150.447 1143.65 -141.087 1158.96C-132.902 1174.95 -106.482 1183.27 -79.9729 1191.26C-53.1998 1198.29 -26.3091 1204.95 -10.9829 1195.6C5.01923 1187.43 13.3509 1161.03 21.3447 1134.55C28.3832 1107.81 35.0692 1080.96 25.6942 1065.63ZM-27.1908 1166.7C-37.2123 1172.82 -54.7574 1168.45 -72.2437 1163.87C-89.5537 1158.66 -106.805 1153.22 -112.154 1142.79C-118.281 1132.78 -113.902 1115.25 -109.318 1097.78C-104.101 1080.49 -98.6641 1063.25 -88.2165 1057.91C-78.1949 1051.79 -60.6498 1056.16 -43.1636 1060.74C-25.8536 1065.95 -8.60243 1071.39 -3.25368 1081.82C2.87386 1091.83 -1.50505 1109.36 -6.08969 1126.83C-11.2915 1144.12 -16.7284 1161.36 -27.1908 1166.7Z" fill="#E4ECF2"/>
<path d="M220.087 1120.35C211.902 1104.37 185.482 1096.04 158.973 1088.06C132.2 1081.03 105.309 1074.36 89.9829 1083.71C73.9808 1091.89 65.6491 1118.28 57.6553 1144.77C50.6168 1171.51 43.9455 1198.37 53.3058 1213.69C61.4906 1229.67 87.911 1237.99 114.42 1245.98C141.193 1253.01 168.083 1259.68 183.41 1250.32C199.412 1242.15 207.743 1215.75 215.737 1189.27C222.776 1162.53 229.462 1135.68 220.087 1120.35ZM167.202 1221.42C157.18 1227.54 139.635 1223.17 122.149 1218.59C104.839 1213.38 87.5878 1207.95 82.239 1197.51C76.1115 1187.5 80.4904 1169.97 85.075 1152.5C90.2915 1135.21 95.7285 1117.98 106.176 1112.63C116.198 1106.51 133.743 1110.89 151.229 1115.47C168.539 1120.68 185.79 1126.11 191.139 1136.55C197.266 1146.56 192.887 1164.08 188.303 1181.55C183.101 1198.86 177.664 1216.08 167.202 1221.42Z" fill="#E4ECF2"/>
<path d="M175.313 910.248C167.128 894.262 140.708 885.939 114.199 877.953C87.4263 870.922 60.5357 864.258 45.2095 873.608C29.2073 881.785 20.8756 908.178 12.8819 934.66C5.84331 961.406 -0.827907 988.269 8.53239 1003.58C16.7171 1019.57 43.1376 1027.89 69.6462 1035.87C96.4193 1042.91 123.31 1049.57 138.636 1040.22C154.638 1032.04 162.97 1005.65 170.964 979.168C178.002 952.422 184.688 925.573 175.313 910.248ZM122.428 1011.32C112.407 1017.44 94.8617 1013.06 77.3754 1008.48C60.0655 1003.27 42.8143 997.84 37.4656 987.403C31.338 977.391 35.7169 959.864 40.3016 942.396C45.518 925.103 50.955 907.87 61.4027 902.527C71.4242 896.405 88.9693 900.78 106.456 905.36C123.765 910.571 141.017 916.002 146.365 926.439C152.493 936.451 148.114 953.978 143.529 971.446C138.328 988.753 132.876 1005.99 122.428 1011.32Z" fill="#E4ECF2"/>
<path d="M363.166 963.137C354.981 947.151 328.561 938.828 302.052 930.842C275.279 923.811 248.388 917.146 233.062 926.497C217.06 934.674 208.728 961.067 200.734 987.549C193.696 1014.29 187.025 1041.16 196.385 1056.47C204.57 1072.45 230.99 1080.78 257.499 1088.76C284.272 1095.79 311.162 1102.46 326.489 1093.11C342.491 1084.93 350.823 1058.54 358.816 1032.06C365.855 1005.31 372.541 978.462 363.166 963.137ZM310.296 1064.2C300.274 1070.33 282.729 1065.95 265.243 1061.37C247.933 1056.16 230.682 1050.73 225.333 1040.29C219.205 1030.28 223.584 1012.75 228.169 995.285C233.385 977.992 238.822 960.759 249.27 955.415C259.291 949.294 276.837 953.669 294.323 958.249C311.633 963.46 328.884 968.891 334.233 979.328C340.36 989.34 335.981 1006.87 331.397 1024.34C326.18 1041.64 320.743 1058.88 310.296 1064.2Z" fill="#E4ECF2"/>
<path d="M555.954 1017.42C547.77 1001.44 521.349 993.113 494.841 985.127C468.068 978.096 441.177 971.432 425.851 980.782C409.849 988.959 401.517 1015.35 393.524 1041.83C386.485 1068.58 379.814 1095.44 389.174 1110.75C397.359 1126.74 423.779 1135.06 450.288 1143.05C477.061 1150.08 503.951 1156.74 519.277 1147.39C535.279 1139.22 543.611 1112.82 551.605 1086.34C558.643 1059.6 565.329 1032.73 555.954 1017.42ZM503.07 1118.49C493.048 1124.61 475.503 1120.24 458.017 1115.66C440.707 1110.45 423.456 1105.01 418.107 1094.58C411.98 1084.57 416.358 1067.04 420.943 1049.57C426.16 1032.28 431.596 1015.04 442.044 1009.7C452.066 1003.58 469.611 1007.95 487.097 1012.53C504.407 1017.75 521.658 1023.18 527.007 1033.61C533.134 1043.62 528.755 1061.15 524.171 1078.62C518.969 1095.91 513.532 1113.15 503.07 1118.49Z" fill="#E4ECF2"/>
<path d="M750.348 1072.15C742.163 1056.16 715.742 1047.84 689.234 1039.85C662.461 1032.82 635.57 1026.16 620.244 1035.51C604.242 1043.68 595.91 1070.08 587.916 1096.56C580.878 1123.31 574.206 1150.17 583.567 1165.48C591.751 1181.47 618.172 1189.79 644.68 1197.77C671.454 1204.81 698.344 1211.47 713.67 1202.12C729.673 1193.94 738.004 1167.55 745.998 1141.07C753.037 1114.32 759.723 1087.47 750.348 1072.15ZM697.463 1173.22C687.441 1179.34 669.896 1174.96 652.41 1170.38C635.1 1165.17 617.849 1159.74 612.5 1149.3C606.372 1139.29 610.751 1121.76 615.336 1104.3C620.552 1087 625.989 1069.77 636.437 1064.43C646.458 1058.3 664.004 1062.68 681.49 1067.26C698.8 1072.47 716.051 1077.9 721.4 1088.34C727.527 1098.35 723.148 1115.88 718.564 1133.35C713.362 1150.64 707.91 1167.87 697.463 1173.22Z" fill="#E4ECF2"/>
<path d="M302.888 1004.37L293.983 1001.86L296.496 992.968C297.642 988.931 295.277 984.733 291.236 983.588L283.712 981.474C279.671 980.329 275.469 982.692 274.322 986.729L271.81 995.625L262.905 993.115C258.864 991.97 254.662 994.333 253.515 998.37L251.399 1005.89C250.253 1009.92 252.619 1014.12 256.66 1015.27L265.565 1017.78L263.052 1026.67C261.906 1030.71 264.272 1034.91 268.313 1036.05L275.836 1038.17C279.877 1039.31 284.08 1036.95 285.226 1032.91L287.738 1024.01L296.643 1026.52C300.684 1027.67 304.887 1025.31 306.033 1021.27L308.149 1013.75C309.295 1009.7 306.929 1005.5 302.888 1004.37Z" fill="#E4ECF2"/>
<path d="M119.18 956.46L90.732 927.292C85.8682 922.316 77.4336 924.459 75.5527 931.153L64.5025 970.347C62.6069 977.041 68.6904 983.265 75.4351 981.562L114.934 971.536C121.678 969.818 124.03 961.451 119.18 956.46Z" fill="#E4ECF2"/>
<path d="M505.112 1062.19C506.714 1056.51 503.407 1050.62 497.721 1049.02C496.486 1048.67 495.237 1048.57 494.018 1048.66L493.591 1042.93C493.165 1037.16 486.641 1034.02 481.851 1037.28L456.371 1054.63L446.276 1057.2C442.382 1058.18 440.016 1062.18 441 1066.05C441.956 1069.83 445.747 1072.16 449.523 1071.38L450.346 1082.3C450.64 1086.3 454.167 1089.32 458.163 1089.03C462.16 1088.73 465.187 1085.21 464.893 1081.22L464.35 1073.91L485.363 1084.02C490.579 1086.53 496.56 1082.45 496.134 1076.68L495.619 1069.91C499.969 1069.61 503.863 1066.63 505.112 1062.19Z" fill="#E4ECF2"/>
</svg>
