<svg width="18" height="18" viewBox="0 0 18 18" fill="none" xmlns="http://www.w3.org/2000/svg">
<rect x="1" y="2.59961" width="16" height="14.4" rx="3" stroke="#EF8532" stroke-width="1.6" stroke-linecap="round" stroke-linejoin="round"/>
<path d="M5.4 1V4.2" stroke="#EF8532" stroke-width="1.6" stroke-linecap="round" stroke-linejoin="round"/>
<path d="M12.5992 1V4.2" stroke="#EF8532" stroke-width="1.6" stroke-linecap="round" stroke-linejoin="round"/>
<path fill-rule="evenodd" clip-rule="evenodd" d="M9.00078 9.80039C9.66352 9.80039 10.2008 9.26313 10.2008 8.60039C10.2008 7.93765 9.66352 7.40039 9.00078 7.40039C8.33804 7.40039 7.80078 7.93765 7.80078 8.60039C7.80078 9.26313 8.33804 9.80039 9.00078 9.80039Z" fill="#EF8532"/>
<path fill-rule="evenodd" clip-rule="evenodd" d="M13.3992 9.80039C14.062 9.80039 14.5992 9.26313 14.5992 8.60039C14.5992 7.93765 14.062 7.40039 13.3992 7.40039C12.7365 7.40039 12.1992 7.93765 12.1992 8.60039C12.1992 9.26313 12.7365 9.80039 13.3992 9.80039Z" fill="#EF8532"/>
<path fill-rule="evenodd" clip-rule="evenodd" d="M4.59844 14.1998C5.26118 14.1998 5.79844 13.6625 5.79844 12.9998C5.79844 12.3371 5.26118 11.7998 4.59844 11.7998C3.9357 11.7998 3.39844 12.3371 3.39844 12.9998C3.39844 13.6625 3.9357 14.1998 4.59844 14.1998Z" fill="#EF8532"/>
<path fill-rule="evenodd" clip-rule="evenodd" d="M9.00078 14.1998C9.66352 14.1998 10.2008 13.6625 10.2008 12.9998C10.2008 12.3371 9.66352 11.7998 9.00078 11.7998C8.33804 11.7998 7.80078 12.3371 7.80078 12.9998C7.80078 13.6625 8.33804 14.1998 9.00078 14.1998Z" fill="#EF8532"/>
</svg>
