<svg xmlns="http://www.w3.org/2000/svg" width="15" height="11" viewBox="0 0 15 11">
  <g fill="none" fill-rule="evenodd">
    <path fill="#d3d3d3" fill-rule="nonzero" d="M7.5,-3.19744231e-14 C2.66100656,5.04065818e-14 -1.13686838e-13,4.52893066 -1.13686838e-13,5.5 C7.57306469e-29,6.46374512 2.63376446,11 7.5,11 C12.3662355,11 15,6.50158691 15,5.5 C15,4.49853516 12.3389934,-1.13686838e-13 7.5,-3.19744231e-14 Z"/>
    <path fill="#FFFFFF" d="M7.5,9 C5.56694239,9 4,7.43305761 4,5.5 C4,3.56694239 5.56694239,2 7.5,2 C9.43305761,2 11,3.56694239 11,5.5 C11,7.43305761 9.43305761,9 7.5,9 Z"/>
    <circle cx="7.5" cy="5.5" r="1.5" fill="#d3d3d3" fill-rule="nonzero"/>
  </g>
</svg>