<svg width="167" height="48" viewBox="0 0 167 48" fill="none" xmlns="http://www.w3.org/2000/svg">
<path d="M0 8C0 3.58172 3.58172 0 8 0H159C163.418 0 167 3.58172 167 8V40C167 44.4183 163.418 48 159 48H8C3.58172 48 0 44.4183 0 40V8Z" fill="#EFF1F5"/>
<path d="M39.7561 28.0057C42.4648 26.3113 44.5184 25.0202 44.6954 24.9199C45.2616 24.5769 45.8463 23.6689 44.6954 22.9637C44.3237 22.742 42.323 21.4911 39.7561 19.8779L36.1975 23.9719L39.7561 28.0057Z" fill="#FFD900"/>
<path d="M36.1977 23.9717L24.8669 36.9809C25.1329 37.0211 25.4331 36.9408 25.7872 36.7191C26.5304 36.2557 34.4092 31.3541 39.7562 28.0065L36.1977 23.9717Z" fill="#F43249"/>
<path d="M36.1985 23.9713L39.757 19.8974C39.757 19.8974 26.5849 11.7084 25.788 11.2249C25.4877 11.0222 25.1513 10.9621 24.8501 11.0222L36.1985 23.9713Z" fill="#00EE76"/>
<path d="M36.1981 23.9705L24.8498 11.0215C24.3892 11.1428 24 11.6063 24 12.5543C24 14.0671 24 34.1959 24 35.4469C24 36.3147 24.3012 36.9396 24.8674 36.9998L36.1981 23.9705Z" fill="#00D3FF"/>
<path d="M56.1357 14.4828C56.1148 14.8214 56.0754 15.0951 56.0176 15.3039C55.9624 15.5126 55.8692 15.6934 55.7379 15.8462V15.892H58.4954V11.6186H56.3209L56.1357 14.4828ZM55.0958 16.5106V17.599H54.438V15.892H54.8595C55.0564 15.7902 55.2009 15.6234 55.2928 15.3917C55.3873 15.1575 55.4464 14.8494 55.47 14.4676L55.6867 11H59.2044V15.892H59.9135V17.599H59.2556V16.5106H55.0958ZM61.4401 15.5903C61.6581 15.8576 61.968 15.9913 62.3698 15.9913C62.7716 15.9913 63.0815 15.8576 63.2995 15.5903C63.5174 15.3204 63.6264 14.9411 63.6264 14.4523C63.6264 13.9635 63.5174 13.5854 63.2995 13.318C63.0815 13.0482 62.7716 12.9133 62.3698 12.9133C61.968 12.9133 61.6581 13.0482 61.4401 13.318C61.2222 13.5854 61.1132 13.9635 61.1132 14.4523C61.1132 14.9411 61.2222 15.3204 61.4401 15.5903ZM63.7997 16.0142C63.4505 16.3935 62.9738 16.5832 62.3698 16.5832C61.7658 16.5832 61.2878 16.3935 60.9359 16.0142C60.5867 15.6323 60.412 15.1117 60.412 14.4523C60.412 13.7903 60.5867 13.2697 60.9359 12.8904C61.2852 12.511 61.7632 12.3213 62.3698 12.3213C62.9764 12.3213 63.4544 12.511 63.8037 12.8904C64.153 13.2697 64.3276 13.7903 64.3276 14.4523C64.3276 15.1117 64.1517 15.6323 63.7997 16.0142ZM68.7418 13.6541H68.0561C67.9987 13.4377 67.8737 13.2608 67.682 13.1233C67.493 12.9833 67.2527 12.9133 66.9612 12.9133C66.5804 12.9133 66.2771 13.0507 66.0512 13.3257C65.828 13.6006 65.7164 13.9711 65.7164 14.437C65.7164 14.9105 65.8293 15.2886 66.0552 15.5712C66.281 15.8512 66.583 15.9913 66.9612 15.9913C67.2474 15.9913 67.4851 15.9289 67.6742 15.8041C67.8661 15.6794 67.9933 15.5012 68.0561 15.2695H68.7418C68.6786 15.659 68.4908 15.976 68.1785 16.2204C67.8661 16.4623 67.4615 16.5832 66.9651 16.5832C66.369 16.5832 65.8949 16.3897 65.5431 16.0028C65.1911 15.6132 65.0152 15.0913 65.0152 14.437C65.0152 13.7954 65.1911 13.2824 65.5431 12.898C65.8949 12.5136 66.3677 12.3213 66.9612 12.3213C67.4575 12.3213 67.862 12.4473 68.1744 12.6994C68.4895 12.9514 68.6786 13.2697 68.7418 13.6541ZM72.4547 12.3939V12.9438H71.076V16.5106H70.3984V12.9438H69.0197V12.3939H72.4547ZM73.5675 18C73.46 18 73.3591 17.9924 73.2646 17.9771V17.4157C73.3327 17.4285 73.4273 17.4348 73.5478 17.4348C73.745 17.4348 73.9014 17.3839 74.0166 17.2821C74.135 17.1802 74.2385 17.0058 74.3281 16.7589L74.4066 16.5145L72.8352 12.3939H73.5675L74.7337 15.7812H74.7969L75.9587 12.3939H76.6798L75.0215 16.7627C74.84 17.2388 74.6472 17.5634 74.4424 17.7365C74.2376 17.9122 73.9458 18 73.5675 18ZM80.1762 16.5106V12.9438H78.0961V16.5106H77.4184V12.3939H80.8534V16.5106H80.1762ZM81.9586 16.5106V12.3939H82.6363V14.0971H84.7554V12.3939H85.433V16.5106H84.7554V14.647H82.6363V16.5106H81.9586ZM87.3576 15.5903C87.5754 15.8576 87.8855 15.9913 88.2871 15.9913C88.6892 15.9913 88.9989 15.8576 89.2167 15.5903C89.435 15.3204 89.5439 14.9411 89.5439 14.4523C89.5439 13.9635 89.435 13.5854 89.2167 13.318C88.9989 13.0482 88.6892 12.9133 88.2871 12.9133C87.8855 12.9133 87.5754 13.0482 87.3576 13.318C87.1397 13.5854 87.0308 13.9635 87.0308 14.4523C87.0308 14.9411 87.1397 15.3204 87.3576 15.5903ZM89.7173 16.0142C89.3677 16.3935 88.8913 16.5832 88.2871 16.5832C87.6834 16.5832 87.2052 16.3935 86.8534 16.0142C86.5042 15.6323 86.3294 15.1117 86.3294 14.4523C86.3294 13.7903 86.5042 13.2697 86.8534 12.8904C87.2025 12.511 87.6807 12.3213 88.2871 12.3213C88.894 12.3213 89.3718 12.511 89.7209 12.8904C90.0705 13.2697 90.2448 13.7903 90.2448 14.4523C90.2448 15.1117 90.0691 15.6323 89.7173 16.0142ZM94.8899 12.9438H93.8537V14.1048H94.7797C95.3126 14.1048 95.5792 13.9087 95.5792 13.5167C95.5792 13.3384 95.5214 13.1984 95.4058 13.0966C95.2928 12.9947 95.1207 12.9438 94.8899 12.9438ZM94.8388 14.6547H93.8537V15.9607H94.9688C95.2288 15.9607 95.4255 15.906 95.5595 15.7965C95.6962 15.6845 95.7643 15.5241 95.7643 15.3153C95.7643 15.0887 95.6868 14.922 95.5317 14.8151C95.3798 14.7081 95.1485 14.6547 94.8388 14.6547ZM93.1765 16.5106V12.3939H94.9764C95.3731 12.3939 95.6841 12.4894 95.91 12.6803C96.1359 12.8687 96.2488 13.1246 96.2488 13.4479C96.2488 13.6516 96.1821 13.8374 96.0481 14.0055C95.9167 14.1709 95.7527 14.274 95.5555 14.3148V14.3759C95.8235 14.4115 96.0373 14.5172 96.1978 14.6929C96.3578 14.866 96.438 15.0773 96.438 15.3268C96.438 15.6883 96.3094 15.976 96.0521 16.1899C95.7944 16.4037 95.4385 16.5106 94.9845 16.5106H93.1765Z" fill="#212126"/>
<path d="M65.2614 28.7997C65.2614 30.3503 64.7901 31.5864 63.8475 32.508C62.9049 33.4239 61.6371 33.882 60.044 33.882C58.3132 33.882 56.9461 33.3219 55.9428 32.2017C54.9396 31.0759 54.438 29.5446 54.438 27.6078C54.438 25.6984 54.9423 24.1782 55.9511 23.047C56.9599 21.9103 58.3132 21.3419 60.0109 21.3419C61.389 21.3419 62.5439 21.7061 63.4754 22.4344C64.407 23.1629 64.9693 24.1368 65.1622 25.3564H63.0372C62.8222 24.6776 62.4529 24.1561 61.9292 23.7919C61.4111 23.4277 60.7717 23.2456 60.0109 23.2456C58.9691 23.2456 58.1423 23.6347 57.5304 24.4127C56.924 25.1908 56.6208 26.2503 56.6208 27.5912C56.6208 28.9487 56.9295 30.0192 57.5469 30.8028C58.1698 31.5864 59.0132 31.9782 60.0771 31.9782C60.9866 31.9782 61.7252 31.7244 62.293 31.2166C62.8608 30.709 63.153 30.0441 63.1695 29.2218L63.1777 28.9736H60.3086V27.3015H65.2614V28.7997ZM69.2597 31.2664C69.6511 31.785 70.2051 32.0444 70.9217 32.0444C71.6383 32.0444 72.1895 31.785 72.5754 31.2664C72.9668 30.7421 73.1624 30.0054 73.1624 29.0563C73.1624 28.1127 72.9668 27.3787 72.5754 26.8546C72.184 26.3303 71.6327 26.0682 70.9217 26.0682C70.2051 26.0682 69.6511 26.3303 69.2597 26.8546C68.8684 27.3787 68.6726 28.1127 68.6726 29.0563C68.6726 30.0054 68.8684 30.7421 69.2597 31.2664ZM70.9217 33.7661C69.5657 33.7661 68.5017 33.3495 67.7301 32.5162C66.9583 31.6775 66.5725 30.5242 66.5725 29.0563C66.5725 27.5995 66.961 26.4517 67.7383 25.6129C68.5156 24.7686 69.5767 24.3465 70.9217 24.3465C72.2722 24.3465 73.3333 24.7659 74.105 25.6046C74.882 26.4434 75.2708 27.594 75.2708 29.0563C75.2708 30.5242 74.882 31.6775 74.105 32.5162C73.3333 33.3495 72.2722 33.7661 70.9217 33.7661ZM79.071 31.2664C79.4619 31.785 80.0158 32.0444 80.7326 32.0444C81.4495 32.0444 82.0005 31.785 82.3865 31.2664C82.7781 30.7421 82.9735 30.0054 82.9735 29.0563C82.9735 28.1127 82.7781 27.3787 82.3865 26.8546C81.9949 26.3303 81.4438 26.0682 80.7326 26.0682C80.0158 26.0682 79.4619 26.3303 79.071 26.8546C78.6794 27.3787 78.4839 28.1127 78.4839 29.0563C78.4839 30.0054 78.6794 30.7421 79.071 31.2664ZM80.7326 33.7661C79.3765 33.7661 78.3125 33.3495 77.5413 32.5162C76.7694 31.6775 76.3835 30.5242 76.3835 29.0563C76.3835 27.5995 76.7722 26.4517 77.5491 25.6129C78.3266 24.7686 79.3878 24.3465 80.7326 24.3465C82.0831 24.3465 83.1443 24.7659 83.9162 25.6046C84.693 26.4434 85.0818 27.594 85.0818 29.0563C85.0818 30.5242 84.693 31.6775 83.9162 32.5162C83.1443 33.3495 82.0831 33.7661 80.7326 33.7661ZM92.206 31.018C92.6138 30.5103 92.8177 29.8233 92.8177 28.957C92.8177 28.0906 92.6138 27.4036 92.206 26.8959C91.7975 26.3827 91.2387 26.1261 90.5274 26.1261C89.8219 26.1261 89.2701 26.38 88.8736 26.8876C88.482 27.3953 88.2865 28.0851 88.2865 28.957C88.2865 29.8289 88.482 30.5187 88.8736 31.0263C89.2652 31.5284 89.8162 31.7795 90.5274 31.7795C91.2387 31.7795 91.7975 31.5257 92.206 31.018ZM90.5274 37.0273C89.3752 37.0273 88.4382 36.7928 87.7157 36.3238C86.9996 35.8547 86.5995 35.2284 86.5169 34.4449H88.5758C88.6421 34.7594 88.8489 35.0077 89.196 35.1898C89.5488 35.3718 90.0039 35.463 90.5606 35.463C91.2605 35.463 91.8059 35.3057 92.1975 34.9911C92.5891 34.6766 92.7846 34.2352 92.7846 33.6668V31.9534H92.6442C92.3852 32.439 92.0155 32.8114 91.5357 33.0708C91.0623 33.3246 90.5105 33.4515 89.8825 33.4515C88.7466 33.4515 87.8455 33.046 87.1788 32.2348C86.5113 31.4181 86.1783 30.3255 86.1783 28.957C86.1783 27.5664 86.5141 26.4573 87.1865 25.6295C87.8589 24.7963 88.7691 24.3797 89.9157 24.3797C90.5331 24.3797 91.0919 24.5231 91.5936 24.81C92.0952 25.097 92.4706 25.4861 92.7182 25.9772H92.8587V24.5286H94.835V33.6171C94.835 34.6655 94.4462 35.496 93.6694 36.1086C92.8918 36.7211 91.8447 37.0273 90.5274 37.0273ZM96.9319 33.584V21.0273H98.9824V33.584H96.9319ZM104.865 25.9772C104.254 25.9772 103.749 26.1785 103.353 26.5814C102.955 26.9842 102.735 27.5168 102.691 28.1789H106.95C106.927 27.5057 106.729 26.9704 106.354 26.5731C105.98 26.1758 105.483 25.9772 104.865 25.9772ZM106.966 31.0925H108.909C108.716 31.9202 108.261 32.5741 107.545 33.0542C106.833 33.5288 105.949 33.7661 104.891 33.7661C103.562 33.7661 102.517 33.3522 101.757 32.5245C101.002 31.6912 100.624 30.5462 100.624 29.0894C100.624 27.6326 101.005 26.4793 101.765 25.6295C102.526 24.7741 103.562 24.3465 104.874 24.3465C106.164 24.3465 107.173 24.7521 107.9 25.5633C108.633 26.369 109 27.4864 109 28.9156V29.5778H102.683V29.6854C102.711 30.4414 102.925 31.0401 103.328 31.4815C103.736 31.9175 104.276 32.1354 104.949 32.1354C105.984 32.1354 106.657 31.7878 106.966 31.0925ZM114.772 21.6398H119.584C120.775 21.6398 121.74 22.0123 122.479 22.7573C123.222 23.5023 123.595 24.4762 123.595 25.6792C123.595 26.8601 123.212 27.8202 122.446 28.5596C121.685 29.2991 120.701 29.6688 119.493 29.6688H116.905V33.584H114.772V21.6398ZM116.905 23.4277V27.8975H119.014C119.781 27.8975 120.373 27.7044 120.792 27.3181C121.216 26.9318 121.428 26.3855 121.428 25.6792C121.428 24.9507 121.219 24.3934 120.8 24.0071C120.387 23.6208 119.794 23.4277 119.022 23.4277H116.905ZM125.311 33.584V21.0273H127.361V33.584H125.311ZM132.542 32.1189C133.16 32.1189 133.675 31.9423 134.088 31.5892C134.502 31.2305 134.708 30.789 134.708 30.2648V29.5446L132.667 29.6771C131.542 29.7488 130.98 30.1572 130.98 30.9021C130.98 31.2774 131.123 31.5753 131.409 31.7961C131.701 32.0113 132.08 32.1189 132.542 32.1189ZM131.938 33.733C131.056 33.733 130.337 33.4847 129.781 32.988C129.224 32.4914 128.945 31.8347 128.945 31.018C128.945 30.2013 129.24 29.5612 129.83 29.0977C130.426 28.6342 131.274 28.3693 132.377 28.303L134.708 28.1623V27.4008C134.708 26.9539 134.562 26.6117 134.27 26.3745C133.978 26.1371 133.556 26.0186 133.005 26.0186C132.531 26.0186 132.14 26.1013 131.831 26.2668C131.523 26.4269 131.321 26.6586 131.228 26.9621H129.292C129.376 26.162 129.761 25.5274 130.45 25.0584C131.145 24.5838 132.029 24.3465 133.105 24.3465C134.262 24.3465 135.155 24.6142 135.784 25.1494C136.417 25.6847 136.734 26.4351 136.734 27.4008V33.584H134.758V32.3424H134.617C134.364 32.7783 134 33.1205 133.526 33.3688C133.057 33.6116 132.528 33.733 131.938 33.733ZM139.41 36.87C138.985 36.87 138.715 36.859 138.6 36.837V35.1567C138.704 35.1787 138.892 35.1898 139.161 35.1898C139.597 35.1898 139.942 35.0987 140.195 34.9166C140.454 34.7345 140.65 34.4365 140.782 34.0227L140.89 33.6254L137.657 24.5286H139.906L142.023 31.5974H142.163L144.272 24.5286H146.438L143.172 33.8737C142.792 34.9939 142.323 35.772 141.766 36.2079C141.215 36.6493 140.429 36.87 139.41 36.87Z" fill="#212126"/>
</svg>
