<svg width="140" height="42" viewBox="0 0 140 42" fill="none" xmlns="http://www.w3.org/2000/svg">
<rect width="140" height="42" rx="5" fill="white"/>
<path d="M134.815 0.84C135.97 0.84 137.078 1.30462 137.895 2.13166C138.711 2.95869 139.17 4.0804 139.17 5.25V36.75C139.17 37.9196 138.711 39.0413 137.895 39.8683C137.078 40.6954 135.97 41.16 134.815 41.16H5.18518C4.03002 41.16 2.92217 40.6954 2.10534 39.8683C1.28852 39.0413 0.82963 37.9196 0.82963 36.75V5.25C0.82963 4.0804 1.28852 2.95869 2.10534 2.13166C2.92217 1.30462 4.03002 0.84 5.18518 0.84H134.815ZM134.815 0H5.18518C3.80999 0 2.49112 0.553123 1.51871 1.53769C0.546295 2.52226 0 3.85761 0 5.25V36.75C0 38.1424 0.546295 39.4777 1.51871 40.4623C2.49112 41.4469 3.80999 42 5.18518 42H134.815C136.19 42 137.509 41.4469 138.481 40.4623C139.454 39.4777 140 38.1424 140 36.75V5.25C140 3.85761 139.454 2.52226 138.481 1.53769C137.509 0.553123 136.19 0 134.815 0Z" fill="#131313"/>
<path d="M70.6637 22.8376C69.7929 22.8417 68.9428 23.107 68.2207 23.5999C67.4987 24.0927 66.937 24.7911 66.6066 25.6069C66.2762 26.4226 66.1918 27.3192 66.3642 28.1835C66.5366 29.0477 66.958 29.8409 67.5752 30.4629C68.1924 31.0849 68.9778 31.5078 69.8322 31.6783C70.6865 31.8488 71.5717 31.7592 72.3758 31.4209C73.1799 31.0825 73.8671 30.5105 74.3505 29.7771C74.8338 29.0437 75.0918 28.1818 75.0918 27.3001C75.1003 26.7099 74.9914 26.1241 74.7716 25.5774C74.5517 25.0307 74.2255 24.5345 73.8124 24.1181C73.3992 23.7017 72.9075 23.3738 72.3666 23.1538C71.8256 22.9338 71.2465 22.8263 70.6637 22.8376ZM70.6637 30.0091C70.1281 30.047 69.5937 29.9209 69.1299 29.6473C68.666 29.3736 68.2942 28.9649 68.0628 28.4745C67.8314 27.984 67.751 27.4344 67.8322 26.8971C67.9134 26.3597 68.1524 25.8596 68.518 25.4616C68.8837 25.0636 69.3591 24.7862 69.8825 24.6654C70.406 24.5446 70.9532 24.5861 71.453 24.7844C71.9529 24.9827 72.3823 25.3286 72.6854 25.7773C72.9885 26.2259 73.1513 26.7565 73.1526 27.3001C73.1693 27.6445 73.1177 27.9888 73.0009 28.3127C72.8841 28.6367 72.7044 28.9336 72.4724 29.1861C72.2404 29.4386 71.9609 29.6415 71.6502 29.7828C71.3396 29.9242 71.0041 30.0011 70.6637 30.0091ZM61.0089 22.8376C60.1376 22.8397 59.2865 23.1032 58.5631 23.5948C57.8396 24.0864 57.2763 24.784 56.9443 25.5996C56.6123 26.4152 56.5265 27.3122 56.6978 28.1771C56.869 29.0421 57.2896 29.8362 57.9064 30.4593C58.5232 31.0823 59.3085 31.5063 60.1632 31.6776C61.0179 31.8489 61.9035 31.76 62.7082 31.4219C63.513 31.0838 64.2007 30.5119 64.6846 29.7782C65.1684 29.0446 65.4266 28.1822 65.4266 27.3001C65.4351 26.7099 65.3262 26.1241 65.1064 25.5774C64.8866 25.0307 64.5604 24.5345 64.1472 24.1181C63.734 23.7017 63.2423 23.3738 62.7014 23.1538C62.1604 22.9338 61.5813 22.8263 60.9985 22.8376H61.0089ZM61.0089 30.0091C60.473 30.0492 59.9377 29.925 59.4726 29.6527C59.0075 29.3804 58.6341 28.9726 58.4011 28.4825C58.168 27.9924 58.0861 27.4425 58.166 26.9046C58.2459 26.3667 58.4839 25.8655 58.849 25.4665C59.2141 25.0674 59.6895 24.7889 60.2131 24.6672C60.7367 24.5454 61.2845 24.5861 61.7849 24.784C62.2854 24.9818 62.7154 25.3276 63.0191 25.7764C63.3227 26.2252 63.4859 26.7561 63.4874 27.3001C63.5041 27.6445 63.4525 27.9888 63.3357 28.3127C63.2189 28.6367 63.0392 28.9336 62.8072 29.1861C62.5753 29.4386 62.2957 29.6415 61.9851 29.7828C61.6744 29.9242 61.339 30.0011 60.9985 30.0091H61.0089ZM49.5081 24.2131V26.1031H53.9881C53.9179 26.9933 53.5524 27.8333 52.9511 28.4866C52.5029 28.9488 51.964 29.311 51.3693 29.5497C50.7745 29.7884 50.137 29.8984 49.4977 29.8726C48.1775 29.8726 46.9114 29.3416 45.9779 28.3964C45.0444 27.4512 44.52 26.1693 44.52 24.8326C44.52 23.4959 45.0444 22.214 45.9779 21.2688C46.9114 20.3236 48.1775 19.7926 49.4977 19.7926C50.7606 19.7717 51.9802 20.2589 52.8889 21.1471L54.2059 19.8136C53.5925 19.1847 52.8606 18.6868 52.0536 18.3496C51.2467 18.0123 50.3811 17.8424 49.5081 17.8501C48.5862 17.8138 47.6665 17.9663 46.8042 18.2984C45.9418 18.6306 45.1546 19.1356 44.4896 19.7832C43.8247 20.4307 43.2957 21.2076 42.9343 22.0671C42.573 22.9266 42.3867 23.8512 42.3867 24.7853C42.3867 25.7195 42.573 26.6441 42.9343 27.5036C43.2957 28.3631 43.8247 29.14 44.4896 29.7875C45.1546 30.4351 45.9418 30.9401 46.8042 31.2723C47.6665 31.6044 48.5862 31.7569 49.5081 31.7206C50.3958 31.7612 51.2817 31.6089 52.1063 31.2738C52.931 30.9387 53.6752 30.4287 54.2888 29.7781C55.3753 28.5695 55.9554 26.9806 55.9066 25.3471C55.91 24.9491 55.8752 24.5518 55.8029 24.1606L49.5081 24.2131ZM96.4963 25.6831C96.2258 24.8775 95.7201 24.174 95.046 23.6659C94.3719 23.1578 93.5613 22.8689 92.7215 22.8376C92.1542 22.8365 91.5927 22.9532 91.0718 23.1805C90.5508 23.4078 90.0814 23.7408 89.6927 24.1591C89.3039 24.5773 89.0039 25.0718 88.8114 25.6121C88.6189 26.1524 88.5378 26.7269 88.5733 27.3001C88.5607 27.887 88.665 28.4704 88.8801 29.0155C89.0952 29.5606 89.4166 30.0562 89.8251 30.4728C90.2335 30.8893 90.7208 31.2182 91.2576 31.4398C91.7945 31.6614 92.3699 31.7712 92.9496 31.7626C93.675 31.7666 94.3901 31.5883 95.0307 31.2438C95.6714 30.8993 96.2177 30.3993 96.6207 29.7886L95.117 28.7386C94.8926 29.1174 94.5748 29.4308 94.1949 29.6479C93.815 29.8651 93.3859 29.9787 92.9496 29.9776C92.5004 29.9949 92.0564 29.875 91.6754 29.6335C91.2944 29.3919 90.994 29.0398 90.8133 28.6231L96.714 26.1556L96.4963 25.6831ZM90.4814 27.1741C90.4604 26.8493 90.5036 26.5236 90.6085 26.2159C90.7134 25.9083 90.8778 25.6249 91.0922 25.3824C91.3066 25.1399 91.5667 24.9431 91.8571 24.8036C92.1475 24.6642 92.4625 24.5848 92.7837 24.5701C93.1182 24.5478 93.4518 24.6254 93.7431 24.7934C94.0344 24.9614 94.2705 25.2124 94.4222 25.5151L90.4814 27.1741ZM85.6903 31.5001H87.6296V18.3751H85.6903V31.5001ZM82.517 23.8351H82.4444C82.1521 23.5042 81.7941 23.2397 81.3938 23.0587C80.9934 22.8778 80.5599 22.7845 80.1214 22.7851C78.9882 22.8407 77.9195 23.3357 77.1368 24.1675C76.3542 24.9993 75.9176 26.104 75.9176 27.2528C75.9176 28.4017 76.3542 29.5064 77.1368 30.3382C77.9195 31.17 78.9882 31.665 80.1214 31.7206C80.5609 31.7281 80.9966 31.6379 81.398 31.4565C81.7993 31.2751 82.1565 31.0068 82.4444 30.6706H82.5066V31.3111C82.5066 33.0226 81.6044 33.9361 80.1526 33.9361C79.669 33.9246 79.1998 33.7677 78.8046 33.4854C78.4093 33.2031 78.1061 32.808 77.9333 32.3506L76.2429 33.0646C76.5611 33.8483 77.1033 34.5178 77.7999 34.9874C78.4965 35.457 79.3157 35.7052 80.1526 35.7001C82.4237 35.7001 84.3007 34.3456 84.3007 31.0486V23.1001H82.517V23.8351ZM80.2977 30.0091C79.6288 29.9494 79.0062 29.6382 78.5527 29.1367C78.0992 28.6353 77.8476 27.98 77.8476 27.3001C77.8476 26.6202 78.0992 25.9649 78.5527 25.4635C79.0062 24.962 79.6288 24.6508 80.2977 24.5911C80.6294 24.6083 80.9543 24.6926 81.2533 24.8389C81.5523 24.9853 81.8194 25.1907 82.0388 25.4432C82.2581 25.6956 82.4254 25.99 82.5307 26.3089C82.636 26.6278 82.6772 26.9648 82.6518 27.3001C82.6801 27.6368 82.6407 27.9759 82.5358 28.2967C82.431 28.6176 82.263 28.9135 82.042 29.1668C81.821 29.42 81.5515 29.6252 81.2499 29.77C80.9484 29.9148 80.6209 29.9961 80.2874 30.0091H80.2977ZM105.581 18.3751H100.945V31.5001H102.884V26.5231H105.591C106.144 26.5633 106.699 26.4878 107.221 26.3013C107.744 26.1147 108.223 25.8212 108.629 25.439C109.034 25.0567 109.358 24.594 109.579 24.0796C109.8 23.5652 109.914 23.0101 109.914 22.4491C109.914 21.8881 109.8 21.333 109.579 20.8186C109.358 20.3042 109.034 19.8415 108.629 19.4592C108.223 19.077 107.744 18.7835 107.221 18.5969C106.699 18.4104 106.144 18.3349 105.591 18.3751H105.581ZM105.581 24.6751H102.874V20.2021H105.622C106.212 20.2021 106.778 20.4394 107.195 20.8618C107.612 21.2841 107.847 21.857 107.847 22.4543C107.847 23.0517 107.612 23.6246 107.195 24.0469C106.778 24.4693 106.212 24.7066 105.622 24.7066L105.581 24.6751ZM117.538 22.7851C116.832 22.7424 116.129 22.9094 115.515 23.2657C114.902 23.622 114.404 24.152 114.084 24.7906L115.806 25.5151C115.976 25.1984 116.233 24.9384 116.546 24.7669C116.859 24.5954 117.214 24.5197 117.569 24.5491C117.815 24.52 118.064 24.5408 118.303 24.6103C118.541 24.6799 118.763 24.7967 118.956 24.9541C119.149 25.1115 119.309 25.3062 119.427 25.5269C119.545 25.7476 119.618 25.9899 119.643 26.2396V26.3761C119.02 26.0422 118.325 25.8691 117.621 25.8721C115.764 25.8721 113.887 26.9221 113.887 28.8226C113.906 29.2278 114.004 29.6252 114.177 29.9913C114.349 30.3574 114.593 30.6847 114.892 30.9539C115.192 31.2231 115.542 31.4287 115.922 31.5586C116.301 31.6885 116.703 31.74 117.102 31.7101C117.591 31.7456 118.079 31.6474 118.517 31.4257C118.955 31.204 119.326 30.867 119.591 30.4501H119.653V31.5001H121.52V26.4496C121.52 24.1501 119.798 22.8166 117.59 22.8166L117.538 22.7851ZM117.299 29.9776C116.667 29.9776 115.785 29.6521 115.785 28.8646C115.785 27.8146 116.884 27.4681 117.859 27.4681C118.475 27.4527 119.084 27.605 119.622 27.9091C119.557 28.4776 119.292 29.0032 118.874 29.3891C118.457 29.775 117.916 29.9952 117.351 30.0091L117.299 29.9776ZM128.323 23.1001L126.104 28.7911H126.041L123.739 23.1001H121.665L125.118 31.0591L123.148 35.4796H125.17L130.48 23.1001H128.323ZM110.89 31.5001H112.83V18.3751H110.89V31.5001Z" fill="#131313"/>
<path d="M43.6699 14.9836H42.9025V12.8836H43.5559C43.8538 12.564 44.0787 12.1821 44.2149 11.7648C44.3511 11.3475 44.3952 10.905 44.344 10.4686V7.35012H48.4922V12.8731H49.187V14.9731H48.4196V13.6501H43.6699V14.9836ZM45.1114 10.5001C45.1598 11.3471 44.9537 12.189 44.5203 12.9151H47.6314V8.12712H45.1114V10.5001ZM55.3885 12.8311C54.7822 13.4415 53.962 13.7842 53.107 13.7842C52.252 13.7842 51.4318 13.4415 50.8255 12.8311C50.2362 12.1996 49.9079 11.3637 49.9079 10.4949C49.9079 9.62606 50.2362 8.79017 50.8255 8.15862C51.1243 7.85385 51.4798 7.61197 51.8713 7.4469C52.2629 7.28184 52.6828 7.19686 53.107 7.19686C53.5311 7.19686 53.9511 7.28184 54.3426 7.4469C54.7342 7.61197 55.0896 7.85385 55.3885 8.15862C55.9801 8.78897 56.3099 9.62531 56.3099 10.4949C56.3099 11.3644 55.9801 12.2008 55.3885 12.8311ZM51.4166 12.3061C51.8656 12.7588 52.4734 13.013 53.107 13.013C53.7406 13.013 54.3484 12.7588 54.7973 12.3061C55.2404 11.8116 55.4858 11.1678 55.4858 10.5001C55.4858 9.83244 55.2404 9.18865 54.7973 8.69412C54.3484 8.24145 53.7406 7.98729 53.107 7.98729C52.4734 7.98729 51.8656 8.24145 51.4166 8.69412C50.9735 9.18865 50.7281 9.83244 50.7281 10.5001C50.7281 11.1678 50.9735 11.8116 51.4166 12.3061ZM60.3351 13.7866C59.907 13.7952 59.4816 13.716 59.0845 13.5538C58.6874 13.3915 58.3269 13.1496 58.0246 12.8426C57.7223 12.5355 57.4845 12.1697 57.3255 11.7671C57.1666 11.3645 57.0897 10.9336 57.0996 10.5001C57.0897 10.0667 57.1666 9.63571 57.3255 9.23314C57.4845 8.83058 57.7223 8.46475 58.0246 8.15769C58.3269 7.85064 58.6874 7.6087 59.0845 7.44645C59.4816 7.28421 59.907 7.20501 60.3351 7.21362C60.7691 7.20275 61.1998 7.29157 61.5949 7.47343C61.9901 7.65529 62.3394 7.92546 62.6166 8.26362L62.0566 8.80962C61.8518 8.54633 61.5877 8.33651 61.2864 8.19768C60.9851 8.05885 60.6554 7.99505 60.3248 8.01162C60.0064 8.00325 59.6898 8.06034 59.3939 8.17946C59.098 8.29857 58.829 8.47723 58.6033 8.70462C58.1536 9.20211 57.9043 9.85202 57.9043 10.5264C57.9043 11.2007 58.1536 11.8506 58.6033 12.3481C58.829 12.5755 59.098 12.7542 59.3939 12.8733C59.6898 12.9924 60.0064 13.0495 60.3248 13.0411C60.6898 13.0378 61.0495 12.9522 61.3778 12.7906C61.706 12.629 61.9946 12.3953 62.2225 12.1066L62.7825 12.6736C62.5003 13.0203 62.1463 13.2998 61.7455 13.4926C61.3028 13.6956 60.821 13.7961 60.3351 13.7866ZM66.0388 13.6501H65.2403V8.12712H63.4981V7.35012H67.7707V8.12712H66.0388V13.6501ZM73.267 7.35012L70.9129 12.6631C70.8187 12.9774 70.6304 13.2543 70.374 13.4556C70.1177 13.6568 69.8059 13.7725 69.4818 13.7866C69.2674 13.7839 69.0558 13.7374 68.8596 13.6501L69.067 12.9046C69.193 12.9789 69.336 13.0187 69.4818 13.0201C69.6342 13.0318 69.7864 12.9951 69.9173 12.9151C70.0423 12.808 70.1386 12.6708 70.1974 12.5161L70.4255 12.0121L68.3514 7.36062H69.2951L70.8299 10.9726L72.3233 7.35012H73.267ZM74.1692 13.6501V7.35012H78.6699V13.6501H77.8714V8.12712H74.9677V13.6501H74.1692ZM80.0907 13.6501V7.35012H80.8892V10.0486H84.0003V7.35012H84.7988V13.6501H84.0003V10.8046H80.8892V13.6501H80.0907ZM91.3218 12.8311C90.7155 13.4415 89.8953 13.7842 89.0403 13.7842C88.1853 13.7842 87.3651 13.4415 86.7588 12.8311C86.1696 12.1996 85.8413 11.3637 85.8413 10.4949C85.8413 9.62606 86.1696 8.79017 86.7588 8.15862C87.0577 7.85385 87.4131 7.61197 87.8047 7.4469C88.1962 7.28184 88.6162 7.19686 89.0403 7.19686C89.4645 7.19686 89.8844 7.28184 90.276 7.4469C90.6675 7.61197 91.023 7.85385 91.3218 8.15862C91.9134 8.78897 92.2433 9.62531 92.2433 10.4949C92.2433 11.3644 91.9134 12.2008 91.3218 12.8311ZM87.35 12.3061C87.7989 12.7588 88.4067 13.013 89.0403 13.013C89.6739 13.013 90.2817 12.7588 90.7307 12.3061C91.1737 11.8116 91.4192 11.1678 91.4192 10.5001C91.4192 9.83244 91.1737 9.18865 90.7307 8.69412C90.2817 8.24145 89.6739 7.98729 89.0403 7.98729C88.4067 7.98729 87.7989 8.24145 87.35 8.69412C86.9069 9.18865 86.6615 9.83244 86.6615 10.5001C86.6615 11.1678 86.9069 11.8116 87.35 12.3061ZM95.5011 13.6501V7.35012H97.7514C98.2187 7.34119 98.6715 7.51406 99.0166 7.83312C99.1899 7.98539 99.328 8.17435 99.4212 8.38664C99.5144 8.59893 99.5604 8.82936 99.5559 9.06162C99.5607 9.34151 99.4811 9.61624 99.3277 9.84912C99.1755 10.0753 98.9634 10.2536 98.7159 10.3636C99.0167 10.4644 99.2805 10.6547 99.4729 10.9096C99.6723 11.1669 99.7785 11.4856 99.7736 11.8126C99.7789 12.0547 99.7315 12.2949 99.6347 12.5163C99.5379 12.7377 99.3942 12.9348 99.2136 13.0936C98.8526 13.4309 98.3774 13.615 97.8862 13.6081L95.5011 13.6501ZM96.2996 10.0486H97.7514C97.887 10.0544 98.0222 10.0301 98.1476 9.97749C98.273 9.9249 98.3855 9.84526 98.4773 9.74412C98.5692 9.65983 98.6433 9.55767 98.6953 9.44375C98.7472 9.32982 98.776 9.20647 98.7799 9.08104C98.7838 8.95561 98.7626 8.83068 98.7178 8.71369C98.6729 8.5967 98.6053 8.49006 98.5188 8.40012C98.4322 8.30087 98.325 8.22214 98.2049 8.16952C98.0849 8.11689 97.9548 8.09167 97.824 8.09562H96.3411L96.2996 10.0486ZM96.2996 12.8731H97.907C98.0474 12.8779 98.1872 12.8512 98.3163 12.7949C98.4453 12.7387 98.5605 12.6542 98.6536 12.5476C98.8365 12.3556 98.9403 12.1003 98.944 11.8336C98.944 11.5551 98.8348 11.2881 98.6403 11.0912C98.4458 10.8942 98.182 10.7836 97.907 10.7836H96.3307L96.2996 12.8731Z" fill="#131313"/>
<path fill-rule="evenodd" clip-rule="evenodd" d="M53.107 7.30186C52.6965 7.30186 52.2901 7.3841 51.9112 7.54384C51.5326 7.70341 51.189 7.93717 50.9 8.23168C50.3295 8.84362 50.0116 9.65331 50.0116 10.4949C50.0116 11.3363 50.3294 12.1459 50.8998 12.7578C51.4865 13.348 52.2799 13.6792 53.107 13.6792C53.9341 13.6792 54.7276 13.3479 55.3143 12.7577C55.8869 12.147 56.2062 11.337 56.2062 10.4949C56.2062 9.65262 55.8869 8.84252 55.3141 8.23178C55.025 7.93723 54.6814 7.70343 54.3028 7.54384C53.9238 7.3841 53.5174 7.30186 53.107 7.30186ZM51.8315 7.34997C52.2356 7.17958 52.6691 7.09186 53.107 7.09186C53.5448 7.09186 53.9783 7.17958 54.3825 7.34997C54.7867 7.52036 55.1536 7.77005 55.4621 8.08465L55.4637 8.08628C56.0736 8.73614 56.4136 9.59839 56.4136 10.4949C56.4136 11.3914 56.0736 12.2536 55.4636 12.9035L55.4616 12.9056C54.8359 13.5356 53.9894 13.8892 53.107 13.8892C52.2246 13.8892 51.3781 13.5356 50.7524 12.9056L50.7501 12.9033C50.1426 12.2522 49.8042 11.3905 49.8042 10.4949C49.8042 9.59925 50.1427 8.73756 50.7501 8.08652L50.7519 8.08463C51.0603 7.77003 51.4273 7.52036 51.8315 7.34997ZM89.0403 7.30186C88.6299 7.30186 88.2234 7.3841 87.8445 7.54384C87.466 7.7034 87.1224 7.93715 86.8334 8.23162C86.2628 8.84358 85.945 9.65329 85.945 10.4949C85.945 11.3363 86.2627 12.1459 86.8331 12.7578C87.4198 13.348 88.2133 13.6792 89.0403 13.6792C89.8674 13.6792 90.661 13.3479 91.2477 12.7577C91.8203 12.147 92.1396 11.337 92.1396 10.4949C92.1396 9.65263 91.8202 8.84254 91.2474 8.23181C90.9584 7.93725 90.6147 7.70344 90.2361 7.54384C89.8572 7.3841 89.4508 7.30186 89.0403 7.30186ZM87.7648 7.34997C88.169 7.17958 88.6025 7.09186 89.0403 7.09186C89.4781 7.09186 89.9116 7.17958 90.3158 7.34997C90.72 7.52036 91.0869 7.77005 91.3954 8.08465L91.397 8.08628C92.0069 8.73615 92.347 9.59839 92.347 10.4949C92.347 11.3914 92.0069 12.2536 91.397 12.9035L91.3949 12.9056C90.7693 13.5356 89.9227 13.8892 89.0403 13.8892C88.1579 13.8892 87.3114 13.5356 86.6857 12.9056L86.6834 12.9033C86.076 12.2522 85.7376 11.3905 85.7376 10.4949C85.7376 9.59925 86.076 8.73756 86.6835 8.08652L86.6852 8.08463C86.9937 7.77003 87.3606 7.52036 87.7648 7.34997ZM61.552 7.56902C61.1711 7.39373 60.756 7.30811 60.3377 7.31859L60.3331 7.31871C59.9189 7.31037 59.5074 7.38688 59.1233 7.54382C58.7392 7.70077 58.3905 7.9348 58.098 8.23182C57.8056 8.52884 57.5756 8.88271 57.4218 9.27213C57.268 9.66154 57.1937 10.0784 57.2032 10.4977L57.2034 10.5025C57.1938 10.9218 57.268 11.3387 57.4218 11.7281C57.5756 12.1175 57.8056 12.4714 58.098 12.7684C58.3905 13.0655 58.7392 13.2995 59.1233 13.4564C59.5074 13.6134 59.9189 13.69 60.3331 13.6816L60.3351 13.7866L60.3371 13.6816C60.8072 13.6908 61.2735 13.5937 61.7018 13.3974C62.0602 13.2249 62.3798 12.9805 62.6415 12.6793L62.2293 12.262C62.0045 12.5217 61.7305 12.7337 61.4231 12.885C61.0813 13.0534 60.7067 13.1425 60.3266 13.1461C59.9945 13.1547 59.6642 13.0951 59.3555 12.9709C59.0466 12.8465 58.7658 12.66 58.5301 12.4226L58.5267 12.4191C58.0596 11.9022 57.8006 11.227 57.8006 10.5264C57.8006 9.82578 58.0596 9.15058 58.5268 8.63374L58.5301 8.63011C58.7657 8.3927 59.0466 8.20625 59.3555 8.08189C59.6633 7.95801 59.9925 7.89838 60.3235 7.90656C60.6694 7.88986 61.0142 7.95689 61.3294 8.10211C61.611 8.23188 61.8616 8.42072 62.065 8.65565L62.4741 8.25682C62.2177 7.96526 61.9037 7.73086 61.552 7.56902ZM60.3352 13.8916C59.8937 13.9003 59.4551 13.8185 59.0457 13.6512C58.6356 13.4836 58.2633 13.2338 57.9511 12.9167C57.639 12.5996 57.3934 12.2218 57.2292 11.8061C57.0654 11.3911 56.986 10.9469 56.9958 10.5001C56.986 10.0533 57.0654 9.60913 57.2292 9.19416C57.3934 8.77844 57.639 8.40066 57.9511 8.08357C58.2633 7.76647 58.6356 7.51663 59.0457 7.34908C59.4551 7.18183 59.8936 7.10003 60.3349 7.1086C60.7837 7.0977 61.2291 7.18974 61.6378 7.37784C62.0472 7.56627 62.4092 7.84619 62.6964 8.19656L62.7579 8.27161L62.046 8.96571L61.9751 8.87459C61.7806 8.62447 61.5297 8.42513 61.2434 8.29325C60.9572 8.16136 60.644 8.10075 60.3299 8.11649L60.3221 8.11689C60.0178 8.10888 59.715 8.16316 59.4322 8.27703C59.1501 8.39059 58.8936 8.56078 58.6781 8.77733C58.247 9.25522 58.008 9.87908 58.008 10.5264C58.008 11.1737 58.247 11.7975 58.6781 12.2754C58.8936 12.492 59.1501 12.6622 59.4322 12.7757C59.715 12.8896 60.0178 12.9442 60.3221 12.9362L60.3238 12.9361C60.6734 12.933 61.018 12.851 61.3324 12.6962C61.6468 12.5414 61.9232 12.3176 62.1415 12.0411L62.2139 11.9494L62.9225 12.6668L62.8626 12.7404C62.5706 13.0989 62.2045 13.3881 61.79 13.5875L61.7883 13.5883C61.3322 13.7974 60.8358 13.9011 60.3352 13.8916ZM98.9467 7.91066C98.6212 7.60973 98.1941 7.44668 97.7534 7.45511L97.7514 7.45512H95.6048V13.5433L97.8844 13.5031L97.8877 13.5031C98.3523 13.5097 98.8018 13.3355 99.1433 13.0164L99.1456 13.0143C99.3146 12.8657 99.4493 12.6811 99.5399 12.4738C99.6305 12.2666 99.6749 12.0416 99.67 11.8149L99.67 11.8111C99.6744 11.5081 99.5761 11.2128 99.3913 10.9744L99.3905 10.9734C99.2108 10.7352 98.9643 10.5575 98.6833 10.4633L98.4269 10.3774L98.6742 10.2675C98.9038 10.1655 99.1004 10.0002 99.2417 9.7905C99.3832 9.57547 99.4567 9.32185 99.4522 9.06347V9.05957C99.4564 8.84268 99.4135 8.62751 99.3264 8.42928C99.2394 8.23105 99.1105 8.05461 98.9486 7.91242L98.9467 7.91066ZM99.0856 7.75473C98.7213 7.41831 98.2435 7.23595 97.7505 7.24512H95.3974V13.757L97.8848 13.7131L97.8865 13.7131C98.4031 13.72 98.9028 13.5263 99.2828 13.1719C99.4743 13.0031 99.6268 12.7939 99.7295 12.5588C99.8322 12.3239 99.8827 12.0691 99.8774 11.8123L99.8773 11.8142L99.7736 11.8126L99.8773 11.8103L99.8774 11.8123C99.8821 11.4621 99.7683 11.1209 99.5549 10.8453C99.3963 10.6354 99.1922 10.4666 98.9597 10.3512C99.1387 10.2372 99.2934 10.0866 99.4134 9.90826L99.414 9.90739C99.5788 9.65727 99.6644 9.36229 99.6596 9.0617L99.6596 9.06368L99.5559 9.06162L99.6596 9.05977L99.6596 9.0617C99.6641 8.81472 99.6151 8.56974 99.516 8.34399C99.4168 8.11807 99.2699 7.91693 99.0856 7.75473ZM44.2403 7.24512H48.5959V12.7681H49.2907V15.0781H48.3159V13.7551H43.7736V15.0886H42.7988V12.7786H43.5107C43.7832 12.477 43.9897 12.1203 44.1165 11.7318C44.2479 11.3291 44.2904 10.9022 44.241 10.481L44.2403 10.4748V7.24512ZM44.4477 7.45512V10.4625C44.4995 10.9121 44.4537 11.3678 44.3134 11.7977C44.1725 12.2296 43.9396 12.6249 43.6313 12.9557L43.6006 12.9886H43.0062V14.8786H43.5662V13.5451H48.5233V14.8681H49.0833V12.9781H48.3885V7.45512H44.4477ZM63.3944 7.24512H67.8744V8.23212H66.1425V13.7551H65.1366V8.23212H63.3944V7.24512ZM63.6018 7.45512V8.02212H65.344V13.5451H65.9351V8.02212H67.667V7.45512H63.6018ZM72.2542 7.24512H73.4272L71.0102 12.7001C70.9091 13.0325 70.7091 13.3254 70.4376 13.5386C70.1642 13.7531 69.8318 13.8765 69.4863 13.8915L69.4805 13.8918C69.2522 13.8888 69.0269 13.8392 68.8179 13.7463L68.7353 13.7095L69.0035 12.7457L69.1192 12.8139C69.2296 12.879 69.3549 12.9139 69.4828 12.9151L69.4896 12.9152C69.6178 12.925 69.7459 12.8952 69.8567 12.8295C69.9653 12.7346 70.0491 12.614 70.1006 12.4784L70.1029 12.4723L70.3116 12.0118L68.1908 7.25562H69.3634L70.8285 10.7035L72.2542 7.24512ZM72.3924 7.45512L70.8314 11.2417L69.2269 7.46562H68.512L70.5394 12.0125L70.2929 12.557C70.2278 12.7268 70.1217 12.8775 69.9844 12.9953L69.978 13.0007L69.9709 13.005C69.8225 13.0956 69.6502 13.1375 69.4774 13.1251C69.3589 13.1235 69.2421 13.0994 69.1331 13.0543L68.9846 13.5881C69.1432 13.6474 69.3108 13.6791 69.4802 13.6816C69.7818 13.6678 70.0719 13.5599 70.3105 13.3726C70.5499 13.1847 70.7257 12.9261 70.8137 12.6326L70.8156 12.6262L73.1068 7.45512H72.3924ZM74.0655 7.24512H78.7736V13.7551H77.7677V8.23212H75.0714V13.7551H74.0655V7.24512ZM74.2729 7.45512V13.5451H74.864V8.02212H77.9751V13.5451H78.5662V7.45512H74.2729ZM79.987 7.24512H80.9929V9.94362H83.8966V7.24512H84.9025V13.7551H83.8966V10.9096H80.9929V13.7551H79.987V7.24512ZM80.1944 7.45512V13.5451H80.7855V10.6996H84.104V13.5451H84.6951V7.45512H84.104V10.1536H80.7855V7.45512H80.1944ZM51.3434 8.61972C51.8118 8.14745 52.4459 7.88229 53.107 7.88229C53.768 7.88229 54.4021 8.14745 54.8705 8.61972L54.8743 8.62349C55.3346 9.13733 55.5895 9.80636 55.5895 10.5001C55.5895 11.1939 55.3345 11.8628 54.8742 12.3767L54.8706 12.3806C54.4022 12.8529 53.768 13.118 53.107 13.118C52.4459 13.118 51.8118 12.8528 51.3434 12.3805L51.4166 12.3061L51.3398 12.3767C50.8794 11.8628 50.6244 11.1939 50.6244 10.5001C50.6244 9.80636 50.8794 9.13742 51.3398 8.62358L51.3434 8.61972ZM51.4916 12.2336C51.921 12.6655 52.5017 12.908 53.107 12.908C53.7123 12.908 54.293 12.6655 54.7223 12.2336C55.1469 11.7586 55.3821 11.1408 55.3821 10.5001C55.3821 9.85941 55.1469 9.2416 54.7223 8.76665C54.293 8.33474 53.7123 8.09229 53.107 8.09229C52.5017 8.09229 51.921 8.33474 51.4916 8.76665C51.067 9.2416 50.8318 9.85941 50.8318 10.5001C50.8318 11.1408 51.067 11.7586 51.4916 12.2336ZM87.2768 8.61972C87.7452 8.14745 88.3793 7.88229 89.0403 7.88229C89.7014 7.88229 90.3355 8.14745 90.8039 8.61972L90.8076 8.62349C91.268 9.13733 91.5229 9.80636 91.5229 10.5001C91.5229 11.1939 91.2679 11.8628 90.8075 12.3767L90.804 12.3806C90.3356 12.8529 89.7014 13.118 89.0403 13.118C88.3793 13.118 87.7452 12.8528 87.2768 12.3805L87.35 12.3061L87.2731 12.3767C86.8128 11.8628 86.5578 11.1939 86.5578 10.5001C86.5578 9.80636 86.8128 9.13742 87.2731 8.62358L87.2768 8.61972ZM87.425 12.2336C87.8543 12.6655 88.435 12.908 89.0403 12.908C89.6456 12.908 90.2263 12.6655 90.6556 12.2336C91.0803 11.7587 91.3155 11.1408 91.3155 10.5001C91.3155 9.85941 91.0803 9.24159 90.6556 8.76664C90.2263 8.33474 89.6456 8.09229 89.0403 8.09229C88.435 8.09229 87.8543 8.33474 87.425 8.76664C87.0004 9.24159 86.7652 9.85941 86.7652 10.5001C86.7652 11.1408 87.0004 11.7587 87.425 12.2336ZM97.8225 7.99062C97.968 7.98646 98.1126 8.01463 98.2461 8.07316C98.3794 8.13158 98.4985 8.21882 98.5949 8.32875C98.6902 8.4284 98.7649 8.54637 98.8145 8.67569C98.8643 8.80582 98.8878 8.94479 98.8835 9.08432C98.8792 9.22384 98.8472 9.36106 98.7894 9.48778C98.7322 9.61307 98.651 9.72556 98.5505 9.81871C98.449 9.92942 98.3251 10.0167 98.1873 10.0745C98.0487 10.1326 97.8992 10.1596 97.7493 10.1536H96.1936L96.2396 7.99062H97.8225ZM98.1637 8.26588C98.0576 8.21937 97.9427 8.19708 97.8271 8.20058L97.824 8.20062H96.4426L96.4055 9.94362H97.7558C97.8763 9.94872 97.9964 9.92723 98.1079 9.88049C98.2193 9.83374 98.3194 9.76295 98.401 9.67305L98.4042 9.66954L98.4077 9.66634C98.4892 9.59152 98.555 9.50084 98.6011 9.39971C98.6472 9.29859 98.6728 9.1891 98.6762 9.07776C98.6797 8.96642 98.6609 8.85553 98.6211 8.75169C98.5813 8.64784 98.5212 8.55318 98.4445 8.47335L98.4411 8.46975C98.3645 8.38204 98.2698 8.31238 98.1637 8.26588ZM45.0077 8.02212H47.7351V13.0201H44.3365L44.4316 12.8608C44.8541 12.1529 45.0551 11.332 45.0079 10.5062L45.0075 10.5001L45.0077 8.02212ZM45.2151 8.23212V10.4971C45.2606 11.303 45.0814 12.1043 44.6996 12.8101H47.5277V8.23212H45.2151ZM96.2285 10.6786H97.907C98.2095 10.6786 98.4997 10.8003 98.7136 11.0169C98.9275 11.2335 99.0477 11.5273 99.0477 11.8336L99.0477 11.8351C99.0436 12.1278 98.93 12.4079 98.7298 12.6189C98.6268 12.7363 98.4997 12.8293 98.3573 12.8914C98.2147 12.9535 98.0604 12.9831 97.9053 12.9781H96.1943L96.2285 10.6786ZM96.4328 10.8886L96.4049 12.7681H97.9105C98.0356 12.7724 98.1602 12.7486 98.2753 12.6985C98.3903 12.6483 98.493 12.5731 98.576 12.4781L98.5789 12.4747C98.7433 12.302 98.8368 12.0726 98.8403 11.8329C98.8401 11.5825 98.7418 11.3425 98.5669 11.1654C98.3919 10.9882 98.1545 10.8886 97.907 10.8886H96.4328Z" fill="#131313"/>
<path d="M10.9357 34.3334L23.64 20.9919L10.9463 7.67419C10.6073 7.88154 10.3975 8.36161 10.3975 8.99002V33.0304C10.402 33.6588 10.6042 34.1037 10.9357 34.3334Z" fill="#131313"/>
<path d="M24.097 20.6235L27.8813 16.6489L12.4707 7.77472C12.2112 7.61638 11.9164 7.53275 11.6162 7.53229L24.0955 20.6219L24.097 20.6235Z" fill="#131313"/>
<path d="M24.095 21.362L11.5762 34.509C11.8904 34.5145 12.1999 34.4284 12.4702 34.2602L27.9112 25.3621L24.095 21.362Z" fill="#131313"/>
<path d="M33.4602 19.8693L28.3319 16.9107L24.4443 20.9937L28.3608 25.1023L33.4587 22.1516C34.5427 21.5248 34.5427 20.4929 33.4602 19.8693Z" fill="#131313"/>
</svg>
