<svg width="85" height="50" viewBox="0 0 85 50" fill="none" xmlns="http://www.w3.org/2000/svg">
<g clip-path="url(#clip0_7945_20336)">
<path d="M34.7008 32.7626C34.1581 31.009 33.3569 29.4911 32.2936 28.2126C31.234 26.9342 30.1191 26.1274 28.9561 25.7921C32.9951 24.9668 35.0109 22.6532 35.0109 18.8584C35.0109 13.8774 31.1861 11.7737 23.7874 11.7737C22.7278 11.7737 21.2916 11.8511 19.4272 11.9542C17.3043 12.0574 15.4804 11.8916 13.7711 11.8916C13.2542 12.4847 13.0068 13.1037 13.0068 14.1353C13.8855 14.1353 15.2995 13.8295 15.713 14.1389C16.1265 14.4484 16.1413 15.5058 16.1413 16.2021L16.4662 34.6158C16.4662 35.3121 15.654 36.41 15.0854 36.3547C14.5796 36.3069 13.9077 36.6384 13.0438 36.2811C13.0438 37.1837 13.3391 37.9979 13.9372 38.72H23.6286C24.1972 38.0237 23.887 37.5263 23.887 36.5979C23.0859 36.5979 22.5136 36.76 22.0226 36.4358C21.5316 36.1153 21.8565 34.9768 21.8565 34.3063V27.2253H24.4187C25.1202 27.4574 25.6887 28.0763 26.1281 29.0858C26.5674 30.0916 26.9809 31.359 27.3686 32.8805C27.7304 34.2474 28.1254 35.3526 28.5537 36.1926C28.9819 37.0326 29.6391 37.7105 30.5326 38.2263C31.426 38.7421 32.6481 39 34.1987 39C35.8527 39 36.9787 38.5874 37.5731 37.7621V35.8242C36.8495 35.7211 36.2588 35.43 35.8084 34.9547C35.3543 34.4721 34.9851 33.7426 34.7008 32.7626ZM27.2135 23.0989C26.3348 24.0679 25.1202 24.5505 23.5658 24.5505C22.8939 24.5505 22.3253 24.5247 21.8602 24.4732V14.4853C22.2478 14.3821 22.8828 14.3305 23.7615 14.3305C25.4155 14.3305 26.6265 14.7358 27.3907 15.55C28.155 16.3642 28.5352 17.5984 28.5352 19.2489C28.5315 20.8479 28.0922 22.1337 27.2135 23.0989Z" fill="#1F2023"/>
<path d="M83.7965 27.1295C82.9916 25.98 82.0428 25.059 80.9426 24.359C79.8424 23.6627 78.4764 22.9148 76.8482 22.1116C75.7886 21.5958 74.9395 21.1353 74.3045 20.7374C73.6695 20.3358 73.1489 19.8532 72.7317 19.2858C72.3182 18.7184 72.1115 18.0479 72.1115 17.2705C72.1115 16.3163 72.3699 15.5463 72.8868 14.9642C73.4036 14.3821 74.1789 14.0948 75.2127 14.0948C77.93 14.0948 79.7538 15.9811 80.6842 19.75H83.9073V19.1679C83.9073 17.3332 83.8408 15.7158 83.7116 14.3084C83.5824 12.9011 83.2833 11.7995 82.8181 10.9963L79.5175 12.0021C78.9231 11.6669 78.1293 11.4163 77.1325 11.2469C76.1357 11.0811 75.2127 10.9963 74.3599 10.9963C72.728 10.9963 71.2549 11.2948 69.9332 11.8879C68.6152 12.4811 67.574 13.3395 66.8098 14.4632C66.0456 15.5869 65.6653 16.9095 65.6653 18.4311C65.6653 20.4979 66.2855 22.2516 67.526 23.6995C68.7665 25.1474 70.6051 26.4627 73.0381 27.649C74.8509 28.5258 76.2391 29.3474 77.21 30.1063C78.181 30.869 78.6647 31.8048 78.6647 32.9137C78.6647 33.6616 78.4062 34.3469 77.8894 34.9658C77.3725 35.5848 76.5713 35.8942 75.4822 35.8942C73.8245 35.8942 72.3883 35.2679 71.1737 34.0153C69.9553 32.7627 69.1431 31.0532 68.7296 28.8832H64.8494C64.8494 30.4858 65.0303 32.3242 65.3921 34.4021C65.7539 36.48 66.1822 38.009 66.6732 38.9927L69.6637 37.6774C71.7312 38.5542 73.8134 38.9927 75.9105 38.9927C77.7491 38.9927 79.3551 38.6427 80.7396 37.9463C82.124 37.25 83.1762 36.3142 83.9036 35.139C84.6272 33.9637 84.989 32.6558 84.989 31.2079C85.0001 29.6421 84.5977 28.279 83.7965 27.1295Z" fill="#1F2023"/>
<path d="M53.9911 11.4642C53.4225 12.0574 53.1382 12.8716 53.1382 13.9031C54.1203 13.9031 54.8255 14.0505 55.2537 14.3489C55.6783 14.6474 55.8924 15.1447 55.8924 15.841V29.7452C55.8924 31.3958 55.5232 32.7331 54.7848 33.7537C54.0501 34.7742 52.865 35.2826 51.2369 35.2826C49.6087 35.2826 48.3978 34.7226 47.6077 33.5989C46.8176 32.4752 46.4226 30.9831 46.4226 29.1263V15.841C46.4226 15.1447 46.6035 14.6474 46.9653 14.3489C47.3271 14.0542 47.9473 13.9031 48.8297 13.9031C48.8297 12.9231 48.5344 12.1089 47.9363 11.4642H38.2338C37.6394 12.1089 37.3403 12.9231 37.3403 13.9031C38.219 13.9031 38.8393 14.0505 39.2011 14.3489C39.5629 14.6474 39.7438 15.1447 39.7438 15.841V28.3121C39.7438 31.7716 40.7 34.4168 42.6161 36.2516C44.5323 38.0863 47.1683 39 50.5317 39C53.8692 39 56.3835 38.0495 58.0781 36.1521C59.7727 34.2547 60.6181 31.51 60.6181 27.9216V15.8374C60.6181 15.141 60.8323 14.6437 61.2569 14.3452C61.6851 14.0505 62.3866 13.8995 63.3723 13.8995C63.3723 12.9195 63.0881 12.1052 62.5195 11.4605H53.9911V11.4642Z" fill="#1F2023"/>
<path d="M2.87234 32.7663C3.41506 31.0089 4.21622 29.4947 5.2795 28.2163C6.3391 26.9379 7.45407 26.131 8.61703 25.7958C4.57803 24.9705 2.56222 22.6568 2.56222 18.8621C2.56222 13.881 6.26156 11.7773 13.6603 11.7773C14.7198 11.7773 16.1856 11.7626 18.05 11.7773C20.1987 11.7958 21.9782 11.7 23.8538 11.7773C24.3706 12.3705 24.6069 13.3395 24.6069 14.371C22.868 14.2384 21.8601 14.4889 21.8601 14.4889L21.9081 34.3579C21.9893 35.0284 22.2071 35.5184 22.6096 35.8279C23.012 36.1373 23.6507 36.2921 24.5294 36.2921C24.5294 37.1984 24.234 38.0089 23.6359 38.731H13.8928C13.3243 38.0347 13.04 37.2205 13.04 36.2921C13.8412 36.2921 14.4873 36.1337 14.982 35.8094C15.473 35.4889 15.7167 34.9916 15.7167 34.321V27.2252H13.1545C12.453 27.4573 11.8844 28.0763 11.4451 29.0821C11.0057 30.0916 10.5922 31.3552 10.2046 32.8805C9.84276 34.2473 9.44773 35.3526 9.01946 36.1926C8.59119 37.0326 7.93402 37.7105 7.04057 38.2263C6.14711 38.7421 4.92507 39 3.37445 39C1.72045 39 0.594406 38.5873 0 37.7621V35.8242C0.723624 35.721 1.31434 35.43 1.76476 34.9547C2.21887 34.4758 2.58806 33.7463 2.87234 32.7663ZM14.011 24.5542C14.6829 24.5542 15.2515 24.5284 15.7167 24.4768V14.4852C15.329 14.3821 14.694 14.3305 13.8153 14.3305C12.1613 14.3305 10.9504 14.7358 10.1861 15.55C9.42188 16.3642 9.04161 17.5984 9.04161 19.2489C9.04161 20.8516 9.48095 22.1337 10.3596 23.1026C11.2383 24.0716 12.4567 24.5542 14.011 24.5542Z" fill="#4A9DF7"/>
</g>
<defs>
<clipPath id="clip0_7945_20336">
<rect width="85" height="28" fill="white" transform="translate(0 11)"/>
</clipPath>
</defs>
</svg>
