  <svg viewBox="0 0 24 24" fill="none" xmlns="http://www.w3.org/2000/svg">
          <path
            fill-rule="evenodd"
            clip-rule="evenodd"
            d="M8.061 13.271a1.069 1.069 0 110-2.133 1.069 1.069 0 010 2.133zm4.155 0a1.069 1.069 0 110-2.133 1.069 1.069 0 010 2.133zm3.09-1.068a1.07 1.07 0 002.136 0 1.069 1.069 0 00-2.137 0z"
            fill="currentColor"
          />
          <path
            fill-rule="evenodd"
            clip-rule="evenodd"
            d="M2 12.014C2 6.754 6.205 2 12.019 2 17.704 2 22 6.66 22 11.986 22 18.174 16.94 22 12 22c-1.636 0-3.453-.437-4.933-1.309l-.011-.007c-.238-.145-.37-.214-.475-.246a.259.259 0 00-.18-.001.894.894 0 01-.024.007l-1.843.547a1.455 1.455 0 01-1.424-.304c-.394-.364-.54-.913-.392-1.45l.005-.016.613-2.053a.847.847 0 01.013-.04c.022-.064.013-.095.01-.1a.872.872 0 01-.02-.036c-.844-1.553-1.338-3.276-1.338-4.977zM12.019 3.7c-4.817 0-8.317 3.932-8.317 8.313 0 1.372.4 2.812 1.123 4.15a1.81 1.81 0 01.135 1.507l-.465 1.558 1.39-.413c.902-.29 1.606.14 2.052.413 1.191.7 2.702 1.07 4.064 1.07 4.136 0 8.3-3.193 8.3-8.313 0-4.426-3.574-8.285-8.282-8.285z"
            fill="currentColor"
          />
        </svg>