<svg width="26" height="27" viewBox="0 0 26 27" fill="none" xmlns="http://www.w3.org/2000/svg">
<path d="M5.46099 14.2115C5.3394 14.0989 5.23386 13.9974 5.14546 13.9103C5.23386 13.8232 5.3394 13.7217 5.46099 13.609C5.88042 13.2205 6.48797 12.702 7.23793 12.1839C8.74736 11.1413 10.7845 10.1348 13.0003 10.1348C15.2161 10.1348 17.2532 11.1413 18.7626 12.1839C19.5125 12.702 20.1201 13.2205 20.5395 13.609C20.6611 13.7217 20.7667 13.8232 20.8551 13.9103C20.7667 13.9974 20.6611 14.0989 20.5395 14.2115C20.1201 14.6001 19.5125 15.1186 18.7626 15.6367C17.2532 16.6793 15.2161 17.6858 13.0003 17.6858C10.7845 17.6858 8.74736 16.6793 7.23793 15.6367C6.48797 15.1186 5.88042 14.6001 5.46099 14.2115Z" stroke="black"/>
<circle cx="13.001" cy="13.9464" r="2.13776" fill="black"/>
<path d="M13 7.45898L13 9.85928" stroke="black" stroke-linejoin="bevel"/>
<path d="M6.22656 10.1113L7.92383 11.8086" stroke="black" stroke-linejoin="bevel"/>
<path d="M18.0781 11.8086L19.7754 10.1113" stroke="black" stroke-linejoin="bevel"/>
</svg>
