<svg xmlns="http://www.w3.org/2000/svg" viewBox="0 0 24 24" fill="none"><path fill-rule="evenodd" clip-rule="evenodd" d="M9.036 21.768c.86.45 1.902.23 2.527-.536l4.8-5.878c.426-.52.66-1.182.66-1.867V4.87C17.022 3.285 15.797 2 14.287 2H7c-1.321 0-2.453.992-2.69 2.356l-1.265 7.303c-.305 1.761.984 3.382 2.69 3.382h3.542l-1.291 4.066c-.33 1.038.118 2.172 1.05 2.66zm1.395-1.554a.584.584 0 01-.728.154.646.646 0 01-.303-.766l1.946-6.126H5.735c-.776 0-1.362-.736-1.223-1.537l1.265-7.303C5.885 4.016 6.4 3.565 7 3.565h7.288c.687 0 1.243.584 1.243 1.304v8.618c0 .311-.106.613-.3.849l-4.8 5.878zm9.077-6.998c0 .432.334.782.746.782.411 0 .745-.35.745-.782v-9.39c0-.432-.334-.783-.745-.783-.412 0-.746.35-.746.783v9.39z" fill="currentColor"></path> <defs><clipPath id="clip0"><path fill="#fff" transform="translate(2 2)" d="M0 0h20v20H0z"></path></clipPath></defs></svg>