<svg xmlns="http://www.w3.org/2000/svg" fill="none" viewBox="0 0 24 24"><path fill-rule="evenodd" clip-rule="evenodd" d="M14.963 2.232c-.86-.45-1.901-.23-2.527.536l-4.8 5.878a2.954 2.954 0 00-.659 1.867v8.618C6.977 20.715 8.201 22 9.711 22H17c1.322 0 2.454-.992 2.69-2.356l1.265-7.303c.305-1.761-.984-3.382-2.69-3.382h-3.542l1.292-4.066c.33-1.037-.118-2.172-1.05-2.66zM13.57 3.786c.18-.22.48-.284.727-.154.269.14.398.467.303.766l-1.946 6.126h5.612c.775 0 1.36.736 1.222 1.537l-1.265 7.303c-.108.62-.622 1.071-1.223 1.071H9.711c-.686 0-1.243-.584-1.243-1.304v-8.618c0-.311.107-.612.3-.849l4.8-5.878zM4.49 10.784c0-.432-.334-.782-.745-.782-.412 0-.746.35-.746.782v9.39c0 .432.334.783.746.783.411 0 .745-.35.745-.783v-9.39z" fill="currentColor"></path> <defs><clipPath id="clip0"><path fill="#fff" transform="translate(2 2)" d="M0 0h20v20H0z"></path></clipPath></defs></svg>