<svg viewBox="0 0 24 24" fill="none" xmlns="http://www.w3.org/2000/svg">
        <path
          fill-rule="evenodd"
          clip-rule="evenodd"
          d="M12.1 9.837a2.31 2.31 0 100 4.622 2.31 2.31 0 000-4.622zM8.088 12.15a4.01 4.01 0 118.021-.002 4.01 4.01 0 01-8.021.002z"
          fill="currentColor"
        />
        <path
          fill-rule="evenodd"
          clip-rule="evenodd"
          d="M12.25 4a8.805 8.805 0 012.03.272c.578.148 1.14.353 1.685.611a10.878 10.878 0 012.964 2.108c.688.68 1.32 1.463 1.885 2.337a16.526 16.526 0 011.317 2.485.85.85 0 010 .671 17.898 17.898 0 01-.789 1.607c-.41.734-.863 1.414-1.355 2.033A12.309 12.309 0 0117.6 18.44c-.734.533-1.515.962-2.332 1.273a9.025 9.025 0 01-2.614.571c-.143.01-.286.015-.43.017H12.105a10.32 10.32 0 01-.294-.004 8.762 8.762 0 01-2.476-.441 9.665 9.665 0 01-1.995-.923 11.333 11.333 0 01-2.183-1.739 13.717 13.717 0 01-1.577-1.93c-.313-.46-.606-.947-.878-1.459a17.454 17.454 0 01-.633-1.32.85.85 0 010-.67l.058-.134c.225-.512.469-1.004.73-1.473.327-.584.68-1.134 1.06-1.647.336-.455.692-.88 1.066-1.275.456-.481.94-.915 1.446-1.299a9.976 9.976 0 012.906-1.543c.8-.263 1.63-.413 2.476-.441.08-.003.21-.002.291-.001h.148zm.008 1.7l-.095.001h-.131c-.065-.001-.121-.002-.164 0a7.156 7.156 0 00-2.003.357 8.277 8.277 0 00-2.41 1.283c-.429.325-.843.697-1.238 1.114-.325.342-.637.714-.933 1.116-.334.452-.65.94-.942 1.465-.198.355-.386.726-.562 1.113.134.294.275.58.422.856.245.46.507.894.784 1.302.428.63.89 1.195 1.381 1.692a9.635 9.635 0 001.855 1.48 7.961 7.961 0 001.643.76 7.267 7.267 0 002.003.358L12 18.6h.201a7.051 7.051 0 001.122-.106c.454-.08.902-.204 1.34-.37a8.338 8.338 0 001.937-1.06 10.614 10.614 0 002.056-1.996c.431-.544.834-1.147 1.202-1.806.183-.328.357-.669.521-1.024l.041-.09-.04-.088c-.301-.649-.634-1.253-.994-1.81a12.105 12.105 0 00-1.651-2.05 9.18 9.18 0 00-2.5-1.78 7.584 7.584 0 00-1.375-.5 7.107 7.107 0 00-1.602-.22z"
          fill="currentColor"
        />
      </svg>