<svg width="50" height="27" viewBox="0 0 50 27" fill="none" xmlns="http://www.w3.org/2000/svg">
<path fill-rule="evenodd" clip-rule="evenodd" d="M24.6346 4.43855L24.6359 4.85763H23.5994C23.5993 4.63472 23.5994 4.41188 23.6036 4.18926C23.6095 3.87676 23.6144 3.56179 23.5399 3.25967C23.376 2.59808 22.7578 1.94934 21.7348 2.08829C21.0671 2.17877 20.4818 2.85767 20.4724 3.59541C20.4677 3.96119 20.4686 4.3272 20.4694 4.69329V4.69332V4.69335V4.69339V4.69342V4.69345L20.4694 4.69387L20.4697 4.85763H19.3999C19.4007 4.61726 19.4012 4.37697 19.3972 4.1369C19.3855 3.32697 18.8256 2.70988 18.0014 2.5922C17.3018 2.49182 16.5781 2.97838 16.3573 3.70672C16.2493 4.06444 16.2578 4.43063 16.2663 4.79657V4.79658V4.79658L16.2677 4.85763H12.6328V19.1537H16.9563C17.1176 19.9837 17.394 20.7773 17.7952 21.5162C18.5154 22.8423 19.5055 23.9247 20.7944 24.7144C22.593 25.816 24.5394 26.1918 26.6049 25.8264C28.5193 25.4877 30.1266 24.5675 31.419 23.0905C32.4164 21.9503 33.0465 20.6354 33.3483 19.1537H37.3673V4.85763H31.9298L31.9299 4.82774V4.82764V4.82755V4.82746V4.82723C31.9309 4.53981 31.9318 4.25222 31.9277 3.96463C31.9268 3.90384 31.9278 3.84305 31.9288 3.78227C31.9317 3.60623 31.9345 3.43027 31.8919 3.25458C31.7236 2.5653 31.0274 1.97096 30.182 2.08172C29.4839 2.1732 28.9118 2.7354 28.8343 3.42864C28.7906 3.81764 28.7951 4.20644 28.7996 4.59516V4.59518V4.5952V4.59522V4.59524C28.8006 4.68271 28.8016 4.77017 28.8021 4.85763H27.767L27.7672 4.60008V4.59943C27.7678 3.93604 27.7684 3.27266 27.7662 2.60928C27.7647 2.15239 27.6097 1.74298 27.2746 1.44235C26.779 0.997331 26.2001 0.866793 25.575 1.14864C24.9451 1.43295 24.6463 1.95115 24.6379 2.634C24.6307 3.23526 24.6327 3.83676 24.6346 4.43817V4.43829V4.43836V4.43842V4.43849V4.43855ZM33.492 17.8527H36.0663V6.15862H13.9338V17.8527H27.4638C27.6323 17.7501 27.8055 17.6541 27.9826 17.5634C28.6523 17.2742 29.347 17.071 30.0756 17.0388C30.3337 17.0274 30.3744 16.9434 30.3754 16.7095C30.3772 16.3614 30.3735 16.0131 30.3698 15.6648C30.3596 14.6912 30.3493 13.7174 30.4588 12.7469C30.5172 12.2287 30.6629 11.7342 30.9303 11.2838C31.4347 10.4338 32.2236 10.1539 33.1543 10.195C33.4958 10.2098 33.4958 10.2329 33.4958 10.5693V10.5722C33.4958 10.8757 33.4956 11.179 33.4955 11.4824C33.4952 12.19 33.4949 12.8975 33.4963 13.6053C33.4973 13.8726 33.5008 14.1402 33.5044 14.4079C33.5062 14.5423 33.508 14.6768 33.5095 14.8113C33.5088 15.0703 33.5076 15.3293 33.5064 15.5884C33.5037 16.1642 33.5011 16.7401 33.5031 17.3157C33.5037 17.4951 33.5001 17.6741 33.492 17.8527ZM24.885 15.7505C27.0155 15.7505 28.7427 14.0234 28.7427 11.8928C28.7427 9.76229 27.0155 8.03516 24.885 8.03516C22.7545 8.03516 21.0273 9.76229 21.0273 11.8928C21.0273 14.0234 22.7545 15.7505 24.885 15.7505Z" fill="#575555"/>
</svg>
