<svg width="50" height="27" viewBox="0 0 50 27" fill="none" xmlns="http://www.w3.org/2000/svg">
<path d="M14.9116 24.7528C14.9116 24.2436 15.2453 23.8253 15.7905 23.8253C16.3115 23.8253 16.6633 24.2256 16.6633 24.7528C16.6633 25.2801 16.3115 25.6803 15.7905 25.6803C15.2453 25.6803 14.9116 25.262 14.9116 24.7528ZM17.2571 24.7528V23.3043H16.6272V23.656C16.4274 23.3952 16.1242 23.2315 15.7122 23.2315C14.8998 23.2315 14.263 23.8683 14.263 24.7528C14.263 25.638 14.8998 26.2742 15.7122 26.2742C16.1242 26.2742 16.4274 26.1104 16.6272 25.8496V26.2013H17.2571V24.7528ZM38.5435 24.7528C38.5435 24.2436 38.8771 23.8253 39.4224 23.8253C39.9441 23.8253 40.2951 24.2256 40.2951 24.7528C40.2951 25.2801 39.9441 25.6803 39.4224 25.6803C38.8771 25.6803 38.5435 25.262 38.5435 24.7528ZM40.8897 24.7528V22.1409H40.2591V23.656C40.0593 23.3952 39.7561 23.2315 39.344 23.2315C38.5317 23.2315 37.8948 23.8683 37.8948 24.7528C37.8948 25.638 38.5317 26.2742 39.344 26.2742C39.7561 26.2742 40.0593 26.1104 40.2591 25.8496V26.2013H40.8897V24.7528ZM25.0761 23.7955C25.4819 23.7955 25.7428 24.0501 25.8094 24.4982H24.3061C24.3734 24.0799 24.6273 23.7955 25.0761 23.7955ZM25.0886 23.2315C24.2395 23.2315 23.6456 23.8496 23.6456 24.7528C23.6456 25.6741 24.2638 26.2742 25.1309 26.2742C25.5673 26.2742 25.9669 26.1653 26.3186 25.8683L26.0099 25.4015C25.7671 25.595 25.4577 25.7046 25.167 25.7046C24.7612 25.7046 24.3914 25.5166 24.3005 24.9949H26.4518C26.458 24.9165 26.4643 24.8375 26.4643 24.7528C26.458 23.8496 25.9003 23.2315 25.0886 23.2315ZM32.6946 24.7528C32.6946 24.2436 33.0283 23.8253 33.5736 23.8253C34.0946 23.8253 34.4463 24.2256 34.4463 24.7528C34.4463 25.2801 34.0946 25.6803 33.5736 25.6803C33.0283 25.6803 32.6946 25.262 32.6946 24.7528ZM35.0401 24.7528V23.3043H34.4102V23.656C34.2097 23.3952 33.9073 23.2315 33.4952 23.2315C32.6828 23.2315 32.046 23.8683 32.046 24.7528C32.046 25.638 32.6828 26.2742 33.4952 26.2742C33.9073 26.2742 34.2097 26.1104 34.4102 25.8496V26.2013H35.0401V24.7528ZM29.1372 24.7528C29.1372 25.6318 29.7491 26.2742 30.6828 26.2742C31.1192 26.2742 31.4099 26.177 31.7248 25.9287L31.4223 25.4195C31.1858 25.5895 30.9374 25.6803 30.6641 25.6803C30.1611 25.6741 29.7914 25.3106 29.7914 24.7528C29.7914 24.1951 30.1611 23.8316 30.6641 23.8253C30.9374 23.8253 31.1858 23.9162 31.4223 24.0861L31.7248 23.577C31.4099 23.3286 31.1192 23.2315 30.6828 23.2315C29.7491 23.2315 29.1372 23.8739 29.1372 24.7528ZM37.2587 23.2315C36.8952 23.2315 36.6586 23.4014 36.4949 23.656V23.3043H35.8705V26.2013H36.5011V24.5773C36.5011 24.0979 36.7072 23.8316 37.1192 23.8316C37.2469 23.8316 37.3801 23.8496 37.5133 23.9044L37.7075 23.3106C37.5681 23.2558 37.3863 23.2315 37.2587 23.2315ZM20.3726 23.5346C20.0695 23.3348 19.6518 23.2315 19.1912 23.2315C18.4572 23.2315 17.9848 23.5832 17.9848 24.159C17.9848 24.6314 18.3365 24.9228 18.9845 25.0137L19.2821 25.056C19.6276 25.1045 19.7906 25.1954 19.7906 25.3591C19.7906 25.5832 19.5603 25.7109 19.1302 25.7109C18.6938 25.7109 18.3788 25.5714 18.1666 25.4077L17.8697 25.8982C18.2151 26.1528 18.6515 26.2742 19.1239 26.2742C19.9606 26.2742 20.4455 25.8801 20.4455 25.3286C20.4455 24.8194 20.0639 24.553 19.4333 24.4622L19.1364 24.4191C18.8638 24.3831 18.6452 24.329 18.6452 24.1347C18.6452 23.9224 18.8513 23.7955 19.1968 23.7955C19.5665 23.7955 19.9245 23.9349 20.1 24.0438L20.3726 23.5346ZM28.5004 23.2315C28.1368 23.2315 27.9003 23.4014 27.7373 23.656V23.3043H27.1129V26.2013H27.7428V24.5773C27.7428 24.0979 27.9488 23.8316 28.3609 23.8316C28.4886 23.8316 28.6218 23.8496 28.755 23.9044L28.9492 23.3106C28.8098 23.2558 28.628 23.2315 28.5004 23.2315ZM23.1246 23.3043H22.0945V22.4254H21.4576V23.3043H20.87V23.8801H21.4576V25.2017C21.4576 25.8739 21.7185 26.2742 22.4635 26.2742C22.7369 26.2742 23.0518 26.1895 23.2516 26.0501L23.0698 25.5104C22.8818 25.6193 22.6758 25.6741 22.5121 25.6741C22.1971 25.6741 22.0945 25.4799 22.0945 25.1892V23.8801H23.1246V23.3043ZM13.7059 26.2013V24.3831C13.7059 23.6984 13.2695 23.2377 12.5661 23.2315C12.1963 23.2252 11.8148 23.3404 11.5477 23.7469C11.3479 23.4257 11.033 23.2315 10.5904 23.2315C10.281 23.2315 9.97849 23.3224 9.74193 23.6616V23.3043H9.11133V26.2013H9.74748V24.5953C9.74748 24.0924 10.0264 23.8253 10.4572 23.8253C10.8755 23.8253 11.0871 24.0979 11.0871 24.5891V26.2013H11.7239V24.5953C11.7239 24.0924 12.0146 23.8253 12.4329 23.8253C12.863 23.8253 13.069 24.0979 13.069 24.5891V26.2013H13.7059Z" fill="#575555"/>
<path d="M28.2472 9.79473C28.2472 14.8031 24.1871 18.8631 19.1788 18.8631C14.1704 18.8631 10.1104 14.8031 10.1104 9.79473C10.1104 4.78638 14.1704 0.726318 19.1788 0.726318C24.1871 0.726318 28.2472 4.78638 28.2472 9.79473Z" fill="#575555"/>
<path d="M39.8692 9.79424C39.8692 14.8026 35.8092 18.8627 30.8008 18.8627C25.7925 18.8627 21.7324 14.8026 21.7324 9.79424C21.7324 4.7859 25.7925 0.72583 30.8008 0.72583C35.8092 0.72583 39.8692 4.7859 39.8692 9.79424Z" fill="#575555"/>
<path fill-rule="evenodd" clip-rule="evenodd" d="M24.9893 16.8231C26.9798 15.1597 28.2461 12.6584 28.2461 9.8614C28.2461 7.06439 26.9798 4.56314 24.9893 2.89966C22.9987 4.56314 21.7324 7.06439 21.7324 9.8614C21.7324 12.6584 22.9987 15.1597 24.9893 16.8231Z" fill="#575555"/>
<path fill-rule="evenodd" clip-rule="evenodd" d="M24.9893 16.1013C26.6607 14.544 27.7047 12.3248 27.7047 9.8614C27.7047 7.39796 26.6607 5.17881 24.9893 3.6215C23.3179 5.17881 22.2738 7.39796 22.2738 9.8614C22.2738 12.3248 23.3179 14.544 24.9893 16.1013ZM24.9893 16.8231C22.9987 15.1597 21.7324 12.6584 21.7324 9.8614C21.7324 7.06439 22.9987 4.56314 24.9893 2.89966C26.9798 4.56314 28.2461 7.06439 28.2461 9.8614C28.2461 12.6584 26.9798 15.1597 24.9893 16.8231Z" fill="#131313"/>
</svg>
