<svg width="50" height="27" viewBox="0 0 50 27" fill="none" xmlns="http://www.w3.org/2000/svg">
<path d="M21.4409 19.2368H18.3301L20.2758 8.08447H23.3865L21.4409 19.2368Z" fill="#575555"/>
<path d="M32.7175 8.35688C32.1039 8.13123 31.1306 7.88208 29.9273 7.88208C26.8552 7.88208 24.6919 9.40062 24.6786 11.5717C24.6531 13.1735 26.2275 14.0631 27.405 14.5972C28.6085 15.143 29.0177 15.4992 29.0177 15.9857C29.0054 16.7328 28.0451 17.0772 27.1495 17.0772C25.9075 17.0772 25.242 16.8996 24.2307 16.484L23.8211 16.3058L23.3857 18.8092C24.1154 19.1174 25.4596 19.3908 26.8552 19.4028C30.1193 19.4028 32.2444 17.9077 32.2695 15.5941C32.282 14.3246 31.4506 13.3518 29.6583 12.5569C28.5703 12.0466 27.9039 11.7025 27.9039 11.1804C27.9167 10.7058 28.4675 10.2196 29.6957 10.2196C30.7071 10.1958 31.4501 10.4212 32.013 10.6467L32.2944 10.7651L32.7175 8.35688Z" fill="#575555"/>
<path d="M36.8511 15.2862C37.1073 14.6455 38.0931 12.1658 38.0931 12.1658C38.0802 12.1897 38.3488 11.5133 38.5024 11.0981L38.7198 12.0591C38.7198 12.0591 39.3089 14.7286 39.4368 15.2862C38.9506 15.2862 37.4655 15.2862 36.8511 15.2862ZM40.691 8.08472H38.2848C37.5428 8.08472 36.979 8.28624 36.6589 9.01003L32.0381 19.2369H35.3022C35.3022 19.2369 35.8396 17.8604 35.9551 17.564C36.3132 17.564 39.4885 17.564 39.9492 17.564C40.0385 17.9555 40.3204 19.2369 40.3204 19.2369H43.2007L40.691 8.08472Z" fill="#575555"/>
<path d="M15.7302 8.08472L12.6837 15.6895L12.3508 14.1472C11.7875 12.3675 10.0211 10.434 8.0498 9.47253L10.8403 19.2252H14.13L19.0197 8.08472H15.7302Z" fill="#575555"/>
<path d="M9.85607 7.59741H4.85101L4.7998 7.82275C8.70407 8.74822 11.2898 10.979 12.3521 13.6604L11.2641 8.53487C11.085 7.82259 10.5345 7.62091 9.85607 7.59741Z" fill="#575555"/>
</svg>
