<svg width="50" height="27" viewBox="0 0 50 27" fill="none" xmlns="http://www.w3.org/2000/svg">
<path d="M32.3294 9.81188C32.9341 9.84807 33.5085 9.84659 34.0715 9.92636C34.6929 10.0143 35.0771 10.4688 35.1465 11.0952C35.1701 11.3086 35.1831 11.5243 35.1831 11.7392C35.1853 15.5425 35.1857 19.3459 35.1823 23.1492C35.1823 23.363 35.1683 23.5813 35.1258 23.7903C34.9788 24.5141 34.5547 24.9203 33.8259 25.0315C33.5292 25.0769 33.2267 25.1046 32.9267 25.105C27.6261 25.1094 22.3254 25.1086 17.0252 25.1072C16.4633 25.1072 15.9384 24.9805 15.5017 24.6012C14.9941 24.1599 14.8227 23.5765 14.8209 22.9313C14.8161 21.2141 14.8194 19.4973 14.8194 17.7801C14.8194 15.6814 14.8327 13.5827 14.8146 11.4844C14.8035 10.2351 15.3617 9.34103 16.4263 8.74721C20.3037 6.58465 24.1858 4.4302 28.0657 2.27244C28.4513 2.05788 28.8533 1.89945 29.3032 1.89207C29.9042 1.8821 30.2806 2.20634 30.3457 2.80496C30.3682 3.01213 30.3811 3.22152 30.3811 3.43017C30.3833 7.28261 30.3859 11.1354 30.3778 14.9879C30.3771 15.3413 30.3394 15.7028 30.2577 16.0462C30.069 16.8428 29.5492 17.3576 28.7934 17.6534C25.9105 18.7827 23.0292 19.916 20.147 21.0476C19.6384 21.2473 19.1234 21.4327 18.6206 21.6465C18.4093 21.7363 18.208 21.8648 18.0274 22.0077C17.8135 22.1765 17.7544 22.4239 17.7917 22.6909C17.8353 22.9996 18.0735 23.1946 18.4381 23.2024C18.5708 23.205 18.7078 23.1784 18.8364 23.1422C22.4817 22.1152 26.1259 21.0834 29.772 20.0579C30.2995 19.9094 30.8266 19.7709 31.2947 19.4699C31.9833 19.0275 32.3235 18.389 32.3261 17.5825C32.3342 15.0902 32.3294 12.5974 32.3298 10.1051C32.3294 10.0261 32.3294 9.94741 32.3294 9.81188ZM24.2504 10.7702C24.2501 11.5354 24.7587 11.901 25.489 11.6613C26.294 11.3972 27.1344 10.4135 27.0856 9.42006C27.0564 8.81996 26.615 8.45547 26.0295 8.57771C25.0993 8.7727 24.2512 9.81742 24.2504 10.7702Z" fill="#575555"/>
</svg>
