<svg width="50" height="27" viewBox="0 0 50 27" fill="none" xmlns="http://www.w3.org/2000/svg">
<path d="M25.0969 26.1068C18.7373 26.1102 13.4785 21.5626 12.5294 15.3309C11.4592 8.30316 16.6646 1.60915 23.7114 0.950137C26.2501 0.712585 28.6482 1.17917 30.909 2.37204C31.231 2.54233 31.2844 2.65727 30.9726 2.88376C30.7794 3.02339 30.5963 3.18857 30.443 3.36993C30.1871 3.67134 30.0049 3.59641 29.7718 3.33161C29.3998 2.90674 28.9821 2.52274 28.605 2.10213C28.416 1.89183 28.2966 1.91056 28.0966 2.09447C27.3077 2.8233 26.4959 3.52574 25.7061 4.25287C25.5061 4.43678 25.3884 4.45636 25.2011 4.23754C24.7876 3.75478 24.3393 3.30181 23.9207 2.8233C23.7512 2.62917 23.6377 2.62662 23.4445 2.80287C21.8065 4.298 20.1617 5.78631 18.5119 7.26782C18.3119 7.44747 18.3306 7.55816 18.5009 7.74462C19.5118 8.84979 20.5058 9.97113 21.5209 11.0729C21.7192 11.2883 21.7523 11.4126 21.504 11.6016C21.2125 11.8239 20.9608 12.0972 20.6719 12.3228C20.4337 12.5084 20.4473 12.6438 20.6447 12.8618C21.6218 13.9405 22.5759 15.0406 23.5563 16.116C23.7911 16.3731 23.8097 16.5272 23.5199 16.7426C23.2259 16.9606 22.9759 17.2356 22.6903 17.4672C22.5208 17.6043 22.503 17.6937 22.659 17.8665C24.1724 19.5464 25.6799 21.2314 27.1789 22.9249C27.367 23.1378 27.4678 23.0416 27.6161 22.9028C28.4109 22.1603 29.2177 21.4307 30.0057 20.6805C30.2209 20.4762 30.3455 20.4736 30.5421 20.7052C31.2276 21.5141 31.9276 22.3102 32.636 23.0986C32.8105 23.2927 32.8199 23.3975 32.5987 23.5592C30.7989 24.8773 28.8135 25.7304 26.5967 26.0216C26.062 26.0906 25.5282 26.1204 25.0969 26.1068Z" fill="#575555"/>
<path d="M30.4556 18.14C30.4539 18.2736 30.3633 18.3281 30.2921 18.392C29.4362 19.1676 28.5762 19.9399 27.7237 20.7198C27.5669 20.8637 27.4619 20.8799 27.3102 20.7087C26.5247 19.8224 25.7332 18.9429 24.9358 18.0676C24.8053 17.9245 24.8333 17.8351 24.9612 17.7202C25.8518 16.9198 26.7399 16.1161 27.6254 15.3098C27.7381 15.2068 27.822 15.1778 27.9389 15.3089C28.7456 16.214 29.5574 17.1148 30.3658 18.0174C30.4039 18.0582 30.4319 18.1076 30.4556 18.14Z" fill="#575555"/>
<path d="M26.2006 7.83957C26.2124 7.98346 26.1057 8.02604 26.037 8.08904C25.1922 8.85874 24.3397 9.61908 23.5025 10.3956C23.2974 10.5855 23.1839 10.5761 23 10.3641C22.2594 9.51265 21.5044 8.67313 20.7418 7.84042C20.5706 7.65396 20.5528 7.54753 20.7553 7.36872C21.6222 6.60328 22.4763 5.82421 23.3305 5.04344C23.4686 4.91658 23.5678 4.87656 23.711 5.03919C24.5067 5.9366 25.31 6.82721 26.1099 7.72122C26.1455 7.76294 26.1768 7.80892 26.2006 7.83957Z" fill="#575555"/>
<path d="M28.3553 12.996C28.2968 13.0676 28.2511 13.1391 28.1909 13.1936C27.3232 13.9812 26.4496 14.7628 25.5861 15.5563C25.4115 15.7164 25.3098 15.6687 25.1743 15.5154C24.3947 14.6393 23.6134 13.7657 22.8219 12.9007C22.672 12.7372 22.7194 12.6487 22.8575 12.5252C23.7295 11.7427 24.6014 10.9585 25.4641 10.165C25.6352 10.0075 25.7352 10.0373 25.8759 10.1957C26.6538 11.0726 27.4401 11.9428 28.2223 12.8172C28.2672 12.8675 28.3045 12.9271 28.3553 12.996Z" fill="#575555"/>
<path d="M28.0815 8.35766C27.962 8.35596 27.9154 8.27847 27.8603 8.21802C27.3027 7.59988 26.7502 6.97747 26.1876 6.36359C26.0452 6.20777 26.0215 6.10475 26.1986 5.94979C26.8231 5.40061 27.4408 4.84206 28.0467 4.27245C28.2348 4.09535 28.3408 4.14644 28.4874 4.31332C29.028 4.92806 29.5779 5.53343 30.1262 6.14136C30.2363 6.26312 30.3372 6.36359 30.1567 6.52281C29.5008 7.10093 28.8551 7.69098 28.2043 8.27507C28.1628 8.31083 28.1128 8.33637 28.0815 8.35766Z" fill="#575555"/>
<path d="M31.9597 17.6915C31.9156 17.6216 31.8792 17.5408 31.8232 17.4777C31.2784 16.8656 30.7386 16.2491 30.1802 15.6514C29.9929 15.4513 30.0319 15.3398 30.2183 15.1763C30.8233 14.6467 31.4207 14.1069 32.008 13.5569C32.1791 13.3968 32.2867 13.3806 32.4494 13.5679C32.9969 14.1955 33.5578 14.8119 34.1171 15.4292C34.2239 15.5467 34.2942 15.6403 34.1408 15.7774C33.4773 16.3692 32.8197 16.9677 32.1588 17.562C32.119 17.5986 32.0681 17.6216 31.9597 17.6915Z" fill="#575555"/>
<path d="M36.2253 20.1681C36.1643 20.2371 36.1152 20.3035 36.055 20.358C35.4398 20.9165 34.8178 21.4691 34.2086 22.0345C34.0476 22.1835 33.9459 22.1877 33.7985 22.0191C33.24 21.384 32.6748 20.7539 32.102 20.1323C31.952 19.9697 32.002 19.8846 32.1427 19.7594C32.7655 19.2085 33.3807 18.65 33.9942 18.0897C34.1222 17.9722 34.2281 17.8939 34.3781 18.0625C34.9585 18.7155 35.5449 19.3635 36.127 20.0148C36.1643 20.0549 36.1872 20.1059 36.2253 20.1681Z" fill="#575555"/>
<path d="M30.3977 8.58643C30.4308 8.65539 30.4494 8.73117 30.4952 8.78311C31.0485 9.40551 31.5984 10.0296 32.1653 10.6392C32.3475 10.8351 32.3213 10.95 32.1314 11.1169C31.5162 11.6559 30.9129 12.2084 30.3113 12.7619C30.1732 12.8896 30.0833 12.9262 29.9376 12.7585C29.3826 12.1199 28.8174 11.489 28.2428 10.8674C28.0878 10.6997 28.1056 10.6001 28.2674 10.4579C28.8919 9.90871 29.5071 9.34761 30.1274 8.79333C30.1876 8.73798 30.257 8.69286 30.3977 8.58643Z" fill="#575555"/>
<path d="M35.7486 9.76654C35.669 9.81592 35.5758 9.85764 35.5029 9.9232C35.1444 10.2425 34.786 10.5626 34.4377 10.8921C34.3047 11.0182 34.2081 11.0752 34.0606 10.9041C33.7192 10.5081 33.3675 10.1207 33.0108 9.73929C32.8692 9.58774 32.8921 9.48471 33.0404 9.35444C33.4234 9.02068 33.7963 8.67499 34.1725 8.33272C34.2691 8.24502 34.3632 8.14455 34.4911 8.28759C34.8682 8.7082 35.2461 9.12881 35.6215 9.55113C35.6563 9.59029 35.6766 9.64308 35.7486 9.76654Z" fill="#575555"/>
<path d="M37.6108 14.1444C37.5464 14.2193 37.4981 14.2874 37.4379 14.3428C37.0752 14.6765 36.7024 15.0009 36.3473 15.3432C36.1863 15.4982 36.0787 15.4914 35.9355 15.3236C35.6059 14.9379 35.2695 14.5573 34.9195 14.1895C34.7729 14.0354 34.7924 13.9494 34.9441 13.8183C35.3279 13.4871 35.7016 13.1431 36.0711 12.7949C36.2092 12.6646 36.3067 12.6322 36.4482 12.7974C36.788 13.1933 37.1447 13.5748 37.4913 13.9639C37.5371 14.0124 37.5667 14.0754 37.6108 14.1444Z" fill="#575555"/>
<path d="M33.8001 5.24495C33.7459 5.30625 33.6967 5.37352 33.6366 5.42801C33.273 5.76177 32.8985 6.08362 32.5451 6.4276C32.3664 6.60129 32.2536 6.57405 32.1028 6.39695C31.7817 6.02231 31.4486 5.65705 31.1105 5.29859C30.9741 5.1547 30.9665 5.05423 31.1224 4.91885C31.5156 4.57657 31.8986 4.22237 32.2842 3.87158C32.374 3.78984 32.4655 3.71747 32.5714 3.83327C32.9621 4.25984 33.3493 4.68896 33.7357 5.11894C33.762 5.14874 33.7738 5.19216 33.8001 5.24495Z" fill="#575555"/>
</svg>
