<svg width="50" height="27" viewBox="0 0 50 27" fill="none" xmlns="http://www.w3.org/2000/svg">
<path d="M32.8207 16.9341C33.2814 17.1056 33.4586 17.7732 33.4938 18.0644C33.5648 18.5958 33.4058 18.8013 33.2285 18.8013C33.0513 18.8013 32.8031 18.5958 32.5379 18.1848C32.272 17.7732 32.1658 17.3111 32.3078 17.071C32.3959 16.9166 32.5907 16.8484 32.8213 16.9341H32.8207ZM30.1295 18.87C30.413 18.87 30.7316 18.9898 31.015 19.2294C31.5637 19.675 31.7233 20.1888 31.4399 20.5657C31.2803 20.7542 31.015 20.874 30.714 20.874C30.413 20.874 30.0943 20.7712 29.8819 20.5827C29.386 20.1717 29.2446 19.486 29.5627 19.1096C29.687 18.9552 29.8819 18.87 30.1295 18.87ZM23.9326 23.8203C17.2034 23.8203 11.75 18.5441 11.75 12.0349C11.75 5.52565 17.204 0.25 23.932 0.25C30.6606 0.25 36.1146 5.52619 36.1146 12.0349C36.1146 14.2444 35.4773 16.3176 34.3975 18.082C34.3617 18.1331 34.2731 18.1161 34.2555 18.0474C33.8306 15.1527 32.0068 13.5592 29.3508 13.08C29.1202 13.0454 29.085 12.9086 29.386 12.8745C30.2005 12.8058 31.3513 12.8229 31.9534 12.9256C31.9886 12.6344 32.0068 12.3261 32.0068 12.0179C32.0068 7.71812 28.3943 4.22338 23.9496 4.22338C19.5055 4.22338 15.893 7.71812 15.893 12.0179C15.893 16.3176 19.5055 19.8123 23.9502 19.8123H24.3217C24.1955 19.1169 24.142 18.4109 24.1621 17.7051C24.1802 17.2254 24.2864 17.1567 24.4989 17.5336C25.6144 19.4008 27.2083 21.0795 30.3243 21.7477C32.8741 22.296 35.4239 22.9296 38.1685 26.304C38.4162 26.5953 38.0447 26.9035 37.7612 26.6639C34.9638 24.2654 32.414 23.4775 30.0943 23.4775C27.4911 23.495 25.7207 23.8203 23.932 23.8203H23.9326Z" fill="#575555"/>
</svg>
