<svg width="50" height="27" viewBox="0 0 50 27" fill="none" xmlns="http://www.w3.org/2000/svg">
<path fill-rule="evenodd" clip-rule="evenodd" d="M32.8664 2.67803L33.9788 3.69506L19.931 11.7678L13.1296 7.82676L13.7653 6.55547L19.931 10.0833L32.8664 2.67803ZM30.0378 1.05713L31.5316 1.8199L19.931 8.49419L14.528 5.41131L15.4497 4.29893L19.931 6.87329L30.0378 1.05713ZM34.9641 4.74388L35.7904 5.85626L19.931 14.9778L12.2715 10.5918L12.6211 9.1934L19.931 13.3887L34.9641 4.74388Z" fill="#575555"/>
<path fill-rule="evenodd" clip-rule="evenodd" d="M37.2522 8.84304C37.7181 10.1569 37.9514 11.5337 37.9514 12.9747C37.9514 14.4158 37.7181 15.8142 37.2522 17.17L36.9344 18.0288C36.2778 19.5753 35.3561 20.9527 34.1693 22.1605C32.9616 23.3466 31.5848 24.2581 30.0376 24.8937C28.4065 25.593 26.7221 25.9426 24.9842 25.9426C23.2254 25.9426 21.5409 25.5923 19.9308 24.8937C18.4263 24.2581 17.0596 23.3466 15.8309 22.1605C14.6232 20.9527 13.7015 19.5753 13.0659 18.0288C12.3876 16.3964 12.0488 14.712 12.0488 12.9747V12.1166L19.9308 16.5979L36.553 7.06323L37.2522 8.84304Z" fill="#575555"/>
</svg>
