<svg width="50" height="27" viewBox="0 0 50 27" fill="none" xmlns="http://www.w3.org/2000/svg">
<path d="M25.0635 1.28373C26.1579 1.26402 26.9997 1.79353 27.4967 2.82051C27.8201 3.48846 28.0793 4.18927 28.3381 4.88639C29.0655 6.84505 29.7781 8.80946 30.4957 10.7718C31.1709 12.6192 31.8444 14.4673 32.52 16.3146C32.752 16.9493 32.9886 17.5828 33.2227 18.217C33.2536 18.3004 33.2852 18.3834 33.3116 18.468C33.4017 18.7543 33.3474 18.8624 33.0655 18.9708C32.1777 19.313 31.2906 19.6569 30.4019 19.997C30.0999 20.1124 30.0053 20.0652 29.8938 19.7587C29.5128 18.7129 29.1297 17.6674 28.7557 16.6186C28.7068 16.481 28.6331 16.4453 28.4994 16.4457C26.176 16.4482 23.8522 16.4494 21.5288 16.444C21.3692 16.4436 21.3004 16.5032 21.2494 16.6453C20.8894 17.6481 20.5224 18.648 20.1575 19.6486C20.1385 19.7 20.1196 19.7513 20.0986 19.8019C19.9896 20.0648 19.8892 20.1079 19.6193 20.0036C19.0445 19.7817 18.4706 19.5587 17.8958 19.336C17.5642 19.2075 17.2325 19.0789 16.9005 18.9515C16.6602 18.8595 16.6018 18.7301 16.6907 18.4873C17.6382 15.9034 18.5849 13.3187 19.5329 10.7344C20.4311 8.28529 21.3198 5.83286 22.2393 3.39151C22.4002 2.96388 22.6475 2.55103 22.931 2.19077C23.4354 1.54829 24.1097 1.28538 25.0635 1.28373ZM27.521 13.1495C26.6841 10.6556 25.8617 8.20518 25.0396 5.75439C25.0166 5.75645 24.9935 5.75891 24.9705 5.76097C24.1513 8.21381 23.3321 10.6662 22.5027 13.1499C24.1945 13.1495 25.8378 13.1495 27.521 13.1495Z" fill="#575555"/>
<path d="M24.9803 25.7157C22.164 25.7157 19.3481 25.7157 16.5318 25.7157C16.4565 25.7157 16.3808 25.7165 16.3059 25.7137C16.0911 25.705 15.9928 25.6101 15.9924 25.3982C15.9908 24.3659 15.9908 23.3339 15.9928 22.3016C15.9932 22.1077 16.0977 22.0009 16.2932 21.9845C16.361 21.9787 16.4302 21.9845 16.4985 21.9845C22.1512 21.9845 27.804 21.9845 33.4567 21.9845C33.539 21.9845 33.6217 21.9804 33.7032 21.987C33.906 22.0026 34.006 22.0958 34.0068 22.2996C34.011 23.3385 34.0077 24.3774 34.0089 25.4163C34.0093 25.6028 33.9093 25.6911 33.7365 25.7108C33.6621 25.7194 33.5859 25.7157 33.5106 25.7157C30.6672 25.7157 27.8237 25.7157 24.9803 25.7157Z" fill="#575555"/>
</svg>
