<svg width="13" height="13" viewBox="0 0 13 13" fill="none" xmlns="http://www.w3.org/2000/svg">
<path d="M4.44365 6.50068C4.44365 5.36546 5.36371 4.44495 6.49897 4.44495C7.63423 4.44495 8.55478 5.36546 8.55478 6.50068C8.55478 7.63589 7.63423 8.5564 6.49897 8.5564C5.36371 8.5564 4.44365 7.63589 4.44365 6.50068ZM3.33232 6.50068C3.33232 8.24955 4.75003 9.6672 6.49897 9.6672C8.24791 9.6672 9.66562 8.24955 9.66562 6.50068C9.66562 4.7518 8.24791 3.33415 6.49897 3.33415C4.75003 3.33415 3.33232 4.7518 3.33232 6.50068ZM9.05095 3.2086C9.05089 3.35496 9.09423 3.49805 9.1755 3.61977C9.25677 3.7415 9.37231 3.83639 9.50751 3.89246C9.64271 3.94852 9.7915 3.96323 9.93506 3.93474C10.0786 3.90624 10.2105 3.83582 10.3141 3.73237C10.4176 3.62892 10.4881 3.49709 10.5167 3.35355C10.5453 3.21002 10.5308 3.06122 10.4748 2.92598C10.4188 2.79074 10.324 2.67513 10.2024 2.59377C10.0807 2.51241 9.93764 2.46895 9.79128 2.46889H9.79098C9.59479 2.46898 9.40666 2.54694 9.2679 2.68563C9.12915 2.82433 9.05112 3.01242 9.05095 3.2086ZM4.00753 11.5202C3.40627 11.4928 3.07948 11.3927 2.8623 11.3081C2.57438 11.196 2.36895 11.0625 2.15296 10.8468C1.93696 10.6311 1.80327 10.4259 1.69167 10.138C1.60701 9.92092 1.50686 9.59404 1.47953 8.99281C1.44963 8.34279 1.44366 8.14753 1.44366 6.50073C1.44366 4.85392 1.45012 4.6592 1.47953 4.00864C1.50691 3.40741 1.6078 3.08117 1.69167 2.86346C1.80376 2.57555 1.93726 2.37013 2.15296 2.15415C2.36865 1.93816 2.57389 1.80447 2.8623 1.69288C3.07938 1.60822 3.40627 1.50807 4.00753 1.48074C4.65757 1.45085 4.85284 1.44488 6.49897 1.44488C8.1451 1.44488 8.34057 1.45134 8.99115 1.48074C9.59241 1.50812 9.91866 1.60901 10.1364 1.69288C10.4243 1.80447 10.6297 1.93846 10.8457 2.15415C11.0617 2.36983 11.1949 2.57555 11.307 2.86346C11.3917 3.08053 11.4918 3.40741 11.5192 4.00864C11.5491 4.6592 11.555 4.85392 11.555 6.50073C11.555 8.14753 11.5491 8.34225 11.5192 8.99281C11.4918 9.59404 11.3911 9.92082 11.307 10.138C11.1949 10.4259 11.0614 10.6313 10.8457 10.8468C10.63 11.0623 10.4243 11.196 10.1364 11.3081C9.9193 11.3927 9.59241 11.4929 8.99115 11.5202C8.34111 11.5501 8.14584 11.5561 6.49897 11.5561C4.8521 11.5561 4.65737 11.5501 4.00753 11.5202ZM3.95646 0.37133C3.29996 0.401226 2.85135 0.50532 2.45958 0.65776C2.05384 0.815184 1.71037 1.02638 1.36714 1.36905C1.02391 1.71172 0.81325 2.05572 0.65582 2.46144C0.503373 2.85345 0.399276 3.30179 0.369378 3.95827C0.338988 4.61579 0.332031 4.826 0.332031 6.50068C0.332031 8.17535 0.338988 8.38556 0.369378 9.04308C0.399276 9.69961 0.503373 10.1479 0.65582 10.5399C0.81325 10.9454 1.02396 11.2898 1.36714 11.6323C1.71032 11.9748 2.05384 12.1857 2.45958 12.3436C2.85209 12.496 3.29996 12.6001 3.95646 12.63C4.61435 12.6599 4.82423 12.6674 6.49897 12.6674C8.17371 12.6674 8.38393 12.6604 9.04148 12.63C9.69803 12.6001 10.1463 12.496 10.5384 12.3436C10.9439 12.1857 11.2876 11.975 11.6308 11.6323C11.974 11.2896 12.1842 10.9454 12.3421 10.5399C12.4946 10.1479 12.5992 9.69956 12.6286 9.04308C12.6585 8.38507 12.6654 8.17535 12.6654 6.50068C12.6654 4.826 12.6585 4.61579 12.6286 3.95827C12.5987 3.30174 12.4946 2.8532 12.3421 2.46144C12.1842 2.05597 11.9735 1.71226 11.6308 1.36905C11.2881 1.02584 10.9439 0.815184 10.5389 0.65776C10.1463 0.50532 9.69798 0.400733 9.04197 0.37133C8.38443 0.341434 8.17421 0.333984 6.49946 0.333984C4.82472 0.333984 4.61435 0.34094 3.95646 0.37133Z" fill="white"/>
</svg>
