<svg width="9" height="13" viewBox="0 0 9 13" fill="none" xmlns="http://www.w3.org/2000/svg">
<path d="M4.49862 2.19947C5.28283 2.19947 5.92071 2.79063 5.92071 3.51738C5.92071 4.24352 5.28266 4.83468 4.49862 4.83468C3.7149 4.83468 3.07685 4.24352 3.07685 3.51738C3.07669 2.79047 3.71507 2.19947 4.49862 2.19947ZM4.49862 6.69925C6.39288 6.69925 7.93335 5.2721 7.93335 3.51738C7.93335 1.76174 6.39305 0.333984 4.49862 0.333984C2.60452 0.333984 1.06389 1.7619 1.06389 3.51738C1.06389 5.2721 2.60452 6.69925 4.49862 6.69925ZM5.88816 9.29561C6.59474 9.14648 7.26904 8.88773 7.88255 8.53031C8.10841 8.39861 8.26857 8.18917 8.3278 7.94804C8.38702 7.70692 8.34047 7.45386 8.19837 7.24455C8.12809 7.1408 8.03643 7.05091 7.92864 6.98002C7.82085 6.90913 7.69903 6.85863 7.57016 6.8314C7.44128 6.80418 7.30788 6.80076 7.17759 6.82135C7.04729 6.84195 6.92265 6.88614 6.8108 6.95141C5.40366 7.77125 3.59259 7.77064 2.1866 6.95141C2.07477 6.88612 1.95014 6.84192 1.81985 6.82132C1.68957 6.80072 1.55617 6.80413 1.42731 6.83135C1.29844 6.85858 1.17664 6.90909 1.06886 6.97999C0.96108 7.05089 0.869445 7.14079 0.799197 7.24455C0.657055 7.45381 0.610423 7.70682 0.669556 7.94794C0.72869 8.18906 0.888747 8.39854 1.11452 8.53031C1.72799 8.8876 2.40215 9.14634 3.10858 9.29561L1.18851 11.0753C0.999816 11.2502 0.893837 11.4875 0.893883 11.7348C0.893929 11.9822 0.999997 12.2193 1.18875 12.3942C1.37751 12.5691 1.63349 12.6673 1.90039 12.6673C2.16728 12.6672 2.42323 12.5689 2.61192 12.394L4.49829 10.6455L6.38581 12.3941C6.47914 12.4808 6.58998 12.5495 6.71199 12.5964C6.834 12.6432 6.96478 12.6674 7.09686 12.6674C7.22894 12.6674 7.35973 12.6432 7.48174 12.5964C7.60374 12.5495 7.71458 12.4808 7.80791 12.3941C7.90151 12.3077 7.97578 12.2049 8.02645 12.0918C8.07712 11.9787 8.10321 11.8574 8.10321 11.7349C8.10321 11.6124 8.07712 11.4911 8.02645 11.378C7.97578 11.2649 7.90151 11.1621 7.80791 11.0756L5.88816 9.29561Z" fill="white"/>
</svg>
