<svg width="17" height="9" viewBox="0 0 17 9" fill="none" xmlns="http://www.w3.org/2000/svg">
<path fill-rule="evenodd" clip-rule="evenodd" d="M15.856 0.991124C15.9632 0.660212 15.856 0.416992 15.3459 0.416992H13.6593C13.2304 0.416992 13.0329 0.627075 12.9256 0.858803C12.9256 0.858803 12.0679 2.79485 10.8528 4.05245C10.4597 4.4165 10.281 4.53219 10.0666 4.53219C9.95939 4.53219 9.80422 4.4165 9.80422 4.08559V0.991124C9.80422 0.59394 9.67978 0.416992 9.32234 0.416992H6.67197C6.40404 0.416992 6.24285 0.601303 6.24285 0.77602C6.24285 1.15256 6.85027 1.23936 6.91291 2.29837V4.59858C6.91291 5.10287 6.81461 5.19435 6.60017 5.19435C6.02841 5.19435 4.63769 3.24949 3.8127 1.02426C3.65103 0.591708 3.48888 0.416992 3.05783 0.416992H1.37123C0.889346 0.416992 0.792969 0.627075 0.792969 0.858803C0.792969 1.2725 1.36485 3.32447 3.45538 6.03826C4.84924 7.89141 6.81268 8.89619 8.59951 8.89619C9.67171 8.89619 9.80422 8.67305 9.80422 8.2887V6.88796C9.80422 6.44169 9.90578 6.35266 10.2451 6.35266C10.4955 6.35266 10.9242 6.46846 11.925 7.36202C13.0685 8.42091 13.2569 8.89619 13.9002 8.89619H15.5868C16.0687 8.89619 16.3097 8.67306 16.1706 8.23269C16.0186 7.79378 15.4726 7.15718 14.7481 6.4023C14.355 5.97198 13.7653 5.50864 13.5868 5.27702C13.3366 4.97914 13.408 4.84682 13.5868 4.58218C13.5868 4.58218 15.6415 1.90141 15.856 0.991235V0.991124Z" fill="white"/>
</svg>
