<svg width="16" height="11" viewBox="0 0 16 11" fill="none" xmlns="http://www.w3.org/2000/svg">
<path fill-rule="evenodd" clip-rule="evenodd" d="M14.0302 0.434347C14.6903 0.612092 15.2109 1.13263 15.3886 1.79283C15.7187 2.99896 15.706 5.51279 15.706 5.51279C15.706 5.51279 15.706 8.01392 15.3886 9.22005C15.2109 9.88025 14.6903 10.4008 14.0302 10.5785C12.824 10.8959 7.9995 10.8959 7.9995 10.8959C7.9995 10.8959 3.18768 10.8959 1.96885 10.5658C1.30866 10.3881 0.788117 9.86755 0.610371 9.20735C0.292969 8.01392 0.292969 5.50009 0.292969 5.50009C0.292969 5.50009 0.292969 2.99896 0.610371 1.79283C0.788117 1.13263 1.32135 0.599396 1.96885 0.421651C3.17498 0.104248 7.9995 0.104248 7.9995 0.104248C7.9995 0.104248 12.824 0.104248 14.0302 0.434347ZM10.4768 5.4999L6.46484 7.81059V3.18921L10.4768 5.4999Z" fill="white"/>
</svg>
